<svg viewBox="0 0 24 24" xmlns="http://www.w3.org/2000/svg"><g fill="none" fill-rule="evenodd"><path d="m7.677 22.06c-.007.004-.017.002-.019.004-.083.074-.179.119-.286.147-.901.246-1.803.49-2.702.737-1.247.34-2.495.682-3.743 1.021-.147.039-.292.039-.438-.017-.067-.026-.129-.065-.198-.101-.05-.045-.097-.094-.146-.146-.003-.006-.007-.016-.009-.021-.131-.189-.17-.397-.106-.619.131-.479.261-.961.396-1.438.439-1.601.876-3.202 1.32-4.807.033-.12.077-.244.12-.363.018-.044.048-.082.076-.123 5.397-5.393 10.79-10.791 16.189-16.185.003-.003.012-.006.018-.008.205-.147.433-.184.675-.101.073.026.137.072.212.109 1.602 1.6 3.206 3.203 4.804 4.806.003.004.003.011.009.017.226.284.202.711-.074.981-1.815 1.809-12.553 12.561-16.1 16.11m13.292-16.651c-1.02-1.021-1.352-1.357-2.369-2.373-4.275 4.273-9.798 9.792-14.07 14.07 1.021 1.021 1.354 1.353 2.373 2.373 4.27-4.269 9.798-9.796 14.07-14.07" fill="#a25cc6"/></g></svg>