<svg viewBox="0 0 24 24" xmlns="http://www.w3.org/2000/svg"><g fill="none" fill-rule="evenodd"><rect fill="#bababd" y="4" width="24" height="16" rx="2"/><g fill="#000"><path d="m13 9h9v1h-9z"/><path d="m13 11.5h9v1h-9z"/><path d="m13 14h9v1h-9z"/><path d="m6.213 5.04c.137.054.295.117.469.188.176.07.358.142.544.217.187.074.375.148.566.223.191.074.372.143.544.208.171.064.325.121.462.172.139.051.25.089.336.116.18.06.326.148.437.269.112.119.199.24.264.366.076.145.132.296.166.458v.746h-10v-.745c.039-.16.096-.312.173-.457.065-.126.152-.247.264-.366.111-.12.256-.208.431-.268.09-.028.209-.067.354-.12.145-.052.309-.114.489-.182.18-.068.369-.141.568-.219.2-.079.398-.156.595-.235.197-.079.382-.152.558-.222.177-.071.33-.134.464-.188v-.669c-.008-.031-.022-.079-.041-.144-.02-.064-.04-.13-.062-.196-.024-.078-.054-.162-.09-.251-.123-.212-.222-.45-.295-.719-.075-.268-.11-.552-.11-.853 0-.396.046-.73.138-1 .092-.274.217-.496.375-.669.16-.172.345-.297.557-.376.212-.078.442-.117.685-.117.24 0 .466.038.679.114.213.076.399.199.56.369.16.171.286.393.379.67.092.274.137.613.137 1.012 0 .294-.034.571-.103.835-.072.264-.17.502-.293.713-.035.097-.066.19-.097.275-.027.075-.049.147-.071.214-.021.069-.032.119-.032.15v.686" transform="translate(2 8)"/></g></g></svg>