<?xml version="1.0" encoding="UTF-8" standalone="no"?>
<svg id="svg2" xmlns:rdf="http://www.w3.org/1999/02/22-rdf-syntax-ns#" xmlns="http://www.w3.org/2000/svg" font-family="&apos;open sans&apos;, &apos;helvetica neue&apos;, helvetica, arial, sans-serif" font-size="12px" viewBox="0 0 1224 709.62" version="1.1" xmlns:cc="http://creativecommons.org/ns#" xmlns:dc="http://purl.org/dc/elements/1.1/">
 <desc id="desc4">Created with Highcharts 4.2.4</desc>
 <defs id="defs6">
  <linearGradient id="highcharts-17" y2="16" gradientUnits="userSpaceOnUse" x2="0" y1="8">
   <stop id="stop9" stop-color="#fff" offset="0"/>
   <stop id="stop11" stop-color="#FCFCFC" offset="1"/>
  </linearGradient>
 </defs>
 <rect id="rect16" class=" highcharts-background" height="770.86" width="1218.6" y="-32.88" x="34.5" fill="none"/>
 <g id="g18" transform="matrix(1.9272 0 0 1.9272 34.5 -32.88)" class="highcharts-series-group">
  <g id="g20" stroke-linejoin="round" transform="translate(10,10)" class="highcharts-series highcharts-series-0" stroke="#fff">
   <path id="path22" d="m289.97 44a144 144 0 0 1 62.64 273.68l-62.61-129.68z" fill="#4db6ac"/>
   <path id="path24" d="m352.48 317.74a144 144 0 0 1 -145.47 -12.06l82.99-117.68z" fill="#e57373"/>
   <path id="path26" d="m206.89 305.6a144 144 0 0 1 -60.16 -132.03l143.27 14.43z" fill="#ffb74d"/>
   <path id="path28" d="m146.74 173.42a144 144 0 0 1 42.77 -88.559l100.49 103.14z" fill="#81c784"/>
   <path id="path30" d="m189.61 84.76a144 144 0 0 1 31.43 -23.174l68.96 126.41z" fill="#4fc3f7"/>
   <path id="path32" d="m221.17 61.517a144 144 0 0 1 26.22 -11.069l42.61 137.55z" fill="#64b5f6"/>
   <path id="path34" d="m247.53 50.406a144 144 0 0 1 28.039 -5.6806l14.43 143.28z" fill="#9575cd"/>
   <path id="path36" d="m275.71 44.711a144 144 0 0 1 14.088 -0.7105l0.2 144z" fill="#ba68c8"/>
  </g>
 </g>
 <g id="g40" transform="matrix(1.9272 0 0 1.9272 53.772 -13.608)" class="highcharts-data-labels highcharts-series-0">
  <g fill="none">
   <path id="path42" d="m464.64 148.78c-5 0-12.799 1.7802-23.524 4.2279l-10.724 2.4477" stroke="#4db6ac"/>
   <path id="path44" d="m270.56 360.9c5 0 5.6641-7.9724 6.5773-18.934l0.91317-10.962" stroke="#e57373"/>
   <path id="path46" d="m126.64 259.59c5 0 12.281-3.3145 22.293-7.872l10.011-4.5575" stroke="#ffb74d"/>
   <path id="path48" d="m127.52 113.5c5 0 13.039 1.7268 22.942 6.516l9.9027 4.7892" stroke="#81c784"/>
   <path id="path50" d="m141.91 88.5c5 0 49.628-34.645 56.152-25.789l6.5247 8.856" stroke="#4fc3f7"/>
   <path id="path52" d="m162.93 63.5c5 0 62.585-28.965 66.858-18.829l4.2728 10.136" stroke="#64b5f6"/>
   <path id="path54" d="m195.14 38.5c5 0 61.969-13.709 64.148-2.9267l2.1796 10.782" stroke="#9575cd"/>
   <path id="path56" d="m276.33 13.5c5 0 5.3988 8.2064 5.9471 19.193l0.5483 10.986" stroke="#ba68c8"/>
  </g>
  <g id="g58" transform="translate(470,139)">
   <text id="text60" style="color:#ffffff" font-size="11px" y="16" x="5" font-weight="bold" fill="#ffffff">
    <tspan id="tspan62">Project Unicorn (42.9%)</tspan>
   </text>
  </g>
  <g id="g64" transform="translate(185,351)">
   <text id="text66" style="color:#ffffff" font-size="11px" y="16" x="5" font-weight="bold" fill="#ffffff">
    <tspan id="tspan68">Sales (16.9%)</tspan>
   </text>
  </g>
  <g id="g70" transform="translate(13,250)">
   <text id="text72" style="color:#ffffff" font-size="11px" y="16" x="5" font-weight="bold" fill="#ffffff">
    <tspan id="tspan74">Recruiting (16.8%)</tspan>
   </text>
  </g>
  <g id="g76" transform="translate(5,104)">
   <text id="text78" style="color:#ffffff" font-size="11px" y="16" x="5" font-weight="bold" fill="#ffffff">
    <tspan id="tspan80">TPS Reports (11.1%)</tspan>
   </text>
  </g>
  <g id="g82" transform="translate(47,79)">
   <text id="text84" style="color:#ffffff" font-size="11px" y="16" x="5" font-weight="bold" fill="#ffffff">
    <tspan id="tspan86">Synergy (4.3%)</tspan>
   </text>
  </g>
  <g id="g88" transform="translate(83,54)">
   <text id="text90" style="color:#ffffff" font-size="11px" y="16" x="5" font-weight="bold" fill="#ffffff">
    <tspan id="tspan92">Legal (3.2%)</tspan>
   </text>
  </g>
  <g id="g94" transform="translate(35,29)">
   <text id="text96" style="color:#ffffff" font-size="11px" y="16" x="5" font-weight="bold" fill="#ffffff">
    <tspan id="tspan98">Strategic Alignment (3.2%)</tspan>
   </text>
  </g>
  <g id="g100" transform="translate(179,4)">
   <text id="text102" style="color:#ffffff" font-size="11px" y="16" x="5" font-weight="bold" fill="#ffffff">
    <tspan id="tspan104">Blogging (1.6%)</tspan>
   </text>
  </g>
 </g>
 <g id="g106" transform="translate(34.5 337.98)" class="highcharts-legend">
  <g id="g108"></g>
 </g>
 <g id="g112" style="white-space:nowrap" class="highcharts-tooltip" transform="translate(34.5 -9661)">
  <g stroke="#000" fill="none">
   <path id="path114" d="m1 0h14c1 0 1 0 1 1v14c0 1 0 1-1 1h-14c-1 0-1 0-1-1v-14c0-1 0-1 1-1" stroke-opacity=".05" transform="translate(1,1)" stroke-width="5"/>
   <path id="path116" d="m1 0h14c1 0 1 0 1 1v14c0 1 0 1-1 1h-14c-1 0-1 0-1-1v-14c0-1 0-1 1-1" stroke-opacity=".1" transform="translate(1,1)" stroke-width="3"/>
   <path id="path118" d="m1 0h14c1 0 1 0 1 1v14c0 1 0 1-1 1h-14c-1 0-1 0-1-1v-14c0-1 0-1 1-1" stroke-opacity=".15" transform="translate(1,1)"/>
  </g>
  <path id="path120" fill="url(#highcharts-17)" d="m1 0h14c1 0 1 0 1 1v14c0 1 0 1-1 1h-14c-1 0-1 0-1-1v-14c0-1 0-1 1-1"/>
  <text id="text122" style="color:#333333" font-size="12px" y="20" x="8" fill="#333333"/>
 </g>
</svg>
