<svg viewBox="0 0 30 30" xmlns="http://www.w3.org/2000/svg"><g fill="none" fill-rule="evenodd"><path d="m13.586 15l-12.722-12.722c-.396-.396-.397-1.03-.006-1.42.393-.393 1.026-.388 1.42.006l12.722 12.722 12.722-12.722c.396-.396 1.03-.397 1.42-.006.393.393.388 1.026-.006 1.42l-12.722 12.722 12.722 12.722c.396.396.397 1.03.006 1.42-.393.393-1.026.388-1.42-.006l-12.722-12.722-12.722 12.722c-.396.396-1.03.397-1.42.006-.393-.393-.388-1.026.006-1.42l12.722-12.722" stroke="#fff" fill="#fff"/></g></svg>