<svg viewBox="0 0 120 120" xmlns="http://www.w3.org/2000/svg"><g fill="#e3cdee" fill-rule="evenodd" transform="translate(29 1)" stroke="#a25cc6" stroke-width="2"><path d="m29.04 38.509c-.022 3.808-3.56 7.905-8.147 7.905v64.54c-.001 9.191-12.685 9.191-12.704 0v-64.54c-4.451 0-8.338-3.392-8.33-8.443v-35.567c-.008-3.087 4.529-3.206 4.559.12v26.28h3.771v-26.525c0-2.835 4.368-3.02 4.378.121v26.404h3.888v-26.465c.029-2.991 4.273-3.11 4.255.12v26.345h3.893v-26.465c-.014-2.96 4.419-3.08 4.438.12v36.05h-.001"/><path d="m61.835 111.29c.017 8.959-12.691 8.826-12.703 0 0 0 0-35.748 0-40.26 0-6.371-6.749-8.08-6.749-19.608v-22.17c0-21.427 6.259-29.23 11.94-29.23 3.991 0 7.52 3.402 7.512 10.528v100.73"/></g></svg>