<svg viewBox="0 0 120 120" xmlns="http://www.w3.org/2000/svg"><g fill="none" fill-rule="evenodd" stroke="#a25cc6" stroke-width="1.661"><rect x="11" y="34" width="98" height="75" rx="6.644"/><path d="m45.871 17.961c-1.586 0-2.871 1.286-2.871 2.868v13.174h33v-13.553c0-1.375-1.117-2.489-2.494-2.489h-27.635"/><path d="m41.64 11c-3.667 0-6.64 2.984-6.64 6.653v16.349c0 0 50 0 50 0v-16.349c0-3.674-2.978-6.653-6.64-6.653h-36.721"/><path d="m53.33 78.67h-16.67c-.918 0-1.664-.744-1.664-1.662v-10.01c0-.926.745-1.662 1.664-1.662h16.67v-16.67c0-.918.744-1.664 1.662-1.664h10.01c.926 0 1.662.745 1.662 1.664v16.67h16.67c.918 0 1.664.744 1.664 1.662v10.01c0 .926-.745 1.662-1.664 1.662h-16.67v16.67c0 .918-.744 1.664-1.662 1.664h-10.01c-.926 0-1.662-.745-1.662-1.664v-16.67" fill="#e3cdee"/></g></svg>