<svg viewBox="0 0 31 32" xmlns="http://www.w3.org/2000/svg"><g fill="#fff" fill-rule="evenodd" transform="translate(0 2)"><path d="m10.742 9.886h5.964v2.732h.085c.83-1.572 2.858-3.23 5.882-3.23 6.29 0 7.452 4.141 7.452 9.529v10.971h-6.209v-9.726c0-2.321-.046-5.304-3.231-5.304-3.235 0-3.728 2.527-3.728 5.136v9.894h-6.214v-20"/><path d="m3.603 0c1.987 0 3.603 1.615 3.603 3.603 0 1.99-1.615 3.606-3.603 3.606-1.993 0-3.603-1.615-3.603-3.606 0-1.988 1.611-3.603 3.603-3.603m-3.11 9.943h6.219v20h-6.219v-20"/></g></svg>