<svg viewBox="0 0 80 48" xmlns="http://www.w3.org/2000/svg"><g fill="none" fill-rule="evenodd"><path d="m57.682 8.463c-.82-2.081-2.629-3.869-6.04-3.859h-6.245v-2.885c-.013-1.147-.655-1.729-1.703-1.719h-3.674-3.606c-1.059-.01-1.702.573-1.703 1.719v2.885h-6.345c-3.399-.01-5.208 1.778-6.04 3.859l-4.442 11.03c-1.749.204-4.86 2.188-4.876 5.935v14.01h4.341v4.475c-.011 5.489 8.092 5.425 8.08 0v-4.475h14.593 14.56v4.475c.01 5.425 8.113 5.489 8.116 0v-4.475h4.308v-14.01c.003-3.748-3.111-5.731-4.876-5.935l-4.441-11.03m-36.32 22.254c-2.035-.001-3.68-1.652-3.671-3.678-.01-2.052 1.636-3.704 3.671-3.711 2.02.007 3.667 1.66 3.671 3.711-.004 2.026-1.648 3.677-3.671 3.678m18.16-11.583h-.033-17.17l3.277-8.487c.402-1.205 1.017-2.079 2.459-2.097h11.439.033 11.472c1.426.019 2.041.892 2.459 2.097l3.278 8.487h-17.209m18.16 11.583c-2.039-.001-3.685-1.652-3.672-3.678-.013-2.052 1.632-3.704 3.672-3.711 2.02.007 3.662 1.66 3.672 3.711-.01 2.026-1.654 3.677-3.672 3.678" fill="#000"/></g></svg>