<svg viewBox="0 0 80 48" xmlns="http://www.w3.org/2000/svg"><g fill-rule="evenodd" transform="translate(27)"><path d="m14.511 3.694c0-2.072-1.615-3.694-3.677-3.694-2.063 0-3.677 1.622-3.677 3.694 0 2.072 1.614 3.695 3.677 3.695 2.061 0 3.677-1.623 3.677-3.695"/><path d="m26.2 13.838c0 0-4.386-2.475-6.328-3.5-1.944-1.028-5.802-3.683-9.243-.61-1.562 1.396-3.363 8.534-3.363 8.534l-7.269 4.505 1.194 1.672 7.919-2.893 2.213-2.878 2.343 5.189-4.73 8.328-3.732 13.997 3.862 1.309 4.339-13.08 3.211-3.184 7.03 16.701 3.385-1.57-5.685-20.319c0 0 .709-1.46.709-3.785 0-2.666-2.097-7.03-2.097-7.03l3.433.792.768 8.681 2.161.204-.121-11.06"/></g></svg>