<svg viewBox="0 0 20 16" xmlns="http://www.w3.org/2000/svg"><g fill="none" fill-rule="evenodd"><path d="m1 14.93l8.93-13.93 8.93 13.93h-17.86" stroke="#f7941e" stroke-width="2" stroke-linejoin="round" fill="#f7941e"/><path d="m10.728 11.46h-1.429l-.299-5.639h2.026l-.299 5.639m-1.728 1.974c0-.323.087-.568.261-.733.174-.165.427-.248.758-.248.32 0 .568.085.744.254.176.169.263.412.263.727 0 .304-.089.544-.266.719-.178.175-.425.263-.741.263-.324 0-.575-.086-.753-.257-.178-.171-.266-.413-.266-.724" fill="#fff"/></g></svg>