<svg viewBox="0 0 80 48" xmlns="http://www.w3.org/2000/svg"><g fill="none" fill-rule="evenodd" transform="translate(16)"><path d="m-.251 23.914c0-13.265 10.755-24.02 24.02-24.02 13.265 0 24.02 10.754 24.02 24.02 0 13.264-10.753 24.02-24.02 24.02-13.265 0-24.02-10.755-24.02-24.02" fill="#59ad40"/><path d="m46.642 32.663c.126-.34.246-.684.358-1.031h-20.13l.985-1.26h13.947c.291 0 .526-.228.526-.506 0-.28-.235-.506-.526-.506h-13.156l.966-1.235h7.095c.238 0 .432-.231.432-.516 0-.286-.194-.518-.432-.518h-18.828l11.539-15.04h-18.99v4.106h10.112l-10.592 13.736-2.18 2.76c0 0 6.54.006 6.599.006h1.806c.714-1.762 2.441-3 4.457-3 2.02 0 3.745 1.243 4.459 3h21.555" fill="#fff"/><path d="m24.336 34.521c0 2.048-1.66 3.708-3.709 3.708-2.046 0-3.707-1.66-3.707-3.708 0-2.047 1.66-3.707 3.707-3.707 2.048 0 3.709 1.66 3.709 3.707" fill="#5b5c5e"/></g></svg>