<svg viewBox="0 0 80 48" xmlns="http://www.w3.org/2000/svg"><g fill-rule="evenodd" transform="translate(24)"><path d="m13.842 3.371c-.937-.003-1.701-.759-1.703-1.685.002-.939.766-1.696 1.703-1.686.946-.01 1.71.746 1.702 1.686.007.926-.756 1.682-1.702 1.685"/><path d="m18.382 3.371c.939-.003 1.703-.759 1.703-1.685 0-.939-.764-1.695-1.703-1.686-.945-.01-1.709.746-1.703 1.686-.006.926.757 1.682 1.703 1.685"/><path d="m25.14 37.471c2.362-.388 4.718-2.831 4.712-5.812v-21.765c.006-3.069-2.606-5.89-6.144-5.887h-7.574-7.6c-3.559-.003-6.171 2.818-6.168 5.887v21.765c-.003 2.981 2.352 5.424 4.712 5.812l-7.081 10.529h4.095l5.058-7.378h6.959 6.958l5.082 7.378h4.071l-7.081-10.529m-13.03-31.22c.001-.545.47-.995 1.01-1h2.986 2.986c.542.008 1.012.457 1.012 1v1.708c0 .544-.444 1-1.012 1h-2.986-2.986c-.566.002-1.01-.458-1.01-1v-1.708m-3.727 28.04c-1.483-.011-2.692-1.208-2.689-2.687-.003-1.474 1.206-2.67 2.689-2.663 1.498-.008 2.707 1.188 2.714 2.663-.006 1.479-1.216 2.676-2.714 2.687m.346-14.14c-1.701-.01-3.088-1.162-3.085-3.054v-3.908c.012-1.63 1.076-3.051 3.085-3.054h7.377 7.377c2.01.003 3.075 1.424 3.085 3.054v3.908c.005 1.892-1.382 3.045-3.085 3.054h-7.377-7.377m12.337 11.456c-.004-1.474 1.203-2.67 2.688-2.663 1.498-.008 2.707 1.188 2.715 2.663-.008 1.479-1.217 2.676-2.715 2.687-1.485-.012-2.693-1.208-2.688-2.687"/></g></svg>