<svg viewBox="0 0 16 13" xmlns="http://www.w3.org/2000/svg"><g fill="#a25cc6" fill-rule="evenodd"><path d="m10.907 10.544c-.882.602-1.913.904-2.967.89-.139-.002-.278-.008-.414-.02-.056-.005-.112-.014-.168-.021-.108-.014-.215-.028-.321-.048-.065-.012-.127-.028-.191-.043-.102-.023-.205-.047-.306-.076-.049-.014-.095-.031-.143-.047-.116-.037-.231-.076-.343-.122-.026-.01-.05-.022-.075-.033-.132-.056-.261-.115-.386-.181-.005-.003-.011-.006-.017-.009-.425-.227-.812-.511-1.153-.842-.006-.006-.011-.011-.017-.017-.106-.103-.206-.212-.302-.324-.021-.024-.039-.05-.06-.075-.693-.845-1.111-1.915-1.111-3.078h1.333l-2.133-3.12-2.133 3.12h1.333c0 1.368.437 2.635 1.18 3.683.01.015.015.031.026.045.077.107.162.206.245.308.031.038.06.077.092.115.122.144.251.279.383.411.012.012.024.026.037.038.446.435.949.802 1.498 1.095.015.008.029.017.044.024.158.083.32.158.485.228.041.017.081.036.122.054.141.057.285.107.431.154.069.023.137.047.207.067.127.037.258.068.389.098.087.02.174.041.262.058.036.007.071.018.108.024.124.021.247.033.371.048.045.005.089.012.133.017.223.022.445.035.666.035 1.355 0 2.677-.404 3.811-1.179.363-.248.451-.733.197-1.086-.254-.354-.753-.439-1.114-.191"/><path d="m14.667 6.498c-.001-1.363-.435-2.629-1.174-3.674-.011-.018-.018-.036-.03-.053-.092-.128-.192-.247-.292-.367-.012-.015-.022-.03-.035-.044-.676-.801-1.526-1.419-2.489-1.824-.027-.011-.053-.023-.079-.034-.154-.062-.311-.117-.47-.168-.057-.019-.113-.038-.171-.056-.138-.041-.278-.073-.419-.106-.078-.018-.156-.037-.235-.052-.038-.007-.076-.019-.114-.025-.106-.018-.211-.026-.317-.039-.073-.009-.145-.02-.218-.027-.177-.016-.353-.023-.529-.026-.033.001-.063-.004-.095-.004-.006 0-.011.002-.017.002-1.354.001-2.673.399-3.806 1.173-.362.247-.45.733-.197 1.086.253.353.752.439 1.114.191.875-.597 1.896-.9 2.943-.891.15.001.299.008.445.022.045.004.09.011.134.017.121.014.24.031.357.053.052.01.103.023.154.034.116.025.231.053.343.086.036.011.071.023.107.035.129.041.255.085.38.136.013.005.026.011.038.017.745.313 1.399.794 1.91 1.396.003.004.006.008.01.012.718.852 1.15 1.942 1.151 3.129h-1.334l2.134 3.12 2.133-3.12h-1.333"/></g></svg>