<?xml version="1.0" encoding="UTF-8" standalone="no"?>
<svg width="24px" height="30px" viewBox="0 0 24 30" version="1.1" xmlns="http://www.w3.org/2000/svg" xmlns:xlink="http://www.w3.org/1999/xlink" xmlns:sketch="http://www.bohemiancoding.com/sketch/ns">
    <!-- Generator: Sketch 3.1.1 (8761) - http://www.bohemiancoding.com/sketch -->
    <title>search</title>
    <desc>Created with Sketch.</desc>
    <defs></defs>
    <g id="Page-1" stroke="none" stroke-width="1" fill="none" fill-rule="evenodd" sketch:type="MSPage">
        <g id="search" sketch:type="MSArtboardGroup" fill="#D1D3D4">
            <path d="M20.031,16.615 C20.641,15.729 21,14.657 21,13.5 C21,10.462 18.537,8 15.5,8 C12.463,8 10,10.462 10,13.5 C10,16.538 12.463,19 15.5,19 C16.658,19 17.731,18.641 18.617,18.03 L22.586,22 L24,20.587 L20.031,16.615 L20.031,16.615 Z M11.5,13.5 C11.5,11.291 13.291,9.5 15.5,9.5 C17.709,9.5 19.5,11.291 19.5,13.5 C19.5,15.709 17.709,17.5 15.5,17.5 C13.291,17.5 11.5,15.709 11.5,13.5 L11.5,13.5 Z" id="Imported-Layers" sketch:type="MSShapeGroup"></path>
        </g>
    </g>
</svg>