<svg viewBox="0 0 24 24" xmlns="http://www.w3.org/2000/svg"><g fill="none" fill-rule="evenodd"><path d="m17 22h-10v-15h10v15m2 0h2.01c.548 0 .992-.449.992-1.01v-12.985c0-.556-.455-1.01-.992-1.01h-2.01v15m-14 0h-2.01c-.536 0-.992-.451-.992-1.01v-12.985c0-.559.444-1.01.992-1.01h2.01v15m3-17h-2c0 0 0-2.995 0-2.995 0-1.111.899-2 2.01-2h7.983c1.107 0 2.01.898 2.01 2 0 0 0 2.995 0 2.995h-10c0 0 0-2 0-2 0-.556.446-.999.997-.999h6.01c.544 0 .997.447.997.999v2c0 0-8 0-8 0m-5.995 0c-1.107 0-2 .891-2 1.997v15.01c0 1.103.897 1.997 2 1.997h19.99c1.107 0 2-.891 2-1.997v-15.01c0-1.103-.897-1.997-2-1.997h-19.99" fill="#9b9b9b"/></g></svg>