<svg width="16" xmlns="http://www.w3.org/2000/svg" height="16" viewBox="0 0 16 16" xmlns:xlink="http://www.w3.org/1999/xlink" enable-background="new 0 0 16 16">
<path fill="#f1f2f2" stroke="#808285" d="m9.954,8.274c.077,.033 .29,2.71 .29,2.71l-4.025,2.225h-5.719v-2.207c.052-.236 .129-.454 .23-.665 .09-.181 .207-.356 .355-.529 .149-.178 .342-.3 .578-.386 .121-.038 .281-.096 .473-.175 .197-.078 .416-.166 .658-.262 .242-.1 .496-.206 .761-.312 .265-.115 .531-.232 .797-.342 .263-.114 .514-.222 .748-.325 .236-.104 .443-.194 .623-.273v-.966c-.01-.047-.03-.115-.058-.206-.026-.095-.054-.19-.081-.287-.03-.11-.07-.234-.12-.365-.165-.303-.296-.649-.395-1.04-.098-.385-.148-.798-.148-1.233 0-.574 .062-1.057 .186-1.45 .124-.399 .291-.72 .504-.97 .213-.253 .46-.43 .743-.542 .286-.118 .595-.174 .92-.174 .322,0 .626,.056 .909,.166 .286,.112 .541,.292 .755,.538 .213,.246 .379,.568 .503,.963 .123,.398 .185,.888 .185,1.468 0,.422-.049,.826-.143,1.209-.093,.382-.222,.727-.386,1.033-.05,.138-.092,.273-.134,.396-.04,.108-.063,.215-.094,.308-.024,.1-.041,.175-.041,.217v.987c.184,.081 .395,.174 .63,.275 .161,.071 .327,.143 .496,.214" stroke-miterlimit="10"/>
<path fill="#fff" d="m9.328,9.219l.008-1.766 1.172-.672v2.165l-.008,.002 .008,4.896h-5.911c.637-2.156 2.435-3.895 4.731-4.625z"/>
<path fill="#d7f2e3" stroke="#00a651" stroke-linejoin="round" d="m10.709,12.927v2.573l4.791-3.537-4.791-3.879v2.272h-.001c-.219,.049-.429,.108-.643,.175-.524,.158-.993,.368-1.401,.629-.407,.262-.762,.536-1.062,.829-.706,.691-1.238,1.499-1.613,2.483 .384-.386 .797-.692 1.255-.912 .452-.221 .909-.353 1.39-.457 .475-.105 .953-.159 1.424-.17 .234-.005 .44-.009 .64-.008l.011,.002z" stroke-miterlimit="10"/>
</svg>
