<svg width="24" xmlns="http://www.w3.org/2000/svg" height="14" viewBox="0 0 24 14" xmlns:xlink="http://www.w3.org/1999/xlink" enable-background="new 0 0 24 14">
<path fill="#414042" d="m.294,6.293"/>
<path fill="#a25cc6" d="m3.411,7.997l4.297,4.295c.39,.392 .39,1.024 0,1.413-.391,.392-1.023,.393-1.414,0l-6-5.998h.001c-.391-.391-.392-1.023 0-1.414l5.999-6c.392-.39 1.024-.39 1.414,0 .391,.391 .392,1.023 0,1.414l-4.292,4.293c-0,0 19.584,0 19.584,0 .553,0 1,.448 1,1 0,.552-.447,1-1,1h-19.585l-.004-.003z"/>
</svg>
