<svg viewBox="0 0 80 48" xmlns="http://www.w3.org/2000/svg"><g fill-rule="evenodd" transform="translate(8 5)"><g transform="translate(0 15.2)"><path d="m11.32-.015c-6.252 0-11.32 5.072-11.32 11.331 0 6.257 5.068 11.33 11.32 11.33 6.252 0 11.32-5.073 11.32-11.33 0-6.258-5.068-11.331-11.32-11.331m0 19.261c-4.328 0-7.836-3.511-7.836-7.843 0-4.331 3.508-7.843 7.836-7.843 4.328 0 7.836 3.512 7.836 7.843-.001 4.332-3.509 7.843-7.836 7.843"/><path d="m52.681-.015c-6.252 0-11.32 5.073-11.32 11.331 0 6.257 5.068 11.33 11.32 11.33 6.251 0 11.32-5.073 11.32-11.33 0-6.258-5.068-11.331-11.32-11.331m0 19.261c-4.328 0-7.837-3.511-7.837-7.843 0-4.331 3.509-7.843 7.837-7.843 4.328 0 7.836 3.512 7.836 7.843 0 4.332-3.509 7.843-7.836 7.843"/></g><path d="m53.76 26.07c-1.245-2.345-5.297-10-5.297-10-1.293-2.415-2.583-4.834-3.874-7.249.359-.886.717-1.749 1.052-2.611l-3.085-.359c-.431 1-.839 1.987-1.241 2.969h-20.564c0 0 .384-1.269.455-1.534.119-.454.192-.621.192-1.1 0-1.075-.668-1.746-1.6-2.272-.024-.023-.049-.048-.049-.048-.099-.069-.169-.193-.169-.31 0-.192.194-.384.384-.384h.74 3.778v-3.02h-4.135-1.149c-1.648.026-2.987 1.389-2.987 3.039 0 1.22.741 2.32 1.866 2.8h.046c.143.073.215.191.215.359v.071.024c-.957 3.206-2.87 9.595-2.87 9.595l-.942 3.279c-.311 1-.622 2.01-.933 3.02-.431 1.291-1.506 2.273-2.797 3.159-.073.047-.118.094-.167.117-.286.216-.48.551-.48.935 0 .599.529 1.124 1.147 1.124.05 0 .167 0 .216-.02 2.153-.601 4.327-2.373 4.995-4.48.217-.666.408-1.336.6-1.984 0 0 1.324-4.499 1.445-4.883 4.302 2.967 8.605 5.913 12.884 8.855v.048c-.12.452-.19.883-.19 1.34 0 2.488 2.031 4.524 4.519 4.524.691 0 .834-.049 1.482-.264.31.597.618 1.196.934 1.769h1.24c-.383-.765-.764-1.53-1.125-2.297.937-.619 1.555-1.506 1.845-2.608h.024 12.54c.6 0 1.124-.524 1.124-1.123.002-.168-.024-.335-.069-.478m-34.43-12.442c.215-.719.43-1.438.621-2.156h20.32c-1.43 3.518-2.866 7.03-4.277 10.553h-.05-.189c-.457 0-.959.072-1.39.219-.047.021-.071.021-.097.021-.306-.598-.595-1.175-.882-1.748h-1.265c.381.767.763 1.532 1.124 2.273-.121.071-.215.142-.313.213-4.54-3.133-9.08-6.266-13.603-9.375m16.423 15.937c-1.652 0-3.01-1.369-3.01-3.02 0-1.675 1.36-3.02 3.01-3.02 1.651 0 3.01 1.34 3.01 3.02 0 1.649-1.359 3.02-3.01 3.02m4.377-4.165c-.239-.89-.647-1.559-1.317-2.205 0 0-.025-.024-.052-.043 1.485-3.71 2.989-7.443 4.497-11.177.932 1.794 2.847 5.384 2.847 5.384 0 0 1.625 2.992 1.6 3.02.911 1.699 1.791 3.373 2.678 5.05l-10.254-.021"/><g transform="translate(29.373 17.457)"><path d="m.427 3.085h6v-2.392h-2.096l-.027-.038c-.29-.374-.704-.57-1.113-.57-.418 0-.795.195-1.083.57l-.03.038h-1.652v2.392"/><path d="m6.327 15.04v2.424h2.089c.318.384.703.576 1.145.576.413 0 .824-.231 1.112-.612h1.654v-2.388h-6"/></g><path d="m45.641 6.209c1.651 0 2.99-1.363 2.99-3.01v-.024h-10.544c-.386 0-.741.359-.741.768 0 .333.213.622.549.717 1.471.385 2.946.77 4.416 1.134.081.02 3.248.399 3.33.419" stroke="#000" stroke-width=".8"/></g></svg>