<svg width="28" xmlns="http://www.w3.org/2000/svg" height="24" viewBox="0 0 28 24" xmlns:xlink="http://www.w3.org/1999/xlink" enable-background="new 0 0 28 24">
<path fill="#d1d3d4" d="M14,1c7.168,0,13,4.204,13,9.372s-5.832,9.372-13,9.372c-1.139,0-2.265-0.105-3.349-0.316l-0.283-0.055  L10.1,19.477L3.072,22.2l1.824-4.185l0.314-0.722L4.585,16.82C2.273,15.062,1,12.773,1,10.372C1,5.204,6.832,1,14,1 M14,0  C6.271,0,0,4.645,0,10.372c0,2.819,1.52,5.375,3.98,7.245L1.197,24l9.264-3.591c1.133,0.22,2.321,0.335,3.539,0.335  c7.729,0,14-4.645,14-10.372C28,4.645,21.729,0,14,0L14,0z"/>
</svg>
