<svg viewBox="0 0 24 24" xmlns="http://www.w3.org/2000/svg"><g fill="none" fill-rule="evenodd" transform="matrix(-1 0 0 1 24 0)"><path d="m1.5 13.6h12v-12c-3.197 0-12 0-12 12" fill-opacity=".3" fill="#50cde3"/><path d="m2.049 13.5c0 0-.549 1.943-.549 2.983h12c0 0-11.451-2.983-11.451-2.983" fill="#2bb673" transform="matrix(1 0 0-1 0 29.983)"/><path d="m12 2c5.514 0 10 4.486 10 10 0 5.514-4.486 10-10 10-5.514 0-10-4.486-10-10 0-5.514 4.486-10 10-10m0-2c-6.626 0-12 5.374-12 12 0 6.626 5.374 12 12 12 6.626 0 12-5.374 12-12 0-6.626-5.374-12-12-12" fill="#9b9b9b"/><path d="m6.5 12.6h6v-8" stroke="#000" stroke-width="2"/></g></svg>