<svg width="20" xmlns="http://www.w3.org/2000/svg" height="20" viewBox="0 0 20 20" xmlns:xlink="http://www.w3.org/1999/xlink" enable-background="new 0 0 20 20">
<g fill="none" stroke="#e6e7e8" stroke-miterlimit="10">
<path d="m0,16.429h20"/>
<path d="m0,13.214h20"/>
<path d="m0,10h20"/>
<path d="M10,6.786V20"/>
<path d="M6.786,6.786V20"/>
<path d="M3.571,6.786V20"/>
<path d="M16.429,6.786V20"/>
<path d="M13.214,6.786V20"/>
</g>
<path fill="#d1d3d4" d="M17.856,1.071c0.592,0,1.072,0.481,1.072,1.071v15.715c0,0.591-0.48,1.071-1.072,1.071H2.143  c-0.591,0-1.072-0.48-1.072-1.071V2.143c0-0.59,0.481-1.071,1.072-1.071H17.856 M17.856,0H2.143C0.959,0,0,0.959,0,2.143v15.715  C0,19.042,0.959,20,2.143,20h15.713C19.042,20,20,19.042,20,17.857V2.143C20,0.959,19.042,0,17.856,0z"/>
<path fill="#d9534f" d="M20,6.786H0V2.143C0,0.959,0.959,0,2.143,0h15.713C19.042,0,20,0.959,20,2.143V6.786z"/>
</svg>
