<svg width="28" xmlns="http://www.w3.org/2000/svg" height="28" viewBox="0 0 28 28" xmlns:xlink="http://www.w3.org/1999/xlink" enable-background="new 0 0 28 28">
<g fill="none" stroke="#d1d3d4" stroke-miterlimit="10">
<path d="m0,23 28,0"/>
<path d="m0,18.5 28,0"/>
<path d="m0,14 28,0"/>
<path d="m14,9.5 0,18.5"/>
<path d="m9.5,9.5 0,18.5"/>
<path d="M 5,9.5 5,28"/>
<path d="m23,9.5 0,18.5"/>
<path d="m18.5,9.5 0,18.5"/>
</g>
<path fill="#a7a9ac" d="m25,1c1.103,0 2,.897 2,2v22c0,1.103-.897,2-2,2h-22c-1.103,0-2-.897-2-2v-22c0-1.103 .897-2 2-2h22m0-1h-22c-1.657,0-3,1.343-3,3v22c0,1.657 1.343,3 3,3h22c1.657,0 3-1.343 3-3v-22c0-1.657-1.343-3-3-3z"/>
<path fill="#808285" d="M28,9.5H0V3c0-1.657,1.343-3,3-3h22c1.657,0,3,1.343,3,3V9.5z"/>
</svg>
