<svg width="28" xmlns="http://www.w3.org/2000/svg" height="28" viewBox="0 0 28 28" xmlns:xlink="http://www.w3.org/1999/xlink" enable-background="new 0 0 28 28">
<g fill="none" stroke="#d1d3d4" stroke-miterlimit="10">
<path d="m0,23h28"/>
<path d="m0,18.5h28"/>
<path d="m0,14h28"/>
<path d="M14,9.5V28"/>
<path d="M9.5,9.5V28"/>
<path d="M5,9.5V28"/>
<path d="M23,9.5V28"/>
<path d="M18.5,9.5V28"/>
</g>
<path fill="#a7a9ac" d="m25,1.5c.827,0 1.5,.673 1.5,1.5v22c0,.827-.673,1.5-1.5,1.5h-22c-.827,0-1.5-.673-1.5-1.5v-22c0-.827 .673-1.5 1.5-1.5h22m0-1.5h-22c-1.657,0-3,1.343-3,3v22c0,1.657 1.343,3 3,3h22c1.657,0 3-1.343 3-3v-22c0-1.657-1.343-3-3-3z"/>
<path fill="#808285" d="M28,9.5H0V3c0-1.657,1.343-3,3-3h22c1.657,0,3,1.343,3,3V9.5z"/>
</svg>
