<svg viewBox="0 0 20 20" xmlns="http://www.w3.org/2000/svg"><g fill-rule="evenodd"><path d="m15.625 1.875v-1.25c0-.346-.28-.625-.625-.625-.345 0-.625.28-.625.625v1.25h-3.75v-1.25c0-.346-.281-.625-.625-.625-.345 0-.625.28-.625.625v1.25h-3.75v-1.25c0-.346-.281-.625-.625-.625-.345 0-.625.28-.625.625v1.25h-2.708c-.921 0-1.667.745-1.667 1.666v14.792c0 .921.746 1.667 1.667 1.667h16.665c.92 0 1.666-.746 1.666-1.667v-14.792c0-.921-.746-1.666-1.666-1.666h-2.707m3.123 16.458c0 .231-.187.417-.416.417h-16.665c-.23 0-.417-.186-.417-.417v-14.792c0-.229.187-.416.417-.416h2.708v1.25c0 .346.281.625.625.625.345 0 .625-.279.625-.625v-1.25h3.75v1.25c0 .346.281.625.625.625.345 0 .625-.279.625-.625v-1.25h3.75v1.25c0 .346.28.625.625.625.345 0 .625-.279.625-.625v-1.25h2.709c.23 0 .416.187.416.416v14.792"/><path d="m4.2 7.5h2.5v1.875h-2.5v-1.875"/><path d="m4.2 10.7h2.5v1.875h-2.5v-1.875"/><path d="m4.2 13.8h2.5v1.875h-2.5v-1.875"/><path d="m8.75 13.8h2.5v1.875h-2.5v-1.875"/><path d="m8.75 10.7h2.5v1.875h-2.5v-1.875"/><path d="m8.75 7.5h2.5v1.875h-2.5v-1.875"/><path d="m13.375 13.8h2.5v1.875h-2.5v-1.875"/><path d="m13.375 10.7h2.5v1.875h-2.5v-1.875"/><path d="m13.375 7.5h2.5v1.875h-2.5v-1.875"/></g></svg>