<?xml version="1.0" encoding="utf-8"?>
<!-- Generator: Adobe Illustrator 16.0.4, SVG Export Plug-In . SVG Version: 6.00 Build 0)  -->
<!DOCTYPE svg PUBLIC "-//W3C//DTD SVG 1.1//EN" "http://www.w3.org/Graphics/SVG/1.1/DTD/svg11.dtd">
<svg version="1.1" id="Layer_1" xmlns="http://www.w3.org/2000/svg" xmlns:xlink="http://www.w3.org/1999/xlink" x="0px" y="0px"
	 width="16px" height="16px" viewBox="0 0 16 16" enable-background="new 0 0 16 16" xml:space="preserve">
<g>
	<g>
		<path fill="#F9E5E5" d="M8,15.25c-3.998,0-7.25-3.252-7.25-7.25c0-3.998,3.252-7.25,7.25-7.25c3.998,0,7.25,3.252,7.25,7.25
			C15.25,11.998,11.998,15.25,8,15.25z"/>
		<path fill="#D9534F" d="M8,1.5c3.584,0,6.5,2.916,6.5,6.5s-2.916,6.5-6.5,6.5S1.5,11.584,1.5,8S4.416,1.5,8,1.5 M8,0
			C3.588,0,0,3.588,0,8c0,4.411,3.588,8,8,8c4.411,0,8-3.589,8-8C16,3.588,12.411,0,8,0L8,0z"/>
	</g>
	<path fill="none" stroke="#D9534F" stroke-width="1.5" stroke-linejoin="round" stroke-miterlimit="10" d="M13.301,13.301
		L2.699,2.699"/>
</g>
</svg>
