<svg xmlns="http://www.w3.org/2000/svg"
     xmlns:xlink="http://www.w3.org/1999/xlink"
     width="24"
     height="24"
     viewBox="0 0 24 24"
     enable-background="new 0 0 24 24">
  <path class="check-background"
        fill="#fff"
        d="M4,23c-1.654,0-3-1.346-3-3V4c0-1.654,1.346-3,3-3h16c1.654,0,3,1.346,3,3v16c0,1.654-1.346,3-3,3H4z"/>
  <path class="check-outline"
        fill="#d1d3d4"
        d="m20,2c1.103,0 2,.897 2,2v16c0,1.103-.897,2-2,2h-16c-1.103,0-2-.897-2-2v-16c0-1.103 .897-2 2-2h16m0-2h-16c-2.209,0-4,1.791-4,4v16c0,2.209 1.791,4 4,4h16c2.209,0 4-1.791 4-4v-16c0-2.209-1.791-4-4-4z"/>
  <path class="check"
        fill="#fff"
        d="m9.767,14.938l8.704-8.705c.312-.311 .819-.311 1.133,.001l.563,.563c.312,.314 .312,.819 0,1.132l-9.833,9.836c-.312,.312-.819,.312-1.13,0l-5.369-5.368c-.312-.312-.312-.819 0-1.131l.565-.565c.312-.312 .82-.312 1.131,0-0,0 4.237,4.237 4.236,4.237z"/>
</svg>
