<svg xmlns="http://www.w3.org/2000/svg"
	 xmlns:xlink="http://www.w3.org/1999/xlink"
	 width="24"
	 height="24"
	 viewBox="0 0 24 24"
	 enable-background="new 0 0 24 24">
  <path class="checkbox"
	    fill="#fff"
	    stroke="#d1d3d4"
	    stroke-width="2"
	    d="m23,21c0,1.104-.896,2-2,2h-18c-1.104,0-2-.896-2-2v-18c0-1.104 .896-2 2-2h18c1.104,0 2,.896 2,2v18z"
	    stroke-miterlimit="10"/>
  <path class="check"
  	    fill="#fff"
  	    d="m9.767,14.938l8.704-8.705c.312-.311 .819-.311 1.133,.001l.563,.563c.312,.314 .312,.819 0,1.132l-9.833,9.836c-.312,.312-.819,.312-1.13,0l-5.369-5.37c-.312-.312-.312-.819 0-1.131l.565-.563c.312-.312 .82-.312 1.131,0-0,0 4.237,4.237 4.236,4.237z"/>
</svg>
