<svg xmlns="http://www.w3.org/2000/svg"
	 xmlns:xlink="http://www.w3.org/1999/xlink"
	 width="18"
	 height="18"
	 viewBox="0 0 18 18"
	 enable-background="new 0 0 18 18">
<path class="checkbox"
	  fill="#fff"
	  d="m3.062,17.5c-1.378,0-2.5-1.121-2.5-2.5v-12c0-1.378 1.122-2.5 2.5-2.5h12c1.379,0 2.5,1.122 2.5,2.5v12c0,1.379-1.121,2.5-2.5,2.5h-12z"/>
<path class="check"
	  fill="#fff"
	  d="m7.33,10.438l5.703-5.704c.312-.311 .818-.311 1.133,.001l.562,.563c.312,.314 .312,.819 0,1.132l-6.833,6.835c-.312,.312-.817,.312-1.13,0l-3.369-3.369c-.312-.312-.312-.817 0-1.129l.565-.564c.312-.312 .82-.312 1.131,0 0-.001 2.238,2.235 2.238,2.235z"/>
<path class="outline"
	  fill="#d1d3d4"
	  d="m15.062,1c1.103,0 2,.897 2,2v12c0,1.103-.897,2-2,2h-12c-1.103,0-2-.897-2-2v-12c0-1.103 .897-2 2-2h12m0-1h-12c-1.656,0-3,1.343-3,3v12c0,1.657 1.344,3 3,3h12c1.656,0 3-1.343 3-3v-12c0-1.657-1.343-3-3-3z"/>
</svg>
