<svg xmlns="http://www.w3.org/2000/svg"
	 xmlns:xlink="http://www.w3.org/1999/xlink"width="24"
	 height="24"
	 viewBox="0 0 24 24"
	 enable-background="new 0 0 24 24">
<path class="checkbox"
	  fill="#fff"
	  d="M3,23.5c-1.378,0-2.5-1.121-2.5-2.5V3c0-1.378,1.122-2.5,2.5-2.5h18c1.379,0,2.5,1.122,2.5,2.5v18   c0,1.379-1.121,2.5-2.5,2.5H3z"/>
<path class="check"
	  fill="#fff"
	  d="m9.767,14.938l8.704-8.705c.312-.311 .819-.311 1.133,.001l.563,.563c.312,.314 .312,.819 0,1.132l-9.833,9.836c-.312,.312-.819,.312-1.13,0l-5.369-5.372c-.312-.312-.312-.819 0-1.131l.565-.561c.312-.312 .82-.312 1.131,0-0,0 4.237,4.237 4.236,4.237z"/>
<path class="outline"
	  fill="#d1d3d4"
	  d="m21,1c1.103,0 2,.897 2,2v18c0,1.103-.897,2-2,2h-18c-1.103,0-2-.897-2-2v-18c0-1.103 .897-2 2-2h18m0-1h-18c-1.657,0-3,1.343-3,3v18c0,1.657 1.343,3 3,3h18c1.657,0 3-1.343 3-3v-18c0-1.657-1.343-3-3-3z"/>
</svg>
