<svg width="18"
	 xmlns="http://www.w3.org/2000/svg"
	 height="18"
	 viewBox="0 0 18 18"
	 xmlns:xlink="http://www.w3.org/1999/xlink"
	 enable-background="new 0 0 18 18">
<path class="checkbox"
	  fill="#fff"
	  stroke="#d1d3d4"
	  d="m17.5,15.5c0,1.104-.895,2-2,2h-13c-1.104,0-2-.896-2-2v-13c0-1.104 .896-2 2-2h13c1.105,0 2,.896 2,2v13z"
	  stroke-miterlimit="10"/>
<path class="check"
	  fill="#fff"
	  d="m7.33,10.438l5.703-5.704c.312-.311 .818-.311 1.133,.001l.562,.563c.312,.314 .312,.819 0,1.132l-6.833,6.835c-.312,.312-.817,.312-1.13,0l-3.369-3.369c-.312-.312-.312-.817 0-1.129l.565-.564c.312-.312 .82-.312 1.131,0 0-.001 2.238,2.235 2.238,2.235z"/>
</svg>
