<svg class="esper-checkbox" width="24" xmlns="http://www.w3.org/2000/svg" height="24" viewBox="0 0 24 24" xmlns:xlink="http://www.w3.org/1999/xlink" enable-background="new 0 0 24 24">
<path class="check-background" fill="#ffffff" d="m2,23c-.551,0-1-.449-1-1v-20c0-.551 .449-1 1-1h20.001c.551,0 1,.449 1,1v20c0,.551-.449,1-1,1h-20.001z"/>
<path class="check-outline" fill="#d1d3d4" d="m22.001,2v20h-20.001v-20h20.001m0-2h-20.001c-1.104,0-2,.896-2,2v20c0,1.104 .896,2 2,2h20.001c1.104,0 2-.896 2-2v-20c0-1.104-.897-2-2-2z"/>
<path class="check" fill="#ffffff" d="m9.767,14.937l8.704-8.704c.311-.311 .819-.311 1.132,.001l.564,.563c.312,.314 .312,.819 0,1.132l-9.833,9.837c-.312,.311-.819,.311-1.13,0l-5.369-5.368c-.312-.312-.312-.819 0-1.131l.565-.566c.312-.312 .82-.312 1.131,0-0,0 4.237,4.236 4.236,4.236z"/>
</svg>
