<?xml version="1.0" encoding="UTF-8" standalone="no"?>
<svg width="92px" height="56px" viewBox="0 0 92 56" version="1.1" xmlns="http://www.w3.org/2000/svg" xmlns:xlink="http://www.w3.org/1999/xlink" xmlns:sketch="http://www.bohemiancoding.com/sketch/ns">
    <!-- Generator: Sketch 3.0.4 (8053) - http://www.bohemiancoding.com/sketch -->
    <title>chrome</title>
    <desc>Created with Sketch.</desc>
    <defs></defs>
    <g id="Page-1" stroke="none" stroke-width="1" fill="none" fill-rule="evenodd" sketch:type="MSPage">
        <g id="chrome" sketch:type="MSArtboardGroup">
            <path d="M90.563,56 C91.278,52.779 91.666,49.436 91.666,46 C91.666,20.595 71.072,0 45.667,0 C20.261,0 -0.333,20.595 -0.333,46 C-0.333,49.436 0.055,52.779 0.769,56 L90.563,56" id="Fill-1" fill="#E14C40" sketch:type="MSShapeGroup"></path>
            <path d="M62.969,56 C64.674,53.056 65.667,49.647 65.667,46 C65.667,34.954 56.712,26 45.667,26 C34.621,26 25.666,34.954 25.666,46 C25.666,49.647 26.659,53.056 28.364,56 L62.969,56" id="Fill-2" fill="#FFFFFF" sketch:type="MSShapeGroup"></path>
            <path d="M87.086,26.001 L45.686,26.001 C56.723,26.012 65.667,34.961 65.667,46 C65.667,49.647 64.674,53.056 62.969,56 L90.563,56 C91.278,52.779 91.666,49.436 91.666,46 C91.666,38.829 90.015,32.049 87.086,26.001" id="Fill-3" fill="#FFD24D" sketch:type="MSShapeGroup"></path>
            <path d="M28.331,56 L7.465,20.398 C2.546,27.717 -0.333,36.519 -0.333,46 C-0.333,49.436 0.055,52.779 0.769,56 L28.331,56" id="Fill-4" fill="#0DAA61" sketch:type="MSShapeGroup"></path>
            <path d="M58.146,56 C60.344,53.26 61.666,49.786 61.666,46 C61.666,37.163 54.503,30 45.667,30 C36.83,30 29.667,37.163 29.667,46 C29.667,49.786 30.989,53.26 33.187,56 L58.146,56" id="Fill-5" fill="#4388FD" sketch:type="MSShapeGroup"></path>
        </g>
    </g>
</svg>