<svg viewBox="0 0 92 56" xmlns="http://www.w3.org/2000/svg"><g fill="none" fill-rule="evenodd"><path d="m90.86 56c.715-3.221 1.103-6.564 1.103-10 0-25.405-20.594-46-45.999-46-25.406 0-46 20.595-46 46 0 3.436.388 6.779 1.102 10h89.79" fill="#e14c40"/><path d="m63.27 56c1.705-2.944 2.698-6.353 2.698-10 0-11.05-8.955-20-20-20-11.05 0-20 8.954-20 20 0 3.647.993 7.06 2.698 10h34.605" fill="#fff"/><path d="m87.39 26h-41.4c11.04.011 19.981 8.96 19.981 19.999 0 3.647-.993 7.06-2.698 10h27.594c.715-3.221 1.103-6.564 1.103-10 0-7.171-1.651-13.951-4.58-19.999" fill="#ffd24d"/><path d="m28.631 56l-20.866-35.602c-4.919 7.319-7.798 16.12-7.798 25.602 0 3.436.388 6.779 1.102 10h27.562" fill="#0daa61"/><path d="m58.45 56c2.198-2.74 3.52-6.214 3.52-10 0-8.837-7.163-16-15.999-16-8.837 0-16 7.163-16 16 0 3.786 1.322 7.26 3.52 10h24.959" fill="#4388fd"/></g></svg>