<svg viewBox="0 0 108 100" xmlns="http://www.w3.org/2000/svg"><g fill="none" fill-rule="evenodd"><path d="m108 94c0 3.315-2.687 6-6 6h-96c-3.313 0-6-2.685-6-6v-36h108v36" fill="#eeefef"/><path d="m78 8.08l-8.06-8.08v16.17h-31.875v-16.17l-8.06 8.08v8.08h-30v41.834h108v-41.834h-30v-8.08" fill="#e5e6e7"/><path d="m38.06.04h31.875v7.944h-31.875v-7.944" fill="#acadad"/><path d="m71.3 100c1.705-2.944 2.697-6.353 2.697-10 0-11.05-8.954-20-20-20-11.05 0-20 8.954-20 20 0 3.647.992 7.06 2.697 10h34.606" fill="#fff"/><path d="m36.665 100h.032c-1.705-2.944-2.697-6.353-2.697-10 0-11.05 8.954-20 20-20 .006 0 .013.001.02.001h41.41c-2.15-4.447-4.999-8.492-8.398-12h-66.07c-1.909 1.97-3.638 4.114-5.173 6.398l20.867 35.602" fill="#e14c40"/><path d="m87.03 57.998c-8.361-8.627-20.06-13.998-33.03-13.998-12.963 0-24.666 5.371-33.03 13.998h66.05" fill="#d6473d"/><path d="m95.42 70h-41.4c11.04.011 19.98 8.96 19.98 19.999 0 3.647-.992 7.06-2.697 10h27.594c.714-3.221 1.103-6.564 1.103-10 0-7.171-1.651-13.951-4.581-19.999" fill="#ffd24d"/><path d="m36.665 100l-20.867-35.602c-4.919 7.319-7.798 16.12-7.798 25.602 0 3.436.389 6.779 1.103 10h27.562" fill="#0daa61"/><path d="m66.48 100c2.198-2.74 3.52-6.214 3.52-10 0-8.837-7.163-16-16-16-8.837 0-16 7.163-16 16 0 3.786 1.322 7.26 3.521 10h24.959" fill="#4388fd"/></g></svg>