<?xml version="1.0" encoding="UTF-8" standalone="no"?>
<svg width="92px" height="56px" viewBox="0 0 92 56" version="1.1" xmlns="http://www.w3.org/2000/svg" xmlns:xlink="http://www.w3.org/1999/xlink" xmlns:sketch="http://www.bohemiancoding.com/sketch/ns">
    <!-- Generator: Sketch 3.0.4 (8053) - http://www.bohemiancoding.com/sketch -->
    <title>chrome</title>
    <desc>Created with Sketch.</desc>
    <defs></defs>
    <g id="Page-1" stroke="none" stroke-width="1" fill="none" fill-rule="evenodd" sketch:type="MSPage">
        <g id="chrome" sketch:type="MSArtboardGroup">
            <path d="M90.863,56 C91.578,52.779 91.966,49.436 91.966,46 C91.966,20.595 71.372,0 45.967,0 C20.561,0 -0.0329999881,20.595 -0.0329999881,46 C-0.0329999881,49.436 0.355000012,52.779 1.06900001,56 L90.863,56" id="Fill-1" fill="#E14C40" sketch:type="MSShapeGroup"></path>
            <path d="M63.269,56 C64.974,53.056 65.967,49.647 65.967,46 C65.967,34.954 57.012,26 45.967,26 C34.921,26 25.966,34.954 25.966,46 C25.966,49.647 26.959,53.056 28.664,56 L63.269,56" id="Fill-2" fill="#FFFFFF" sketch:type="MSShapeGroup"></path>
            <path d="M87.386,26.001 L45.986,26.001 C57.023,26.012 65.967,34.961 65.967,46 C65.967,49.647 64.974,53.056 63.269,56 L90.863,56 C91.578,52.779 91.966,49.436 91.966,46 C91.966,38.829 90.315,32.049 87.386,26.001" id="Fill-3" fill="#FFD24D" sketch:type="MSShapeGroup"></path>
            <path d="M28.631,56 L7.76500001,20.398 C2.84600001,27.717 -0.0329999881,36.519 -0.0329999881,46 C-0.0329999881,49.436 0.355000012,52.779 1.06900001,56 L28.631,56" id="Fill-4" fill="#0DAA61" sketch:type="MSShapeGroup"></path>
            <path d="M58.446,56 C60.644,53.26 61.966,49.786 61.966,46 C61.966,37.163 54.803,30 45.967,30 C37.13,30 29.967,37.163 29.967,46 C29.967,49.786 31.289,53.26 33.487,56 L58.446,56" id="Fill-5" fill="#4388FD" sketch:type="MSShapeGroup"></path>
        </g>
    </g>
</svg>