<svg viewBox="0 0 22 22" xmlns="http://www.w3.org/2000/svg"><g fill="none" fill-rule="evenodd"><path d="m20.694 9.383h-.97c-.441 0-.912-.345-1.046-.77l-.56-1.354c-.207-.391-.123-.967.193-1.284l.687-.686c.315-.315.315-.829 0-1.143l-1.146-1.142c-.308-.313-.825-.313-1.141 0l-.685.688c-.315.315-.896.4-1.286.192l-1.348-.56c-.423-.131-.774-.602-.774-1.048v-.968c0-.443-.365-.808-.808-.808h-1.618c-.442 0-.808.365-.808.808v.968c0 .446-.345.917-.772 1.048l-1.347.557c-.396.209-.971.126-1.286-.19l-.689-.687c-.315-.313-.829-.313-1.14 0l-1.144 1.142c-.314.314-.314.828 0 1.143l.685.686c.315.315.404.893.192 1.284l-.554 1.354c-.135.426-.606.772-1.049.772l-.972-.002c-.441 0-.808.364-.808.809v1.616c0 .443.367.807.808.807h.972c.443 0 .914.351 1.047.77l.557 1.353c.207.395.124.971-.192 1.285l-.688.688c-.31.315-.31.829 0 1.142l1.148 1.142c.313.314.827.314 1.14 0l.686-.686c.313-.313.892-.398 1.283-.19l1.353.557c.427.135.773.607.773 1.048v.968c-.003.443.363.808.805.808h1.616c.445 0 .809-.365.809-.808v-.965c0-.444.35-.914.772-1.047l1.353-.558c.393-.21.971-.125 1.284.191l.685.685c.316.314.831.314 1.141 0l1.144-1.143c.317-.315.317-.828 0-1.144l-.687-.685c-.314-.311-.398-.893-.191-1.284l.56-1.353c.134-.421.603-.77 1.046-.77h.968c.447 0 .808-.364.808-.809v-1.618c0-.445-.361-.809-.806-.809m-5.733 1.577c0 2.21-1.789 4-4 4-2.207 0-4-1.79-4-4 0-2.21 1.794-4 4-4 2.211 0 4 1.791 4 4" fill="#f1f2f2"/><path d="m20.694 9.383h-.97c-.441 0-.912-.345-1.046-.77l-.56-1.354c-.207-.391-.123-.967.193-1.284l.687-.686c.315-.315.315-.829 0-1.143l-1.146-1.142c-.308-.313-.825-.313-1.141 0l-.685.688c-.315.315-.896.4-1.286.192l-1.348-.56c-.423-.131-.774-.602-.774-1.048v-.968c0-.443-.365-.808-.808-.808h-1.618c-.442 0-.808.365-.808.808v.968c0 .446-.345.917-.772 1.048l-1.347.557c-.396.209-.971.126-1.286-.19l-.689-.687c-.315-.313-.829-.313-1.14 0l-1.144 1.142c-.314.314-.314.828 0 1.143l.685.686c.315.315.404.893.192 1.284l-.554 1.354c-.135.426-.606.772-1.049.772l-.972-.002c-.441 0-.808.364-.808.809v1.616c0 .443.367.807.808.807h.972c.443 0 .914.351 1.047.77l.557 1.353c.207.395.124.971-.192 1.285l-.688.688c-.31.315-.31.829 0 1.142l1.148 1.142c.313.314.827.314 1.14 0l.686-.686c.313-.313.892-.398 1.283-.19l1.353.557c.427.135.773.607.773 1.048v.968c-.003.443.363.808.805.808h1.616c.445 0 .809-.365.809-.808v-.965c0-.444.35-.914.772-1.047l1.353-.558c.393-.21.971-.125 1.284.191l.685.685c.316.314.831.314 1.141 0l1.144-1.143c.317-.315.317-.828 0-1.144l-.687-.685c-.314-.311-.398-.893-.191-1.284l.56-1.353c.134-.421.603-.77 1.046-.77h.968c.447 0 .808-.364.808-.809v-1.618c0-.445-.361-.809-.806-.809m-5.733 1.577c0 2.21-1.789 4-4 4-2.207 0-4-1.79-4-4 0-2.21 1.794-4 4-4 2.211 0 4 1.791 4 4" stroke="#808285"/></g></svg>