<svg width="30" xmlns="http://www.w3.org/2000/svg" height="30" viewBox="0 0 30 30" xmlns:xlink="http://www.w3.org/1999/xlink" enable-background="new 0 0 30 30">
<g fill="#a25cc6">
<path d="m16.397,18.388c-.005,.002-.013,.002-.015,.002-.069,.062-.15,.099-.239,.122-.75,.206-1.502,.408-2.251,.616-1.04,.282-2.08,.568-3.12,.851-.122,.032-.243,.032-.365-.015-.056-.021-.108-.053-.165-.083-.042-.037-.081-.078-.122-.123-.002-.003-.006-.012-.008-.018-.109-.158-.142-.332-.088-.515 .109-.401 .217-.801 .33-1.2 .366-1.333 .73-2.668 1.101-4.005 .027-.1 .064-.203 .1-.303 .015-.036 .04-.068 .063-.103 4.498-4.495 8.993-8.993 13.491-13.488 .003-.002 .01-.005 .015-.007 .171-.123 .36-.153 .562-.083 .062,.021 .113,.059 .177,.09 1.334,1.333 2.671,2.669 4.003,4.005 .003,.003 .003,.009 .007,.014 .188,.236 .169,.592-.062,.817-1.511,1.509-10.457,10.469-13.414,13.426zm11.078-13.877c-.85-.851-1.127-1.13-1.975-1.978-3.562,3.561-8.165,8.16-11.724,11.721 .851,.851 1.128,1.127 1.978,1.978 3.558-3.557 8.165-8.163 11.721-11.721z"/>
<path d="M26,10.775V26c0,2.209-1.791,4-4,4H4c-2.209,0-4-1.791-4-4V8c0-2.209,1.791-4,4-4h15.235l-2,2H5  C3.343,6,2,7.343,2,9v16c0,1.657,1.343,3,3,3h16c1.657,0,3-1.343,3-3V12.777L26,10.775z"/>
</g>
</svg>
