<svg width="28" xmlns="http://www.w3.org/2000/svg" height="28" viewBox="0 0 28 28" xmlns:xlink="http://www.w3.org/1999/xlink" enable-background="new 0 0 28 28">
<g fill="#808285">
<path d="M14,1c7.168,0,13,5.832,13,13s-5.832,13-13,13S1,21.168,1,14S6.832,1,14,1 M14,0C6.268,0,0,6.268,0,14   c0,7.732,6.268,14,14,14c7.732,0,14-6.268,14-14C28,6.268,21.732,0,14,0z"/>
<path d="m11.952,16.691l7.979-7.978c.285-.286 .752-.286 1.037,0l.518,.516c.285,.288 .285,.75 0,1.037l-9.015,9.02c-.287,.284-.75,.284-1.037,0l-4.92-4.92c-.286-.288-.286-.75 0-1.038l.519-.518c.286-.286 .75-.286 1.037,0l3.882,3.881z"/>
</g>
</svg>
