<svg width="28" xmlns="http://www.w3.org/2000/svg" height="28" viewBox="0 0 28 28" xmlns:xlink="http://www.w3.org/1999/xlink" enable-background="new 0 0 28 28">
<path class="bg" fill="none" d="m14,27.25c-7.306,0-13.25-5.944-13.25-13.25 0-7.306 5.944-13.25 13.25-13.25 7.306,0 13.25,5.944 13.25,13.25 0,7.306-5.944,13.25-13.25,13.25z"/>
<g fill="#808285">
<path d="M14,1.5c6.893,0,12.5,5.607,12.5,12.5S20.893,26.5,14,26.5S1.5,20.893,1.5,14S7.107,1.5,14,1.5 M14,0   C6.268,0,0,6.268,0,14c0,7.732,6.268,14,14,14c7.732,0,14-6.268,14-14C28,6.268,21.732,0,14,0L14,0z"/>
<path d="m11.952,16.691l7.979-7.979c.283-.286 .752-.286 1.035,0l.52,.516c.285,.288 .285,.75 0,1.037l-9.015,9.02c-.287,.283-.75,.283-1.037,0l-4.92-4.92c-.286-.288-.286-.75 0-1.038l.519-.518c.286-.286 .75-.286 1.037,0l3.882,3.882z"/>
</g>
</svg>
