<svg width="28" xmlns="http://www.w3.org/2000/svg" height="28" viewBox="0 0 28 28" xmlns:xlink="http://www.w3.org/1999/xlink" enable-background="new 0 0 28 28">
<g fill="none" stroke="#808285" stroke-miterlimit="10">
<path d="m24,20.5v-15c0-.828-.672-1.5-1.5-1.5h-15v-2c0-.828 .672-1.5 1.5-1.5h17c.828,0 1.5,.672 1.5,1.5v17c0,.828-.672,1.5-1.5,1.5h-2z"/>
<path d="m20.5,24v-15c0-.828-.672-1.5-1.5-1.5h-15v-2c0-.828 .672-1.5 1.5-1.5h2 15c.828,0 1.5,.672 1.5,1.5v15 2c0,.828-.672,1.5-1.5,1.5h-2z"/>
<path d="m20.5,9c0-.828-.672-1.5-1.5-1.5h-15-2c-.828,0-1.5,.672-1.5,1.5v17c0,.828 .672,1.5 1.5,1.5h17c.828,0 1.5-.672 1.5-1.5v-2-15z"/>
</g>
<text font-family="'Proxima Nova Regular'" fill="#808285" transform="translate(5.3682 22.8359)" font-size="16">A</text>
</svg>
