<svg width="28" xmlns="http://www.w3.org/2000/svg" height="28" viewBox="0 0 28 28" xmlns:xlink="http://www.w3.org/1999/xlink" enable-background="new 0 0 28 28">
<path fill="none" stroke="#808285" d="m7.5,4v-2c0-.828 .672-1.5 1.5-1.5h17c.828,0 1.5,.672 1.5,1.5v17c0,.828-.672,1.5-1.5,1.5h-2m-3.5,3.5h2c.828,0 1.5-.672 1.5-1.5v-2-15c0-.828-.672-1.5-1.5-1.5h-15-2c-.828,0-1.5,.672-1.5,1.5v2m16.5,1.5c0-.828-.672-1.5-1.5-1.5h-15-2c-.828,0-1.5,.672-1.5,1.5v17c0,.828 .672,1.5 1.5,1.5h17c.828,0 1.5-.672 1.5-1.5v-2-15z" stroke-miterlimit="10"/>
<text font-family="'ProximaNova-Regular'" fill="#808285" transform="translate(5.3682 22.8359)" font-size="16">A</text>
</svg>
