<svg width="24" xmlns="http://www.w3.org/2000/svg" height="18" viewBox="0 0 24 18" xmlns:xlink="http://www.w3.org/1999/xlink" enable-background="new 0 0 24 18">
<g fill="#808285">
<path d="m10.571,12.543"/>
<path d="m12.001,2c5.515,0 10,4.486 10,10 0,1.381-.286,2.745-.833,4h-18.334c-.547-1.255-.833-2.619-.833-4-0-5.514 4.486-10 10-10m-0-2c-6.627,0-12,5.373-12,12 0,2.186 .585,4.234 1.605,6h20.789c1.021-1.766 1.605-3.814 1.605-6 .001-6.627-5.372-12-11.999-12z"/>
<circle cx="12.001" cy="5.001" r="1.125"/>
<path d="m12,10.793c.099,0 .197,.008 .292,.023 .828,.141 1.458,.859 1.458,1.727 0,.966-.783,1.75-1.75,1.75s-1.75-.784-1.75-1.75c0-.352 .104-.68 .283-.954"/>
<circle cx="16.896" cy="7.105" r="1.125"/>
<circle cx="19.001" cy="12" r="1.125"/>
<circle cx="7.117" cy="7.115" r="1.125"/>
<circle cx="5.002" cy="12" r="1.125"/>
<path d="m12.292,10.818c-1.562-3.101-3.32-5.184-3.32-5.184s.341,2.705 1.562,5.953"/>
</g>
</svg>
