<svg width="14" xmlns="http://www.w3.org/2000/svg" height="14" viewBox="0 0 14 14" xmlns:xlink="http://www.w3.org/1999/xlink" enable-background="new 0 0 14 14">
<path fill="#d1d3d4" d="m7,8.415l-5.293,5.293c-.39,.391-1.024,.391-1.414,0-.391-.391-.391-1.023 0-1.414l5.293-5.293-.001-.001-5.292-5.292c-.391-.39-.391-1.024-0-1.414 .391-.391 1.023-.391 1.414,0l5.294,5.294v-.001l5.292-5.293c.391-.391 1.023-.391 1.414,0 .391,.39 .391,1.023 0,1.414l-5.293,5.292 .001,.001 5.292,5.292c.391,.391 .391,1.023 0,1.414-.391,.391-1.023,.391-1.414,0l-5.293-5.292z"/>
</svg>
