<svg width="16" xmlns="http://www.w3.org/2000/svg" height="16" viewBox="0 0 16 16" xmlns:xlink="http://www.w3.org/1999/xlink" enable-background="new 0 0 16 16">
<g stroke-miterlimit="10">
<path fill="#f1f2f2" stroke="#808285" d="m3.5,4.5v10.495c0,.275 .225,.499 .5,.499h8c.276,0 .5-.223 .5-.499v-10.495"/>
<g fill="none">
<path stroke="#808285" d="m14,4c0,.276-.225,.5-.5,.5h-11c-.276,0-.5-.224-.5-.5v-1c0-.276 .224-.5 .5-.5h11c.275,0 .5,.224 .5,.5v1zm-3.5-1.009v-1.991c0-.276-.225-.5-.5-.5h-4c-.276,0-.5,.224-.5,.5v1.991"/>
<g stroke="#a7a9ac">
<path d="m6.5,7.5 0,5"/>
<path d="m9.5,7.5 0,5"/>
</g>
</g>
</g>
</svg>
