<svg width="32" xmlns="http://www.w3.org/2000/svg" height="32" viewBox="0 0 32 32" xmlns:xlink="http://www.w3.org/1999/xlink" enable-background="new 0 0 32 32">
<path fill="#d1d3d4" fill-rule="evenodd" d="m31.233,14.14l-13.373-13.373c-1.022-1.022-2.696-1.022-3.72,0l-13.373,13.373c-1.023,1.023-1.023,2.698 0,3.72l13.373,13.372c1.023,1.022 2.697,1.022 3.72,0l13.373-13.372c1.023-1.022 1.023-2.697 0-3.72zm-11.046,1.362c-.139,.415-.449,.619-.724,.619-.381,0-.693-.204-.797-.619l-.656-1.969-2.071,1.344c-.931,.588-1.518,1.624-1.518,2.833v6.527h-3.866v-6.527c0-2.52 1.344-4.764 3.381-6.077l1.935-1.243-1.623-1.207c-.381-.278-.45-.624-.348-.968 .104-.277 .417-.449 .931-.449h8.255l-2.899,7.736z"/>
</svg>
