<svg viewBox="0 0 24 24" xmlns="http://www.w3.org/2000/svg"><g fill="none" fill-rule="evenodd"><ellipse stroke="#2bb673" stroke-width="2" fill-opacity=".2" fill="#2bb673" cx="12" cy="17.5" rx="10" ry="4.5"/><path d="m18 5.538c0-3.057-2.685-5.538-6-5.538-3.313 0-6 2.481-6 5.538 0 1.01.298 1.954.81 2.769h-.007l5.198 9.693 5.201-9.692h-.009c.513-.816.808-1.76.808-2.771m-5.999 2.771c-1.658 0-3-1.241-3-2.769 0-1.53 1.342-2.769 3-2.769 1.656 0 3 1.241 3 2.769.002 1.527-1.344 2.769-3 2.769" fill="#9b9b9b"/></g></svg>