<?xml version="1.0" encoding="UTF-8" standalone="no"?>
<svg width="24px" height="24px" viewBox="0 0 24 24" version="1.1" xmlns="http://www.w3.org/2000/svg" xmlns:xlink="http://www.w3.org/1999/xlink" xmlns:sketch="http://www.bohemiancoding.com/sketch/ns">
    <!-- Generator: Sketch 3.1.1 (8761) - http://www.bohemiancoding.com/sketch -->
    <title>edit_white</title>
    <desc>Created with Sketch.</desc>
    <defs></defs>
    <g id="Page-1" stroke="none" stroke-width="1" fill="none" fill-rule="evenodd" sketch:type="MSPage">
        <g id="edit_white" sketch:type="MSArtboardGroup" fill="#FFFFFF">
            <path d="M7.6771636,22.0634791 C7.6701636,22.0674791 7.6601636,22.0654791 7.6581636,22.0674791 C7.5751636,22.1414791 7.4791636,22.1864791 7.3721636,22.2144791 C6.4711636,22.4604791 5.5691636,22.7044791 4.6701636,22.9514791 C3.4231636,23.2914791 2.1751636,23.6334791 0.927163595,23.9724791 C0.780163595,24.0114791 0.635163595,24.0114791 0.489163595,23.9554791 C0.422163595,23.9294791 0.360163595,23.8904791 0.291163595,23.8544791 C0.241163595,23.8094791 0.194163595,23.7604791 0.145163595,23.7084791 C0.142163595,23.7024791 0.138163595,23.6924791 0.136163595,23.6874791 C0.0051635955,23.4984791 -0.0338364045,23.2904791 0.0301635955,23.0684791 C0.161163595,22.5894791 0.291163595,22.1074791 0.426163595,21.6304791 C0.865163595,20.0294791 1.3021636,18.4284791 1.7461636,16.8234791 C1.7791636,16.7034791 1.8231636,16.5794791 1.8661636,16.4604791 C1.8841636,16.4164791 1.9141636,16.3784791 1.9421636,16.3374791 C7.3391636,10.9444791 12.7321636,5.54647908 18.1311636,0.152479076 C18.1341636,0.149479076 18.1431636,0.146479076 18.1491636,0.144479076 C18.3541636,-0.00252092408 18.5821636,-0.0395209241 18.8241636,0.0434790759 C18.8971636,0.0694790759 18.9611636,0.115479076 19.0361636,0.152479076 C20.6381636,1.75247908 22.2421636,3.35547908 23.8401636,4.95847908 C23.8431636,4.96247908 23.8431636,4.96947908 23.8491636,4.97547908 C24.0751636,5.25947908 24.0511636,5.68647908 23.7751636,5.95647908 C21.9601636,7.76547908 11.2221636,18.5174791 7.6771636,22.0634791 L7.6771636,22.0634791 Z M20.9691636,5.41247908 C19.9491636,4.39147908 19.6171636,4.05547908 18.6001636,3.03947908 C14.3251636,7.31247908 8.8021636,12.8314791 4.5311636,17.1054791 C5.5521636,18.1264791 5.8851636,18.4584791 6.9041636,19.4784791 C11.1741636,15.2094791 16.7021636,9.68247908 20.9691636,5.41247908 L20.9691636,5.41247908 Z" id="Shape" sketch:type="MSShapeGroup"></path>
        </g>
    </g>
</svg>