<svg width="24" xmlns="http://www.w3.org/2000/svg" height="24" viewBox="0 0 24 24" xmlns:xlink="http://www.w3.org/1999/xlink" enable-background="new 0 0 24 24">
<g fill="#ffffff">
<path d="m7.677,22.062c-.007,.005-.017,.003-.019,.005-.083,.073-.179,.118-.286,.147-.901,.246-1.803,.49-2.702,.737-1.247,.34-2.495,.682-3.743,1.021-.147,.04-.292,.04-.438-.016-.067-.026-.129-.065-.198-.101-.05-.044-.097-.093-.146-.146-.003-.006-.007-.016-.009-.021-.131-.19-.17-.398-.106-.62 .131-.479 .261-.961 .396-1.438 .439-1.601 .876-3.202 1.32-4.807 .033-.12 .077-.244 .12-.363 .018-.044 .048-.082 .076-.123 5.397-5.394 10.79-10.792 16.189-16.186 .003-.003 .011-.006 .018-.008 .205-.147 .432-.184 .674-.101 .074,.026 .137,.072 .212,.109 1.602,1.6 3.206,3.203 4.804,4.806 .003,.004 .003,.011 .008,.017 .226,.284 .203,.711-.074,.981-1.813,1.809-12.551,12.561-16.096,16.107zm13.292-16.651c-1.02-1.021-1.352-1.357-2.369-2.373-4.275,4.273-9.798,9.792-14.069,14.066 1.021,1.02 1.354,1.352 2.373,2.373 4.27-4.269 9.798-9.796 14.065-14.066z"/>
<path d="m24,22.8c0,.661-.536,1.2-1.2,1.2h-11.999c-.663,0-1.201-.539-1.201-1.2 0-.663 .538-1.199 1.201-1.199h11.999c.664,0 1.2,.536 1.2,1.199z"/>
</g>
</svg>
