<svg width="28" xmlns="http://www.w3.org/2000/svg" height="20" viewBox="-4.5 21.5 28 20" xmlns:xlink="http://www.w3.org/1999/xlink" enable-background="new -4.5 21.5 28 20">
<path fill="#808285" d="m20.5,22.5c1.103,0 2,.896 2,2v14c0,1.103-.897,2-2,2h-22c-1.103,0-2-.897-2-2v-14c0-1.104 .897-2 2-2h22m0-1h-22c-1.657,0-3,1.344-3,3v14c0,1.657 1.343,3 3,3h22c1.657,0 3-1.343 3-3v-14c0-1.656-1.343-3-3-3z"/>
<path fill="none" stroke="#808285" stroke-linejoin="round" d="m22.5,22.5l-13,12-13-12m8.624,7.959l-9.124,8.832m27,0l-9.124-8.832" stroke-miterlimit="10"/>
</svg>
