<svg width="190" xmlns="http://www.w3.org/2000/svg" height="20" viewBox="0 0 190 20" xmlns:xlink="http://www.w3.org/1999/xlink" enable-background="new 0 0 190 20">
<g fill="#fff" fill-rule="evenodd">
<path d="m189.523,19.753c-2.496,.608-4.157-.003-5.667-1.544-1.467-1.5-3.147-2.79-4.738-4.168-.662-.572-1.323-1.128-2.306-.99-1.113,.157-1.302-.49-1.312-1.444-.01-1.077 .607-1.131 1.406-1.125 2.102,.017 4.209,.075 6.308-.014 3.428-.144 5.594-4.04 3.999-7.077-.364-.692-.983-.772-1.664-.771-3.845,.006-7.691,.057-11.535-.024-1.471-.031-1.41,.801-1.407,1.807 .017,4.506 .026,9.014-.01,13.52-.008,.826 .479,2.005-1.133,2.061-1.643,.059-1.416-1.066-1.417-2.069-.005-5.016 .036-10.033-.021-15.049-.022-1.969 .588-2.923 2.765-2.854 4.203,.132 8.412,.018 12.62,.047 2.947,.019 4.398,1.446 4.553,4.37 .304,5.764-1.32,7.679-7.752,8.922 2.422,2.118 4.742,4.151 7.311,6.402z"/>
<path d="m48.951,19.972c-2.032,0-4.063-.015-6.096,.006-.932,.011-1.485-.22-1.503-1.333-.019-1.187 .634-1.255 1.522-1.252 3.918,.018 7.836,.025 11.754,.001 2.605-.016 3.706-.903 3.738-2.916 .034-2.154-1.11-3.144-3.71-3.164-2.467-.019-4.934,.026-7.4-.013-3.774-.06-6.023-2.208-6.005-5.676 .019-3.449 2.293-5.545 6.098-5.572 3.337-.024 6.676,.008 10.013-.013 .952-.005 1.695,.033 1.731,1.325 .04,1.398-.833,1.258-1.718,1.257-3.41-.005-6.821-.02-10.231,.004-2.332,.017-3.322,.957-3.321,3.052 .001,2.04 1.025,3.009 3.366,3.048 2.612,.043 5.225-.012 7.836,.017 3.301,.035 5.635,1.997 5.898,4.908 .303,3.363-1.476,5.708-5.028,6.122-2.287,.267-4.629,.051-6.947,.051 .003,.051 .003,.099 .003,.148z"/>
<path d="m84.603,11.509c0-2.036-.025-4.074 .006-6.11 .052-3.469 1.804-5.282 5.207-5.34 2.758-.047 5.518-.051 8.276,0 3.496,.065 5.928,2.371 6.369,5.942 .542,4.396-1.182,7.513-4.726,8.432-2.859,.741-5.781,.246-8.673,.36-.951,.037-.958-.627-.991-1.325-.041-.898 .268-1.336 1.233-1.318 2.032,.038 4.065,.032 6.097,.002 3.202-.047 4.543-1.479 4.52-4.768-.024-3.273-1.42-4.74-4.558-4.759-2.395-.015-4.791-.015-7.186,0-2.377,.015-2.98,.583-2.995,2.93-.027,4.147 .006,8.294-.02,12.44-.006,.857 .392,1.99-1.211,1.993-1.485,.004-1.349-.972-1.348-1.93 .001-2.183 0-4.366 0-6.549z"/>
<path d="m137.012,.048c2.251,0 4.501,.009 6.752-.004 .971-.004 1.88-.13 1.851,1.378-.027,1.435-.938,1.193-1.775,1.195-3.849,.008-7.699,.062-11.544-.026-1.459-.034-2.057,.304-2.001,1.902 .118,3.343 .08,6.694 .02,10.04-.037,2.057 .914,2.899 2.905,2.877 3.557-.041 7.115-.006 10.672-.015 .903-.002 1.723-.085 1.72,1.28-.004,1.351-.805,1.306-1.72,1.303-3.558-.01-7.117,.049-10.674-.02-3.7-.071-5.439-1.887-5.454-5.567-.018-4.002 .032-8.004-.022-12.005-.021-1.654 .59-2.412 2.3-2.357 2.321,.075 4.647,.019 6.97,.019z"/>
<path d="m9.161,.048c2.178,0 4.357-.042 6.534,.02 .877,.026 2.132-.545 2.184,1.229 .053,1.775-1.174,1.304-2.08,1.311-3.775,.032-7.552,.063-11.326-.013-1.346-.027-1.953,.25-1.904,1.775 .107,3.416 .065,6.839 .021,10.258-.026,1.942 .887,2.788 2.777,2.776 3.63-.021 7.261-.004 10.891-.005 .81,0 1.591-.097 1.622,1.152 .03,1.226-.549,1.448-1.593,1.437-3.703-.037-7.408,.072-11.108-.043-3.433-.106-5.122-1.974-5.143-5.428-.022-3.93 .063-7.86-.034-11.786-.048-1.946 .582-2.826 2.625-2.71 2.171,.123 4.355,.027 6.534,.027z"/>
<path d="m138.552,8.737c1.303,0 2.606,.018 3.911-.006 .8-.013 1.408,.062 1.398,1.13-.009,.953-.211,1.488-1.319,1.467-2.678-.051-5.359-.038-8.038-.005-.923,.012-1.26-.34-1.292-1.271-.039-1.098 .454-1.364 1.43-1.327 1.301,.052 2.607,.012 3.91,.012z"/>
<path d="m10.796,11.311c-1.303,0-2.609-.042-3.91,.015-1.025,.043-1.415-.339-1.404-1.384 .01-.983 .435-1.228 1.322-1.216 2.679,.034 5.358,.035 8.038-.002 .91-.011 1.278,.29 1.294,1.245 .018,1.075-.436,1.395-1.431,1.355-1.3-.052-2.604-.013-3.909-.013z"/>
</g>
</svg>
