<svg width="48" xmlns="http://www.w3.org/2000/svg" height="60" viewBox="0 0 48 60" xmlns:xlink="http://www.w3.org/1999/xlink" enable-background="new 0 0 48 60">
<g fill="#fff" fill-rule="evenodd">
<path d="m2.648,27.377c7.905,2.335 14.716-.514 21.163-4.57 8.853-5.569 15.999-12.992 22.603-20.958 .37-.446 .754-.882 1.582-1.849 0,3.625-.004,6.667 .004,9.708 .002,.565-.309,.908-.71,1.258-8.592,7.502-17.657,14.275-28.808,17.664-5.497,1.67-11.021,2.062-16.343-.771-.106-.446-.033-.706 .509-.482z"/>
<path d="m4.146,42.558c5.731,1.482 11.135,.425 16.295-2.166 9.982-5.012 17.709-12.675 24.946-20.9 .714-.813 1.411-1.641 2.602-3.027 0,3.557 .003,6.438-.003,9.318-.002,.549-.336,.933-.734,1.27-8.966,7.607-18.361,14.53-30.138,17.292-4.727,1.108-9.461,.938-13.899-1.407-.001-.871 .463-.631 .931-.38z"/>
<path d="m4.702,57.674c6.611,1.638 12.594-.121 18.301-3.324 8.627-4.846 15.515-11.678 22.039-18.918 .736-.816 1.451-1.649 2.192-2.46 .096-.107 .287-.129 .76-.326 0,2.933-.004,5.737 .002,8.542 .002,.663-.401,1.082-.865,1.463-7.731,6.369-15.731,12.331-25.408,15.576-5.831,1.955-11.716,2.763-17.558-.061-.088-.448-.017-.727 .537-.492z"/>
<path d="m4.146,42.558c-.311,.127-.622,.253-.932,.38-.969-.328-1.823-.823-2.303-1.978 1.079,.533 2.156,1.065 3.235,1.598z"/>
<path d="m2.648,27.377c-.17,.161-.34,.321-.509,.481-.787-.234-1.544-.515-2.139-1.49 1.159-.02 1.888,.541 2.648,1.009z"/>
<path d="m4.702,57.674c-.179,.163-.359,.328-.538,.493-.677-.335-1.354-.669-2.032-1.004-.122-.451-.037-.696 .501-.488 .689,.333 1.379,.665 2.069,.999z"/>
<path d="m2.633,56.675c-.167,.163-.334,.325-.501,.488-.608-.239-1.14-.563-1.389-1.267 .839-.183 1.354,.324 1.89,.779z"/>
</g>
</svg>
