<svg width="18" xmlns="http://www.w3.org/2000/svg" height="12" viewBox="0 0 18 12" xmlns:xlink="http://www.w3.org/1999/xlink" enable-background="new 0 0 18 12">
<path fill="none" stroke="#a7a9ac" stroke-linejoin="round" stroke-width="1.5" d="M0.75,6  c0,0,2.338,5.25,8.25,5.25c5.914,0,8.25-5.25,8.25-5.25S14.914,0.75,9,0.75C3.088,0.75,0.75,6,0.75,6z" stroke-miterlimit="10"/>
<path fill="#a7a9ac" d="m8.999,4.477c.835,0 1.513,.683 1.513,1.523 0,.841-.678,1.521-1.513,1.521-.836,.002-1.513-.679-1.513-1.521 0-.84 .677-1.523 1.513-1.523m0-1.956c-1.905,0-3.456,1.562-3.456,3.479s1.551,3.479 3.456,3.479 3.455-1.562 3.455-3.479-1.55-3.479-3.455-3.479z"/>
</svg>
