<svg width="18" xmlns="http://www.w3.org/2000/svg" height="12" viewBox="0 0 18 12" xmlns:xlink="http://www.w3.org/1999/xlink" enable-background="new 0 0 18 12">
<path fill="none" stroke="#a7a9ac" stroke-linejoin="round" d="m.498,6c0,0 2.588,5.5 8.5,5.5 5.914,0 8.5-5.5 8.5-5.5s-2.586-5.5-8.5-5.5c-5.912,0-8.5,5.5-8.5,5.5z" stroke-miterlimit="10"/>
<path fill="#a7a9ac" d="m8.999,4.477c.835,0 1.513,.683 1.513,1.523 0,.841-.678,1.521-1.513,1.521-.836,.002-1.513-.679-1.513-1.521 0-.84 .677-1.523 1.513-1.523m0-1.956c-1.905,0-3.456,1.562-3.456,3.479s1.551,3.479 3.456,3.479 3.455-1.562 3.455-3.479-1.55-3.479-3.455-3.479z"/>
</svg>
