<svg viewBox="0 0 12 15" xmlns="http://www.w3.org/2000/svg"><g fill="#a7a9ac" fill-rule="evenodd"><path d="m11.839.211c-.258.333-.633.802-1.102 1.352-.942 1.091-2.275 2.499-3.804 3.642-.762.569-1.576 1.07-2.391 1.406-.814.338-1.634.497-2.337.457-.352-.018-.674-.083-.949-.17-.276-.088-.51-.189-.694-.295-.097-.046-.174-.099-.243-.144-.072-.041-.129-.082-.176-.118-.094-.065-.142-.1-.142-.1 0 0 .042.041.13.118.041.039.094.088.158.139.069.049.14.114.232.176.173.129.401.263.677.389.275.128.603.237.976.303.74.135 1.643.071 2.551-.18.912-.253 1.834-.675 2.705-1.177 1.744-1 3.302-2.294 4.409-3.311.056-.049.111-.099.161-.147v-2.549c-.048.06-.098.133-.162.211"/><path d="m11.01 5.345c-.939 1.095-2.276 2.502-3.804 3.648-.763.57-1.576 1.066-2.392 1.402-.813.339-1.633.503-2.337.457-.352-.018-.674-.077-.949-.166-.276-.092-.51-.194-.698-.297-.094-.048-.17-.101-.241-.146-.072-.042-.128-.084-.176-.115-.094-.068-.143-.103-.143-.103 0 0 .043.04.132.117.041.041.094.088.158.139.069.053.141.118.228.176.176.13.405.264.68.389.276.129.603.235.976.303.741.136 1.643.071 2.552-.181.912-.253 1.834-.674 2.704-1.176 1.691-.964 3.192-2.205 4.296-3.205v-2.439c-.248.313-.583.728-.987 1.198"/><path d="m11.13 9.129c-.95 1.091-2.282 2.502-3.812 3.645-.765.569-1.576 1.067-2.394 1.406-.81.338-1.629.497-2.333.458-.351-.023-.674-.083-.949-.171-.275-.093-.511-.193-.697-.298-.094-.048-.172-.101-.243-.143-.074-.04-.128-.086-.174-.117-.093-.069-.146-.105-.146-.105 0 0 .046.042.132.122.043.037.095.088.161.136.065.052.139.116.228.175.176.129.404.263.678.392.276.129.605.236.974.3.744.135 1.645.071 2.555-.182.909-.251 1.832-.673 2.702-1.172 1.633-.938 3.089-2.127 4.188-3.108v-2.406c-.233.298-.527.662-.869 1.066"/></g></svg>