<svg width="20" xmlns="http://www.w3.org/2000/svg" height="20" viewBox="0 0 20 20" xmlns:xlink="http://www.w3.org/1999/xlink" enable-background="new 0 0 20 20">
<g fill="#808285">
<path d="m10,1c4.963,0 9,4.038 9,9 0,4.963-4.037,9-9,9-4.962,0-9-4.037-9-9 0-4.962 4.038-9 9-9m0-1c-5.523,0-10,4.477-10,10 0,5.522 4.477,10 10,10 5.522,0 10-4.478 10-10 0-5.523-4.478-10-10-10z"/>
<path d="m10,4c3.309,0 6,2.691 6,6s-2.691,6-6,6-6-2.691-6-6 2.691-6 6-6m0-2c-4.418,0-8,3.582-8,8 0,4.417 3.582,8 8,8 4.417,0 8-3.583 8-8 0-4.418-3.583-8-8-8z"/>
<circle cx="10" cy="10" r="4.5"/>
</g>
</svg>
