<svg width="28" xmlns="http://www.w3.org/2000/svg" height="28" viewBox="0 0 28 28" xmlns:xlink="http://www.w3.org/1999/xlink" enable-background="new 0 0 28 28">
<g fill="#808285" fill-rule="evenodd">
<path d="m14,0c-7.732,0-14,6.267-14,14 0,7.733 6.268,14 14,14 7.732,0 14-6.268 14-14 0-7.733-6.268-14-14-14zm11.979,13.572l-.066-.973c.036,.32 .054,.646 .066,.973zm-23.979,.428c0-2.603 .841-5.007 2.254-6.975 .894,.089 1.899,.579 2.444,1.871 .185,.438-1.418,4.764 .38,4.492-.055-.205-.095-.413-.132-.623-.026-.054-.038-.091-.019-.09 .005,.03 .014,.06 .019,.09 .161,.334 1.04,1.534 1.127,1.592 .585,.412 1.398,.482 2.02,.877 .368,.232 .786,.477 1.099,.785 .113,.113 .157,.182 .112,.332-.096,.309-.351,.537-.406,.865-.062,.373 .055,.809 .17,1.16 .609,1.85 1.621,1.986 1.84,4.068 .126,1.217 .295,2.705 1.159,3.551-.022,.001-.044,.005-.067,.005-6.617,0-12-5.383-12-12zm12.906,11.953c-.186-.215-.383-.398-.314-.992 .096-.834 1.191-2.018 1.668-2.652 .475-.631 3.021-3.527 1.682-4.238-.096-.051-.436-.23 0-.002-1.057-.557-1.918-1.396-2.926-2.029-.568-.357-1.2-.664-1.879-.717-.701-.053-2.429,.25-2.72-.658-.109-.34-.027-.687-.004-1.032-.297,.109-.621,.19-.921,.273-.21,.059-.548,.131-.608-.151-.047-.22 .066-.548 .139-.753 .651-1.85 2.564,.244 3.047-.082-.455,.309 .367-1.581 .699-1.943 .879-.949 1.662-.855 2.656-1.338-.145-.236-.297-.467-.453-.693 .314-.014 .617-.039 .93-.08-.1,.133-.184,.274-.252,.426 1.891,.094 .535-1.028 .318-2.014-.754,.244-.336-.346-1.182-.354-.404-.004-.65,1.349-1.682,1.765-.105-.684-.706-.883-1.216-1.216 .197-.303 .593-.491 .903-.653 .392-.206 .803-.369 1.196-.57 .257-.131 .361-.791 .117-.969-.345-.252-1.131-.07-.873,.467-.25-.057-.522-.01-.767-.09-.316-.104-.613-.289-.956-.277-.347,.011-.652,.213-.95,.371-.245,.125-.492,.265-.742,.38-.697,.321-1.212-.431-1.801-.744-.429-.228-1.121-.515-1.704-.59 2.085-1.745 4.765-2.798 7.689-2.798 1.363,0 2.67,.239 3.892,.66-.233,.469-.601,1.259-.601,1.629 0,.543 1.021,1.063 1.291,1.334 .271,.271-.625,1.666 .5,2.166s2.418-1.25 2.418-1.25 .434-.469 1.38-.583c.612,.675 1.153,1.413 1.6,2.213-1.523,.304-4.008,1.215-3.48,3.913 .588,3.006 3.453,4.282 4.664,4.694-1.189,4.995-5.503,8.783-10.758,9.177z"/>
<path d="m17.941,18.068v.002c.029,.014 .039,.02 0-.002z"/>
</g>
</svg>
