<svg width="16" xmlns="http://www.w3.org/2000/svg" height="16" viewBox="0 0 16 16" xmlns:xlink="http://www.w3.org/1999/xlink" enable-background="new 0 0 16 16">
<circle fill="#dfeff7" cx="8" cy="8" r="8"/>
<path fill="#0080ce" d="m15.971,7.428c-.279-3.961-3.438-7.119-7.399-7.399v-.029h-1.143v.029c-3.961,.28-7.119,3.438-7.4,7.399h-.029v1.144h.029c.281,3.961 3.438,7.12 7.4,7.399v.029h1.142v-.029c3.962-.279 7.12-3.438 7.399-7.399h.03v-1.144h-.029zm-3.972,0c-.026-.807-.102-1.608-.24-2.382 .654-.238 1.288-.546 1.898-.915 .654,.954 1.07,2.081 1.171,3.297h-2.829zm-4.57,0h-2.283c.024-.692 .089-1.38 .201-2.046 .685,.172 1.382,.278 2.082,.315v1.731zm0,1.144v1.733c-.701,.035-1.397,.141-2.083,.312-.111-.664-.176-1.351-.2-2.045h2.283zm1.142,0h2.284c-.025,.694-.09,1.381-.201,2.045-.686-.172-1.382-.277-2.083-.312v-1.733zm0-1.144v-1.731c.701-.037 1.397-.143 2.083-.314 .111,.666 .176,1.354 .201,2.046h-2.284zm4.355-4.189c-.459,.267-.933,.497-1.419,.684-.21-.802-.484-1.555-.826-2.234 .85,.362 1.61,.894 2.245,1.55zm-3.833-2.002l.146,.219c.517,.783 .907,1.75 1.178,2.807-.607,.155-1.225,.253-1.846,.289v-3.381c.177,.015 .35,.039 .522,.066zm-1.664,3.315c-.62-.036-1.238-.134-1.844-.289 .271-1.057 .662-2.023 1.178-2.807l.145-.219c.172-.027 .345-.051 .521-.066v3.381zm-2.109-2.864c-.342,.68-.617,1.433-.827,2.234-.485-.186-.959-.417-1.418-.683 .634-.656 1.394-1.188 2.245-1.551zm-2.976,2.442c.61,.369 1.244,.677 1.898,.915-.138,.774-.213,1.576-.24,2.382h-2.83c.101-1.216 .517-2.343 1.172-3.297zm1.658,4.441c.027,.807 .102,1.608 .24,2.381-.654,.238-1.289,.547-1.898,.916-.655-.955-1.07-2.082-1.171-3.297h2.829zm-.926,4.188c.459-.266 .932-.496 1.418-.682 .21,.801 .485,1.555 .827,2.232-.852-.363-1.612-.894-2.245-1.55zm3.832,2.002l-.145-.219c-.517-.783-.907-1.75-1.178-2.807 .606-.156 1.224-.252 1.844-.289v3.381c-.176-.014-.349-.039-.521-.066zm1.663-3.315c.621,.037 1.238,.133 1.845,.289-.271,1.057-.661,2.023-1.178,2.807l-.146,.219c-.172,.027-.345,.053-.521,.066v-3.381zm2.11,2.864c.342-.678 .616-1.432 .826-2.232 .486,.186 .96,.416 1.419,.682-.635,.655-1.395,1.186-2.245,1.55zm2.976-2.442c-.61-.369-1.244-.678-1.898-.916 .139-.773 .214-1.574 .24-2.381h2.829c-.1,1.215-.516,2.342-1.171,3.297z"/>
</svg>
