<svg width="54" xmlns="http://www.w3.org/2000/svg" height="54" viewBox="0 0 54 54" xmlns:xlink="http://www.w3.org/1999/xlink" enable-background="new 0 0 54 54">
<circle fill="#1a6fef" cx="27" cy="27" fill-rule="evenodd" r="27"/>
<path fill="#fff" d="m31.365,15.806c.813,.673 2.51,2.085 2.51,4.772 0,2.613-1.484,3.854-2.97,5.019-.459,.458-.99,.956-.99,1.733 0,.776 .531,1.2 .92,1.519l1.274,.988c1.555,1.308 2.967,2.511 2.967,4.951 0,3.321-3.217,6.679-9.295,6.679-5.126,0-7.599-2.438-7.599-5.056 0-1.272 .633-3.074 2.721-4.312 2.19-1.343 5.161-1.518 6.751-1.626-.496-.636-1.061-1.308-1.061-2.401 0-.6 .177-.954 .354-1.38-.391,.036-.778,.07-1.132,.07-3.746,0-5.866-2.792-5.866-5.547 0-1.627 .742-3.431 2.261-4.736 2.016-1.662 4.418-1.945 6.328-1.945h7.28l-2.263,1.272h-2.19zm-2.51,15.694c-.282-.036-.46-.036-.812-.036-.318,0-2.229,.071-3.712,.567-.777,.281-3.04,1.129-3.04,3.64 0,2.508 2.439,4.313 6.222,4.313 3.392,0 5.195-1.63 5.195-3.819 .001-1.805-1.165-2.756-3.853-4.665zm1.027-6.716c.812-.814 .881-1.944 .881-2.581 0-2.545-1.519-6.503-4.451-6.503-.921,0-1.909,.459-2.476,1.167-.6,.742-.777,1.695-.777,2.615 0,2.368 1.378,6.291 4.419,6.291 .883,0 1.835-.423 2.404-.989z"/>
</svg>
