<svg width="20" xmlns="http://www.w3.org/2000/svg" height="12" viewBox="5 8.999 20 12" xmlns:xlink="http://www.w3.org/1999/xlink" enable-background="new 5 8.999 20 12">
<g fill="#808285">
<path d="m13.629,15.523v1.029c.191,.081 .408,.174 .653,.282 .244,.104 .498,.214 .753,.325 .262,.109 .523,.225 .789,.336 .265,.107 .516,.215 .753,.311s.45,.185 .644,.26c.191,.076 .346,.135 .467,.177 .246,.086 .453,.217 .607,.399 .154,.179 .273,.361 .365,.548 .105,.219 .184,.445 .23,.688v1.12h-13.89v-1.119c.053-.241 .133-.468 .239-.687 .093-.187 .214-.37 .368-.55 .155-.18 .354-.312 .599-.397 .126-.042 .292-.103 .491-.181 .204-.08 .43-.172 .681-.272 .251-.104 .514-.212 .79-.328 .275-.118 .551-.235 .826-.354 .273-.116 .532-.23 .775-.334 .244-.108 .459-.201 .645-.283v-1c-.01-.048-.031-.119-.059-.216-.028-.097-.057-.194-.086-.296-.033-.115-.075-.243-.125-.378-.17-.316-.307-.673-.41-1.078-.102-.4-.152-.826-.152-1.278 0-.595 .064-1.094 .193-1.503 .127-.412 .301-.745 .521-1.006 .221-.259 .479-.444 .771-.562 .296-.119 .615-.177 .953-.177 .334,0 .648,.058 .942,.171 .296,.115 .556,.302 .778,.557 .222,.255 .396,.589 .526,1 .129,.414 .19,.918 .19,1.52 0,.439-.05,.857-.145,1.254-.1,.394-.234,.75-.404,1.068-.049,.142-.094,.282-.136,.411-.04,.112-.069,.219-.098,.32-.027,.105-.044,.178-.044,.223z"/>
<path d="m12.446,20.998"/>
<path d="m15.883,16.762l.727,.317 1.38,.562c0,0 .288,.116 .428,.221 .144,.104 .427,.371 .567,.545 .15,.195 .269,.396 .351,.601 .103,.242 .176,.494 .222,.762v1.23h5.442v-1.12c-.047-.241-.125-.469-.23-.688-.09-.187-.213-.368-.367-.548-.153-.183-.356-.312-.607-.398-.118-.042-.273-.1-.466-.176-.188-.076-.403-.164-.642-.262-.239-.095-.488-.201-.756-.31-.266-.112-.527-.226-.785-.336-.258-.111-.512-.222-.756-.325-.242-.107-.463-.201-.65-.283v-1.027c0-.047 .015-.12 .044-.225 .03-.102 .062-.208 .1-.32 .043-.129 .085-.27 .134-.411 .172-.318 .311-.675 .407-1.068 .097-.396 .146-.814 .146-1.254 0-.602-.064-1.104-.191-1.52-.127-.411-.303-.746-.527-1-.223-.255-.479-.441-.775-.557-.297-.113-.61-.171-.943-.171-.339,0-.654,.058-.951,.177-.295,.117-.552,.303-.773,.562-.219,.261-.395,.594-.521,1.006-.128,.41-.193,.909-.193,1.503 0,.452 .05,.878 .154,1.278 .1,.404 .236,.762 .409,1.078 .05,.135 .091,.263 .127,.378 .029,.102 .06,.199 .084,.296 .025,.097 .048,.168 .056,.216v1c-.192,.078-.4,.162-.645,.267z"/>
</g>
</svg>
