<svg width="30" xmlns="http://www.w3.org/2000/svg" height="30" viewBox="0 0 30 30" xmlns:xlink="http://www.w3.org/1999/xlink" enable-background="new 0 0 30 30">
<circle fill="#e6e7e8" cx="15" cy="15" r="15"/>
<g fill="#808285">
<path d="m13.629,15.526v1.028c.191,.082 .408,.175 .653,.283 .244,.104 .498,.214 .753,.325 .262,.11 .523,.224 .789,.336 .265,.108 .516,.215 .753,.31 .237,.097 .451,.185 .644,.261 .191,.076 .345,.134 .467,.176 .246,.086 .452,.217 .607,.399 .154,.179 .273,.362 .365,.549 .105,.219 .184,.445 .231,.688v1.12h-13.891v-1.119c.053-.242 .133-.468 .239-.687 .093-.187 .214-.371 .368-.55 .155-.18 .354-.312 .599-.398 .126-.042 .292-.102 .491-.181 .204-.079 .43-.171 .681-.272 .251-.105 .514-.212 .79-.328 .275-.119 .551-.235 .826-.354 .273-.117 .532-.231 .775-.335 .244-.108 .459-.201 .645-.283v-1c-.01-.048-.031-.119-.059-.216s-.057-.194-.086-.296c-.033-.115-.075-.243-.125-.378-.17-.316-.307-.674-.41-1.078-.102-.4-.152-.826-.152-1.278 0-.595 .064-1.094 .193-1.504 .127-.412 .301-.745 .521-1.006 .221-.259 .479-.444 .771-.562 .296-.119 .615-.177 .953-.177 .334,0 .648,.058 .942,.171 .296,.115 .556,.302 .778,.557s.396,.59 .526,1.001c.129,.414 .19,.918 .19,1.52 0,.439-.05,.857-.145,1.254-.1,.394-.234,.751-.404,1.069-.049,.142-.094,.282-.136,.411-.04,.112-.069,.219-.098,.32-.027,.104-.044,.177-.044,.224z"/>
<path d="m12.446,21.001"/>
<path d="m15.883,16.764l.726,.317 1.38,.561c0,0 .288,.117 .428,.221 .143,.105 .427,.372 .568,.545 .15,.195 .268,.397 .35,.602 .102,.242 .176,.494 .222,.761v1.231h5.443v-1.12c-.047-.242-.125-.469-.23-.688-.09-.187-.213-.37-.367-.549-.154-.183-.357-.313-.608-.399-.118-.042-.274-.1-.466-.176-.188-.076-.403-.164-.641-.261-.24-.095-.489-.201-.756-.31-.266-.112-.527-.226-.785-.336-.258-.111-.512-.222-.756-.325-.242-.108-.463-.201-.651-.283v-1.028c0-.047 .015-.12 .044-.225 .03-.102 .061-.208 .1-.32 .043-.129 .085-.27 .134-.411 .172-.318 .31-.676 .407-1.069 .096-.396 .145-.814 .145-1.254 0-.602-.064-1.105-.191-1.52-.127-.411-.303-.746-.527-1.001-.223-.255-.48-.441-.776-.557-.296-.113-.61-.171-.943-.171-.339,0-.655,.058-.952,.177-.294,.117-.551,.303-.773,.562-.219,.261-.394,.594-.521,1.006-.128,.41-.194,.909-.194,1.504 0,.452 .05,.878 .154,1.278 .1,.404 .237,.762 .41,1.078 .049,.135 .09,.263 .127,.378 .029,.102 .059,.199 .084,.296s.047,.168 .055,.216v1c-.187,.081-.395,.165-.64,.27z"/>
</g>
</svg>
