<svg width="20" xmlns="http://www.w3.org/2000/svg" height="12" viewBox="0 0 20 12" xmlns:xlink="http://www.w3.org/1999/xlink" enable-background="new 0 0 20 12">
<g fill="#808285">
<path d="m8.629,6.523v1.028c.191,.082 .408,.176 .653,.283 .243,.104 .497,.214 .753,.325 .262,.108 .523,.225 .789,.336 .265,.106 .516,.215 .753,.312 .237,.096 .45,.185 .644,.26 .191,.076 .346,.135 .467,.177 .246,.086 .453,.217 .607,.399 .154,.178 .273,.36 .365,.547 .105,.22 .184,.445 .23,.688v1.12h-13.89v-1.119c.053-.24 .133-.468 .239-.688 .093-.187 .214-.369 .368-.549 .155-.18 .354-.312 .599-.397 .126-.042 .292-.103 .491-.181 .204-.08 .43-.172 .681-.272 .251-.104 .514-.212 .79-.328 .275-.118 .551-.235 .826-.354 .273-.116 .532-.23 .775-.335 .244-.107 .459-.2 .645-.282v-1c-.01-.048-.031-.119-.059-.216-.028-.097-.057-.194-.086-.297-.033-.114-.075-.242-.125-.376-.17-.316-.307-.674-.41-1.078-.102-.4-.152-.826-.152-1.278 0-.595 .064-1.095 .193-1.503 .127-.412 .301-.745 .521-1.006 .222-.26 .479-.444 .771-.562 .296-.12 .615-.178 .953-.178 .334,0 .648,.058 .942,.171 .296,.115 .556,.303 .778,.557 .222,.256 .396,.59 .525,1 .129,.414 .19,.918 .19,1.521 0,.438-.05,.856-.146,1.254-.1,.394-.233,.75-.403,1.067-.049,.142-.094,.283-.135,.411-.041,.112-.069,.219-.098,.32-.027,.104-.044,.179-.044,.223z"/>
<path d="m7.445,11.998"/>
<path d="m10.883,7.762l.727,.317 1.381,.562c0,0 .287,.116 .428,.221 .145,.104 .428,.371 .566,.546 .15,.194 .27,.396 .352,.601 .104,.242 .176,.494 .223,.762v1.229h5.44v-1.12c-.047-.241-.125-.469-.23-.688-.09-.187-.213-.367-.367-.547-.152-.184-.355-.312-.606-.398-.118-.042-.272-.1-.466-.176-.188-.076-.403-.164-.643-.262-.238-.096-.487-.201-.756-.311-.266-.112-.527-.227-.785-.336-.258-.111-.512-.223-.756-.325-.242-.106-.463-.201-.649-.282v-1.028c0-.047 .015-.12 .044-.226 .029-.102 .062-.208 .1-.319 .043-.129 .086-.271 .135-.412 .172-.317 .311-.674 .406-1.067 .098-.396 .146-.813 .146-1.254 0-.603-.064-1.104-.191-1.521-.127-.41-.303-.746-.527-1-.223-.254-.479-.44-.774-.557-.297-.113-.61-.171-.943-.171-.339,0-.653,.058-.95,.177-.295,.117-.553,.303-.773,.562-.219,.261-.395,.594-.521,1.006-.127,.41-.192,.908-.192,1.503 0,.452 .05,.878 .153,1.278 .101,.404 .236,.762 .409,1.078 .05,.135 .091,.263 .128,.377 .028,.103 .06,.199 .084,.297 .024,.097 .047,.168 .055,.216v1c-.195,.079-.403,.163-.648,.268z"/>
</g>
</svg>
