<svg width="28" xmlns="http://www.w3.org/2000/svg" height="18" viewBox="0.5 21.5 28 18" xmlns:xlink="http://www.w3.org/1999/xlink" enable-background="new 0.5 21.5 28 18">
<g fill="none" stroke="#a7a9ac" stroke-width="1.5" stroke-miterlimit="10">
<path d="m12.684,30.727v1.336c.253,.106 .54,.229 .864,.368 .323,.134 .66,.279 1,.422 .346,.139 .694,.292 1.045,.437 .351,.138 .684,.279 .999,.406 .312,.122 .595,.239 .851,.338s.459,.175 .62,.229c.325,.113 .601,.282 .806,.52 .203,.23 .362,.468 .482,.71 .142,.288 .245,.579 .305,.896v2.363h-18.406v-2.363c.07-.313 .176-.607 .318-.894 .122-.243 .283-.479 .486-.712 .206-.234 .469-.406 .794-.519 .167-.053 .387-.129 .65-.231 .27-.104 .57-.226 .903-.355 .331-.138 .68-.277 1.046-.428 .364-.154 .73-.306 1.095-.461 .361-.149 .705-.296 1.027-.43 .323-.142 .607-.263 .855-.369v-1.299c-.015-.062-.042-.157-.08-.282-.037-.128-.076-.252-.115-.387-.043-.148-.099-.314-.165-.487-.226-.41-.408-.873-.544-1.401-.135-.521-.202-1.074-.202-1.662 0-.772 .085-1.422 .256-1.951 .168-.535 .4-.969 .691-1.308 .293-.338 .634-.577 1.02-.729 .393-.155 .817-.231 1.265-.231 .441,0 .857,.076 1.248,.224 .393,.148 .737,.392 1.031,.723 .293,.332 .524,.765 .696,1.299 .171,.538 .252,1.192 .252,1.975 0,.57-.067,1.113-.194,1.632-.134,.513-.31,.975-.534,1.386-.065,.187-.125,.369-.179,.533-.055,.148-.091,.285-.13,.419-.033,.127-.056,.225-.056,.283z"/>
<path d="m11.115,38.75"/>
<path d="m19.655,38.75v-2.363c-.06-.317-.163-.609-.305-.896-.12-.242-.279-.479-.482-.709-.205-.237-.48-.407-.806-.52-.161-.054-.364-.13-.62-.229-.255-.098-.538-.216-.851-.338-.315-.126-.648-.268-.999-.405-.351-.145-.699-.298-1.045-.438l-.012-.019c.034-.018 .067-.031 .103-.047 .361-.15 .706-.298 1.026-.431 .324-.14 .609-.263 .855-.368v-1.298c-.014-.064-.042-.158-.078-.284-.037-.126-.075-.253-.114-.387-.043-.147-.099-.314-.163-.487-.226-.41-.407-.877-.545-1.401-.135-.521-.203-1.073-.203-1.662 0-.772 .088-1.422 .259-1.951 .166-.534 .398-.969 .688-1.307 .294-.337 .636-.577 1.022-.73 .391-.153 .813-.229 1.262-.229 .441,0 .857,.076 1.249,.224 .391,.148 .735,.392 1.03,.723 .293,.332 .524,.768 .694,1.299 .172,.538 .253,1.192 .253,1.975 0,.57-.065,1.113-.195,1.632-.131,.513-.307,.975-.531,1.386-.067,.187-.126,.369-.181,.533-.055,.148-.092,.285-.13,.419-.034,.132-.059,.229-.059,.289v1.334c.253,.106 .542,.229 .864,.368 .324,.134 .657,.279 .999,.422 .346,.139 .692,.292 1.045,.437 .351,.138 .683,.279 .994,.406 .316,.122 .599,.239 .854,.338s.459,.175 .62,.229c.326,.113 .6,.282 .803,.52 .207,.23 .362,.468 .485,.71 .14,.288 .243,.579 .306,.896v2.363h-8.092z"/>
</g>
</svg>
