<svg width="30" xmlns="http://www.w3.org/2000/svg" height="25" viewBox="0 0 30 25" xmlns:xlink="http://www.w3.org/1999/xlink" enable-background="new 0 0 30 25">
<g fill="#fff">
<path d="m20.45,20.277c-1.653,1.157-3.586,1.738-5.563,1.711-.261-.003-.521-.016-.777-.039-.105-.01-.21-.026-.315-.04-.202-.026-.403-.054-.601-.092-.121-.023-.239-.054-.359-.082-.192-.045-.385-.091-.573-.147-.091-.027-.179-.06-.269-.09-.217-.072-.433-.147-.643-.235-.048-.02-.094-.042-.141-.063-.247-.107-.489-.222-.724-.348-.01-.006-.021-.012-.031-.018-.796-.437-1.523-.982-2.161-1.619-.011-.011-.021-.022-.031-.033-.198-.199-.387-.407-.567-.623-.039-.046-.074-.097-.112-.144-1.3-1.625-2.083-3.682-2.083-5.919h2.5l-4-6-4,6h2.5c0,2.63 .82,5.068 2.213,7.083 .018,.028 .029,.059 .048,.086 .144,.206 .304,.397 .459,.593 .058,.073 .112,.149 .172,.222 .229,.276 .47,.536 .719,.79 .023,.024 .045,.05 .069,.073 .836,.837 1.78,1.542 2.808,2.105 .028,.016 .055,.032 .083,.047 .296,.159 .6,.304 .91,.439 .077,.033 .152,.069 .229,.103 .265,.109 .535,.205 .808,.296 .129,.044 .257,.09 .388,.129 .239,.071 .483,.131 .729,.188 .164,.038 .326,.079 .492,.111 .068,.014 .134,.034 .202,.046 .232,.041 .464,.063 .696,.092 .084,.01 .166,.024 .25,.033 .418,.042 .834,.068 1.249,.068 2.541,0 5.02-.776 7.146-2.267 .68-.476 .845-1.41 .369-2.088-.476-.68-1.412-.844-2.089-.368z"/>
<path d="m27.501,12.496c-.001-2.622-.816-5.055-2.202-7.066-.02-.034-.034-.069-.057-.101-.172-.246-.36-.475-.547-.705-.022-.028-.042-.057-.065-.084-1.268-1.54-2.861-2.729-4.666-3.507-.05-.022-.099-.045-.148-.066-.288-.12-.583-.225-.881-.323-.106-.036-.212-.074-.32-.107-.259-.078-.521-.141-.786-.203-.146-.034-.292-.071-.44-.1-.072-.014-.142-.036-.214-.049-.198-.035-.396-.05-.594-.075-.137-.017-.271-.039-.409-.052-.332-.031-.662-.044-.992-.05-.062,.001-.118-.008-.179-.008-.011,0-.021,.003-.032,.004-2.538,.002-5.012,.768-7.136,2.256-.679,.475-.844,1.41-.369,2.089 .474,.679 1.41,.844 2.089,.368 1.64-1.149 3.555-1.731 5.518-1.713 .281,.002 .561,.016 .835,.042 .084,.008 .168,.021 .252,.032 .226,.027 .45,.059 .67,.102 .098,.02 .193,.044 .289,.066 .217,.049 .433,.102 .644,.166 .067,.021 .133,.045 .2,.067 .241,.079 .479,.164 .712,.261 .024,.01 .048,.021 .071,.032 1.397,.602 2.624,1.527 3.581,2.685 .006,.007 .012,.016 .018,.023 1.347,1.639 2.157,3.734 2.158,6.017h-2.501l4.001,6 3.999-6h-2.499z"/>
</g>
</svg>
