<svg viewBox="0 0 14 14" xmlns="http://www.w3.org/2000/svg"><g fill="none" fill-rule="evenodd"><path d="m7 0c-3.866 0-7 3.134-7 7 0 3.866 3.134 7 7 7 3.866 0 7-3.134 7-7 0-3.866-3.134-7-7-7m.63 11.373c-.434.418-.897.627-1.39.627-.279 0-.529-.087-.751-.257-.221-.173-.332-.436-.332-.788 0-.124.029-.321.09-.589.035-.154.087-.358.156-.612l.94-3.432c.01-.04.018-.08.026-.12.008-.04.011-.077.011-.111 0-.205-.064-.332-.194-.381-.13-.05-.365-.082-.708-.096v-.404c.287-.019.703-.061 1.248-.123.546-.062.933-.115 1.16-.16l.652-.127-1.187 4.35c-.099.373-.167.632-.202.776-.089.368-.134.607-.134.717 0 .108.024.181.074.212.05.033.104.048.165.048.154 0 .347-.131.576-.396.229-.263.432-.54.606-.829l.336.217c-.499.732-.88 1.223-1.143 1.477m.978-7.555c-.207.209-.458.314-.752.314-.294 0-.546-.105-.756-.314-.21-.21-.314-.462-.314-.756 0-.294.104-.545.314-.752.21-.207.462-.31.756-.31.294 0 .545.103.752.31.206.207.309.458.309.752 0 .295-.104.547-.309.756" fill="#808285"/></g></svg>