<svg viewBox="0 0 50 50" xmlns="http://www.w3.org/2000/svg"><defs><linearGradient y1="0%" x2="0" y2="100%" id="0"><stop stop-color="#969696" offset="0%"/><stop stop-color="#4a4a4a" offset="100%"/></linearGradient></defs><g fill="none" fill-rule="evenodd"><path d="m49.815 21.995l-3.238-14.03c-.521-2.275-2.297-4.051-4.574-4.575l-14.03-3.236c-2.049-.474-4.199.142-5.687 1.631l-20.502 20.501c-2.384 2.383-2.384 6.248 0 8.633l17.264 17.264c2.384 2.382 6.248 2.382 8.632 0l20.502-20.502c1.488-1.488 2.103-3.639 1.63-5.688" fill="url(#0)"/><g fill="#fff"><path d="m34.1 34.567c-2.285 1.603-4.95 2.437-7.68 2.437-.447 0-.894-.027-1.343-.073-.09-.011-.178-.025-.268-.036-.25-.032-.499-.054-.748-.099-.073-.012-.144-.033-.217-.05-.178-.034-.353-.078-.529-.118-.264-.062-.526-.126-.784-.203-.141-.042-.278-.09-.416-.139-.294-.096-.583-.199-.869-.316-.083-.038-.162-.076-.246-.112-.333-.145-.66-.3-.979-.472-.03-.015-.058-.033-.089-.051-1.104-.605-2.119-1.363-3.02-2.263-.027-.022-.05-.052-.074-.077-.267-.273-.526-.552-.773-.849-.065-.08-.122-.162-.185-.239-.167-.21-.339-.416-.493-.639-.02-.027-.032-.061-.052-.092-1.497-2.165-2.378-4.786-2.378-7.612h-2.688l4.299-6.449 4.299 6.449h-2.687c0 2.404.842 4.614 2.239 6.361.041.051.078.107.121.157.193.232.396.456.61.669.011.013.022.023.033.036.686.685 1.467 1.27 2.323 1.741.011.007.022.013.033.018.253.137.512.259.778.374.051.022.1.046.152.069.226.094.457.174.691.252.096.031.191.067.289.096.202.061.409.109.615.157.129.032.257.062.386.087.213.042.429.072.645.099.113.015.226.033.339.044.275.025.555.037.835.042 2.124.029 4.202-.596 5.979-1.838.727-.512 1.732-.336 2.245.395.51.73.331 1.733-.399 2.245"/><path d="m38.22 30.01l-4.3-6.449h2.688c-.001-2.453-.872-4.704-2.319-6.465-.006-.007-.012-.017-.018-.025-1.029-1.245-2.348-2.239-3.849-2.886-.025-.012-.051-.023-.077-.034-.251-.104-.506-.196-.765-.281-.071-.023-.142-.049-.214-.072-.227-.069-.46-.126-.693-.178-.102-.023-.206-.049-.311-.071-.237-.046-.477-.081-.72-.109-.09-.012-.181-.026-.271-.035-.295-.027-.595-.042-.897-.045-2.11-.019-4.168.606-5.93 1.841-.73.511-1.736.334-2.246-.396-.511-.73-.333-1.735.397-2.245 2.283-1.599 4.941-2.423 7.669-2.424.012-.001.023-.004.035-.004.065 0 .126.009.192.008.354.007.709.021 1.065.054.149.014.292.037.44.056.213.027.426.043.638.081.078.014.153.037.23.052.159.032.317.071.473.107.285.067.566.135.845.218.116.035.229.076.344.115.319.105.636.218.947.347.052.022.105.047.158.071 1.941.836 3.651 2.114 5.01 3.769.024.029.047.06.071.09.2.247.402.493.588.758.024.034.04.072.06.108 1.491 2.161 2.366 4.776 2.367 7.594h2.686l-4.299 6.45"/></g></g></svg>