<?xml version="1.0" encoding="UTF-8" standalone="no"?>
<svg width="31px" height="32px" viewBox="0 0 31 32" version="1.1" xmlns="http://www.w3.org/2000/svg" xmlns:xlink="http://www.w3.org/1999/xlink" xmlns:sketch="http://www.bohemiancoding.com/sketch/ns">
    <!-- Generator: Sketch 3.0.4 (8053) - http://www.bohemiancoding.com/sketch -->
    <title>linked-in_white</title>
    <desc>Created with Sketch.</desc>
    <defs></defs>
    <g id="Social" stroke="none" stroke-width="1" fill="none" fill-rule="evenodd" sketch:type="MSPage">
        <g id="linked-in_white" sketch:type="MSArtboardGroup" fill="#FFFFFF">
            <g id="Fill-5-+-Fill-4" sketch:type="MSLayerGroup" transform="translate(0.000000, 2.000000)">
                <path d="M10.7419359,9.88575923 L16.7055142,9.88575923 L16.7055142,12.617538 L16.7903063,12.617538 C17.6203758,11.0454894 19.648594,9.38709659 22.6727792,9.38709659 C28.9629136,9.38709659 30.1247782,13.528519 30.1247782,18.9158218 L30.1247782,29.8864 L23.9157492,29.8864 L23.9157492,20.1605381 C23.9157492,17.8397195 23.8701516,14.856475 20.6845317,14.856475 C17.4498216,14.856475 16.9563978,17.3833558 16.9563978,19.9921182 L16.9563978,29.8864 L10.7419359,29.8864 L10.7419359,9.88575923" id="Fill-5" sketch:type="MSShapeGroup"></path>
                <path d="M3.60317716,0 C5.59045452,0 7.20577223,1.61531771 7.20577223,3.60337119 C7.20577223,5.59355903 5.59045452,7.20887674 3.60317716,7.20887674 C1.61066094,7.20887674 0,5.59355903 0,3.60337119 C0,1.61531771 1.61066094,0 3.60317716,0 L3.60317716,0 Z M0.493423776,9.94337193 L6.71234845,9.94337193 L6.71234845,29.9440127 L0.493423776,29.9440127 L0.493423776,9.94337193 Z" id="Fill-4" sketch:type="MSShapeGroup"></path>
            </g>
        </g>
    </g>
</svg>