<svg viewBox="0 0 16 16" xmlns="http://www.w3.org/2000/svg"><defs><filter x="-8" y="-8" width="32" height="32" filterUnits="objectBoundingBox" id="0"><feOffset dx="0" dy=".3" in="SourceAlpha" result="shadowOffsetOuter1"/><feGaussianBlur stdDeviation=".5" in="shadowOffsetOuter1" result="shadowBlurOuter1"/><feColorMatrix values="0 0 0 0 0   0 0 0 0 0   0 0 0 0 0  0 0 0 0.21 0" in="shadowBlurOuter1" type="matrix" result="shadowMatrixOuter1"/><feMerge><feMergeNode in="shadowMatrixOuter1"/><feMergeNode in="SourceGraphic"/></feMerge></filter><filter x="-8" y="-8" width="32" height="32" filterUnits="objectBoundingBox" id="1"><feOffset dx="0" dy=".3" in="SourceAlpha" result="shadowOffsetOuter1"/><feGaussianBlur stdDeviation=".5" in="shadowOffsetOuter1" result="shadowBlurOuter1"/><feColorMatrix values="0 0 0 0 0   0 0 0 0 0   0 0 0 0 0  0 0 0 0.21 0" in="shadowBlurOuter1" type="matrix" result="shadowMatrixOuter1"/><feMerge><feMergeNode in="shadowMatrixOuter1"/><feMergeNode in="SourceGraphic"/></feMerge></filter><linearGradient y1="0%" x2="0" y2="100%" id="2"><stop stop-color="#f9782f" offset="0%"/><stop stop-color="#f76b1c" offset="100%"/></linearGradient></defs><g fill="none" fill-rule="evenodd"><rect stroke="#eb6417" stroke-width=".5" fill="url(#2)" width="16" height="16" rx="3"/><g transform="translate(3 3)" stroke="#fff" stroke-width=".8" fill="#fff"><path d="m.358 8.425c-.373-.705-.189-1.439.441-2.08.713-.727 1.432-1.446 2.158-2.159.92-.905 2.154-.804 2.935.226.093.124.165.245.043.381-.143.158-.281.096-.41-.028-.125-.122-.242-.254-.376-.365-.489-.409-1.203-.437-1.659-.003-.851.812-1.682 1.646-2.492 2.497-.397.417-.394 1.077-.051 1.542.141.19.311.363.487.521.555.498 1.257.501 1.799-.011.508-.48.993-.986 1.488-1.479.137-.137.289-.312.476-.111.18.192.009.342-.129.481-.494.495-.983.994-1.482 1.486-.341.336-.76.507-1.311.532-.893-.058-1.502-.641-1.919-1.428" filter="url(#1)"/><path d="m9.694 1.631c.319.785.117 1.46-.464 2.043-.742.743-1.476 1.494-2.228 2.225-.702.681-1.687.739-2.381.167-.15-.123-.327-.262-.164-.471.148-.188.303-.055.454.046.658.44 1.24.387 1.799-.168.711-.706 1.418-1.417 2.122-2.13.688-.698.665-1.39-.058-2.113-.714-.715-1.409-.727-2.115-.031-.453.446-.899.9-1.348 1.35-.135.137-.286.316-.477.123-.186-.187-.023-.346.115-.485.494-.496.988-.991 1.485-1.483.343-.34.763-.504 1.122-.528.879-.013 1.81.652 2.137 1.456" filter="url(#0)"/></g></g></svg>