<svg width="16" xmlns="http://www.w3.org/2000/svg" height="16" viewBox="0 0 16 16" xmlns:xlink="http://www.w3.org/1999/xlink" enable-background="new 0 0 16 16">
<path fill="#007bb5" d="m16,14c0,1.104-.896,2-2,2h-12c-1.104,0-2-.896-2-2v-12c0-1.104 .896-2 2-2h12c1.104,0 2,.896 2,2v12z"/>
<g fill="#fff">
<path d="m3.165,6.324h2.071v6.666h-2.071v-6.666zm1.037-3.314c.663,0 1.2,.538 1.2,1.202 0,.663-.537,1.2-1.2,1.2-.665,0-1.202-.537-1.202-1.2 0-.664 .537-1.202 1.202-1.202"/>
<path d="m6.539,6.324h1.988v.91h.027c.275-.522 .952-1.076 1.959-1.076 2.098,0 2.487,1.381 2.487,3.178v3.654h-2.07v-3.24c0-.774-.017-1.768-1.074-1.768-1.082,0-1.246,.842-1.246,1.713v3.295h-2.07v-6.666z"/>
</g>
</svg>
