<?xml version="1.0" encoding="UTF-8" standalone="no"?>
<svg width="12px" height="12px" viewBox="0 0 12 12" version="1.1" xmlns="http://www.w3.org/2000/svg" xmlns:xlink="http://www.w3.org/1999/xlink" xmlns:sketch="http://www.bohemiancoding.com/sketch/ns">
    <!-- Generator: Sketch 3.0.4 (8053) - http://www.bohemiancoding.com/sketch -->
    <title>link</title>
    <desc>Created with Sketch.</desc>
    <defs></defs>
    <g id="Page-1" stroke="none" stroke-width="1" fill="none" fill-rule="evenodd" sketch:type="MSPage">
        <g id="link" sketch:type="MSArtboardGroup" stroke="#A25CC6" stroke-width="0.4" fill="#A25CC6">
            <g id="Shape-+-Shape" sketch:type="MSLayerGroup">
                <path d="M2.73034722,11.8240336 C1.66032449,11.753901 0.929943807,11.054579 0.429998731,10.110294 C-0.0173469126,9.26419457 0.203069754,8.38403074 0.958998731,7.61407525 C1.81461616,6.74192658 2.67774778,5.8792959 3.54889456,5.02317752 C4.65348263,3.93712449 6.13327998,4.05835366 7.07055176,5.29469078 C7.18226294,5.44347203 7.26892676,5.58874665 7.12164835,5.75155442 C6.95032449,5.94091237 6.78401009,5.86727317 6.62921748,5.71749002 C6.47893339,5.57121351 6.33916919,5.41291427 6.17836521,5.27916143 C5.59125536,4.78873434 4.73513699,4.75466995 4.1881029,5.27515385 C3.16717297,6.24949571 2.16928661,7.25038775 1.19795044,8.27181862 C0.721048921,8.77276559 0.725056496,9.5642618 1.13733585,10.1223167 C1.30615498,10.3497467 1.5100404,10.5581406 1.72194097,10.7474985 C2.38769949,11.3446273 3.22979134,11.348134 3.88102241,10.7344739 C4.49117581,10.1588859 5.07277525,9.55123718 5.66689835,8.95961881 C5.83170991,8.79530821 6.01355366,8.58541143 6.2379779,8.82586597 C6.45438699,9.05680252 6.24849778,9.23614154 6.08368623,9.40295688 C5.49056502,9.99657904 4.90395612,10.5962126 4.30582544,11.1858271 C3.89655176,11.5890895 3.39410195,11.7939768 2.732351,11.8240336 L2.73034722,11.8240336 Z" id="Shape" sketch:type="MSShapeGroup"></path>
                <path d="M9.06832828,0.210579986 C10.1228216,0.194549683 11.2404343,0.992558206 11.6331768,1.95738207 C12.0159002,2.89966332 11.7739429,3.70919362 11.0766247,4.40951749 C10.185941,5.30120309 9.30577714,6.20290764 8.4030707,7.08006578 C7.5604779,7.89711029 6.37924494,7.96724287 5.54617013,7.28094552 C5.36633017,7.13316616 5.15392866,6.96685177 5.34879703,6.71537639 C5.52613225,6.48995025 5.71298547,6.64975233 5.89332638,6.76997961 C6.68331975,7.29747677 7.38163983,7.2338565 8.05190688,6.56859893 C8.90552051,5.72099665 9.75312278,4.86838491 10.5982203,4.01226654 C11.42328,3.17518415 11.3962288,2.34461408 10.5290896,1.47647298 C9.67247032,0.618851767 8.83839362,0.604324305 7.99129229,1.4394029 C7.44776483,1.97491521 6.91275347,2.51944457 6.37323358,3.05896446 C6.21092676,3.22277412 6.03058585,3.43768037 5.80115214,3.20624287 C5.57772979,2.98181862 5.77309911,2.79095783 5.9394135,2.62464343 C6.53253472,2.03001938 7.12515498,1.43489438 7.72178282,0.84477885 C8.13306028,0.437008017 8.63751388,0.240135858 9.06832828,0.210579986 L9.06832828,0.210579986 Z" id="Shape" sketch:type="MSShapeGroup"></path>
            </g>
        </g>
    </g>
</svg>