<?xml version="1.0" encoding="UTF-8" standalone="no"?>
<svg width="31px" height="32px" viewBox="0 0 31 32" version="1.1" xmlns="http://www.w3.org/2000/svg" xmlns:xlink="http://www.w3.org/1999/xlink" xmlns:sketch="http://www.bohemiancoding.com/sketch/ns">
    <!-- Generator: Sketch 3.0.4 (8053) - http://www.bohemiancoding.com/sketch -->
    <title>linkedin_gray</title>
    <desc>Created with Sketch.</desc>
    <defs></defs>
    <g id="Social" stroke="none" stroke-width="1" fill="none" fill-rule="evenodd" sketch:type="MSPage">
        <g id="linkedin_gray" sketch:type="MSArtboardGroup" fill="#A7A9AC">
            <path d="M10.7419359,11.8857592 L16.7055142,11.8857592 L16.7055142,14.617538 L16.7903063,14.617538 C17.6203758,13.0454894 19.648594,11.3870966 22.6727792,11.3870966 C28.9629136,11.3870966 30.1247782,15.528519 30.1247782,20.9158218 L30.1247782,31.8864 L23.9157492,31.8864 L23.9157492,22.1605381 C23.9157492,19.8397195 23.8701516,16.856475 20.6845317,16.856475 C17.4498216,16.856475 16.9563978,19.3833558 16.9563978,21.9921182 L16.9563978,31.8864 L10.7419359,31.8864 L10.7419359,11.8857592" id="Fill-5" sketch:type="MSShapeGroup"></path>
            <path d="M3.60317716,2 C5.59045452,2 7.20577223,3.61531771 7.20577223,5.60337119 C7.20577223,7.59355903 5.59045452,9.20887674 3.60317716,9.20887674 C1.61066094,9.20887674 0,7.59355903 0,5.60337119 C0,3.61531771 1.61066094,2 3.60317716,2 L3.60317716,2 Z M0.493423776,11.9433719 L6.71234845,11.9433719 L6.71234845,31.9440127 L0.493423776,31.9440127 L0.493423776,11.9433719 Z" id="Fill-4" sketch:type="MSShapeGroup"></path>
        </g>
    </g>
</svg>