<svg width="54" xmlns="http://www.w3.org/2000/svg" height="54" viewBox="0 0 54 54" xmlns:xlink="http://www.w3.org/1999/xlink" enable-background="new 0 0 54 54">
<circle fill="#007bb5" cx="27" cy="27" r="27"/>
<g fill="#fff">
<path d="m15.395,21.976h4.976v16.004h-4.976v-16.004zm2.489-7.957c1.589,0 2.881,1.292 2.881,2.884 0,1.592-1.292,2.884-2.881,2.884-1.596,0-2.884-1.292-2.884-2.884 0-1.591 1.288-2.884 2.884-2.884"/>
<path d="m23.491,21.976h4.772v2.187h.067c.664-1.258 2.288-2.584 4.705-2.584 5.036,0 5.965,3.313 5.965,7.624v8.778h-4.968v-7.781c0-1.858-.036-4.244-2.585-4.244-2.588,0-2.982,2.022-2.982,4.108v7.917h-4.973l-.001-16.005z"/>
</g>
</svg>
