<svg width="26" xmlns="http://www.w3.org/2000/svg" height="26" viewBox="0 0 26 26" xmlns:xlink="http://www.w3.org/1999/xlink" enable-background="new 0 0 26 26">
<g fill="#ffffff" stroke="#bcbec0" stroke-width="1.5" stroke-miterlimit="10">
<path d="m11.151,10.608c1.132,0 2.195,.441 2.997,1.243 .803,.801 1.243,1.863 1.243,2.997 0,1.136-.442,2.198-1.243,3.001l-3.332,3.331c-.799,.803-1.863,1.243-2.998,1.243s-2.2-.441-3-1.243c-.8-.8-1.241-1.865-1.241-2.999s.441-2.196 1.241-3l3.334-3.33c.801-.801 1.866-1.243 2.999-1.243m-.001-2.827c-1.808,0-3.618,.689-4.998,2.071l-3.333,3.331c-2.758,2.759-2.759,7.233 0,9.997 1.382,1.378 3.191,2.07 5,2.07 1.808,0 3.617-.692 4.997-2.07l3.333-3.332c2.759-2.758 2.761-7.234 0-9.993-1.382-1.383-3.19-2.074-4.999-2.074z"/>
<path d="m11.151,10.608c1.132,0 2.195,.441 2.997,1.243 .803,.801 1.243,1.863 1.243,2.997 0,.173-.01,.346-.028,.514-.115,.938-.536,1.807-1.214,2.487l-.299,.298-3.034,3.033c-.799,.804-1.863,1.244-2.998,1.244s-2.2-.441-3-1.244c-.8-.799-1.241-1.863-1.241-2.997 0-1.135 .441-2.197 1.241-3l3.334-3.332c.801-.801 1.866-1.243 2.999-1.243m-.001-2.827c-1.808,0-3.618,.689-4.998,2.071l-3.333,3.331c-2.758,2.759-2.759,7.233 0,9.997 1.382,1.378 3.191,2.07 5,2.07 1.808,0 3.617-.692 4.997-2.07l3.333-3.332c.653-.652 1.153-1.404 1.496-2.204 .517-1.202 .686-2.517 .502-3.791-.205-1.463-.871-2.874-1.998-3.998-1.382-1.383-3.19-2.074-4.999-2.074z"/>
<path stroke-linejoin="round" d="m18.184,3.575c1.131,0 2.196,.441 2.996,1.243 .804,.801 1.244,1.865 1.244,3 0,1.133-.442,2.198-1.244,2.997l-3.035,3.038 .002,.001c.184,1.273 .015,2.59-.503,3.791v-.001c.8-.344 1.551-.842 2.203-1.495l3.333-3.332c2.759-2.759 2.761-7.234 0-9.993-1.38-1.383-3.19-2.074-4.999-2.074-1.809,0-3.618,.69-4.997,2.071l-3.332,3.332c-.654,.651-1.153,1.401-1.496,2.202-.516,1.201-.683,2.516-.503,3.793 .207,1.462 .875,2.873 1.999,3.998 1.125,1.125 2.535,1.79 3.998,2l.299-.299c.678-.68 1.099-1.549 1.214-2.486-.168,.019-.339,.028-.513,.028-1.133,0-2.197-.44-2.999-1.242-.802-.801-1.242-1.866-1.242-3 0-1.132 .44-2.197 1.242-2.997l.297-.298 3.034-3.036c.803-.799 1.866-1.24 3.002-1.241"/>
</g>
</svg>
