<svg viewBox="0 0 28 35" xmlns="http://www.w3.org/2000/svg"><g fill="#fff" fill-rule="evenodd"><path d="m25.05 3.647c-2.195 2.544-5.308 5.83-8.877 8.497-1.778 1.325-3.677 2.497-5.579 3.281-1.899.79-3.813 1.162-5.454 1.068-.82-.042-1.572-.194-2.215-.397-.643-.207-1.19-.442-1.619-.689-.227-.107-.405-.232-.569-.336-.167-.097-.301-.193-.41-.276-.219-.153-.331-.236-.331-.236 0 0 .099.097.304.277.096.092.219.206.369.326.162.114.328.264.541.409.402.301.935.615 1.578.908.642.298 1.408.554 2.279.707 1.727.313 3.832.166 5.951-.422 2.129-.59 4.279-1.574 6.312-2.745 3.888-2.232 7.376-5.08 9.933-7.399.121-.11.24-.218.357-.326.131-.115.26-.233.376-.344v-5.949c-.11.14-.225.311-.376.493-.602.777-1.477 1.872-2.57 3.154"/><path d="m25.692 12.472c-2.189 2.555-5.31 5.838-8.876 8.512-1.78 1.33-3.678 2.488-5.58 3.271-1.898.791-3.813 1.172-5.453 1.068-.82-.042-1.572-.181-2.214-.388-.643-.215-1.189-.45-1.627-.693-.219-.111-.397-.236-.561-.34-.168-.097-.3-.194-.41-.266-.219-.16-.333-.242-.333-.242 0 0 .101.094.306.273.096.096.219.207.37.327.16.123.328.275.533.41.41.302.944.614 1.586.906.643.301 1.408.547 2.278.706 1.728.319 3.834.167 5.953-.423 2.127-.589 4.279-1.573 6.31-2.744 3.944-2.248 7.447-5.144 10.02-7.479v-5.693c-.58.73-1.36 1.7-2.304 2.795"/><path d="m25.965 21.303c-2.215 2.544-5.324 5.837-8.894 8.503-1.787 1.327-3.678 2.491-5.588 3.282-1.89.79-3.801 1.16-5.442 1.068-.82-.053-1.572-.191-2.214-.398-.643-.217-1.194-.448-1.627-.695-.219-.111-.4-.234-.566-.333-.172-.094-.299-.199-.407-.273-.217-.159-.34-.242-.34-.242 0 0 .11.097.309.284.1.086.221.204.374.319.151.12.326.271.533.409.41.3.942.614 1.584.915.644.297 1.41.548 2.271.698 1.736.315 3.838.166 5.96-.425 2.12-.586 4.276-1.57 6.304-2.735 3.809-2.187 7.209-4.964 9.772-7.251v-5.613c-.545.695-1.233 1.543-2.03 2.487"/></g></svg>