<svg viewBox="0 0 32 40" xmlns="http://www.w3.org/2000/svg"><g fill="#a25cc6" fill-rule="evenodd"><path d="m28.628 4.168c-2.508 2.908-6.066 6.663-10.145 9.711-2.032 1.515-4.203 2.854-6.376 3.749-2.17.903-4.358 1.328-6.233 1.22-.937-.048-1.797-.221-2.531-.453-.734-.236-1.36-.505-1.85-.788-.26-.122-.462-.265-.65-.384-.191-.11-.344-.22-.469-.315-.25-.174-.379-.27-.379-.27 0 0 .113.111.348.317.109.105.25.235.422.372.185.131.375.301.619.468.46.344 1.069.703 1.804 1.038.734.341 1.609.634 2.604.808 1.974.358 4.38.19 6.802-.483 2.433-.674 4.89-1.798 7.213-3.138 4.444-2.551 8.43-5.806 11.352-8.456.138-.126.274-.25.408-.372.15-.132.297-.266.43-.393v-6.798c-.126.16-.258.356-.43.563-.688.888-1.688 2.139-2.938 3.605"/><path d="m29.362 14.253c-2.502 2.92-6.069 6.672-10.144 9.728-2.034 1.52-4.204 2.844-6.378 3.739-2.17.904-4.357 1.339-6.232 1.22-.937-.048-1.796-.206-2.531-.444-.734-.246-1.359-.515-1.859-.792-.25-.127-.453-.27-.642-.388-.192-.111-.343-.222-.468-.304-.25-.183-.381-.277-.381-.277 0 0 .116.108.35.312.11.11.25.236.422.373.182.14.375.314.609.469.469.345 1.078.702 1.812 1.036.735.344 1.61.625 2.603.807 1.975.365 4.382.19 6.803-.483 2.431-.674 4.89-1.798 7.212-3.136 4.508-2.569 8.511-5.879 11.456-8.548v-6.507c-.663.835-1.554 1.942-2.633 3.194"/><path d="m29.675 24.346c-2.531 2.908-6.085 6.67-10.164 9.717-2.042 1.516-4.204 2.847-6.386 3.75-2.16.903-4.344 1.326-6.22 1.22-.937-.06-1.796-.218-2.53-.454-.734-.248-1.364-.512-1.859-.794-.25-.127-.457-.268-.647-.381-.197-.107-.342-.228-.465-.312-.248-.182-.388-.277-.388-.277 0 0 .125.111.354.324.115.098.253.234.428.365.172.137.372.309.61.467.468.343 1.077.702 1.81 1.046.736.34 1.612.626 2.596.798 1.984.36 4.387.189 6.811-.485 2.423-.67 4.887-1.794 7.204-3.125 4.353-2.5 8.238-5.673 11.168-8.287v-6.415c-.622.795-1.41 1.763-2.32 2.842"/></g></svg>