<svg width="20" xmlns="http://www.w3.org/2000/svg" height="20" viewBox="0 0 20 20" xmlns:xlink="http://www.w3.org/1999/xlink" enable-background="new 0 0 20 20">
<g fill="#808285">
<path d="m16.567,9.003l-3.272-3.287c-.393-.393-.393-1.029 0-1.422 .391-.393 1.023-.393 1.416,0l4.996,5.02c.392,.393 .392,1.031 0,1.422l-4.997,4.968c-.392,.395-1.024,.394-1.416,0-.392-.392-.392-1.029 .001-1.422l3.306-3.282h-11.601c-.552,0-1-.447-1-.999 0-.552 .448-1 1-1h11.565l.002,.002z"/>
<path d="M10,7.001V4c0-2.209-1.791-4-4-4H4C1.791,0,0,1.791,0,4v12c0,2.209,1.791,4,4,4h2c2.209,0,4-1.791,4-4  v-2.999H8V16c0,1.105-0.896,2-2,2H4c-1.104,0-2-0.895-2-2V4c0-1.104,0.896-2,2-2h2c1.104,0,2,0.896,2,2v3.001H10z"/>
</g>
</svg>
