<svg viewBox="0 0 80 48" xmlns="http://www.w3.org/2000/svg"><g fill="#17a99b" fill-rule="evenodd" transform="translate(13 5)"><path d="m20.12 19.16c0 1.369-.232 2.053-1.216 2.053-1.027 0-1.278-.622-1.278-1.865v-10.937h-7.899v12.843c0 2.234.533 4.074 1.782 5.52 1.248 1.445 2.791 2.168 4.718 2.168 1.304 0 2.613-.404 3.972-1.215-.749 2.863-2.432 4.294-4.956 4.294-.79 0-1.566-.224-2.813-.671 0 0-1.161-.379-2.745-1.286v6.672c0 0 1.557.972 2.745 1.422 1.455.558 2.899.838 4.341.838 3.287 0 6.05-1.271 8.369-3.813 1.942-2.137 2.879-4.944 2.879-8.421v-18.353h-7.898v10.749"/><path d="m9.68 26.977c-1.248-1.445-1.782-3.285-1.782-5.52v-12.843.001-8.631h-7.898v8.63 12.843c0 2.235.533 4.075 1.782 5.52 1.248 1.446 2.791 2.168 4.718 2.168.446 0 .909-.056 1.377-.16l.022.038v-.042c.891-.199 1.804-.577 2.683-1.121v-.012c-.315-.254-.617-.541-.901-.87"/><path d="m41.22-.067l.01.002c6.859.521 8.708 5.172 9.203 8.311h3.059v8.373h-3.206c0 1.465.251 2.759.771 3.387.52.63 1.219.895 2.851.895v8.233c-.327.014-.695.02-.889.02-1.762 0-3.416-.411-4.977-1.235-1.56-.825-2.819-1.941-3.761-3.352-1.193-1.802-1.804-4.19-1.804-7.165v-8.101l-.019-.129c-.192-.75-.915-.995-1.52-1.064-.061-.007-.12-.012-.178-.015-.017-.001-.034-.002-.05-.003-.054-.003-.108-.005-.158-.006-.002 0-.004 0-.006 0-.951.015-1.704.341-2.226.981-.534.657-.83 1.592-.83 2.807v.978h3.452v7.744h-3.452v3.02c0 0 .252 5.35-7.692 5.35l-.02-18.19c-.033-1.724.025-9.797 8.799-10.793 0 0 1.279-.148 2.643-.046"/></g></svg>