<?xml version="1.0" encoding="UTF-8" standalone="no"?>
<svg width="48px" height="55px" viewBox="0 0 48 55" version="1.1" xmlns="http://www.w3.org/2000/svg" xmlns:xlink="http://www.w3.org/1999/xlink" xmlns:sketch="http://www.bohemiancoding.com/sketch/ns">
    <!-- Generator: Sketch 3.0.4 (8053) - http://www.bohemiancoding.com/sketch -->
    <title>marker</title>
    <desc>Created with Sketch.</desc>
    <defs>
        <linearGradient x1="50%" y1="0%" x2="50%" y2="100%" id="linearGradient-1">
            <stop stop-color="#A25CC6" offset="0%"></stop>
            <stop stop-color="#753B93" offset="100%"></stop>
        </linearGradient>
        <filter x="-50%" y="-50%" width="200%" height="200%" filterUnits="objectBoundingBox" id="filter-2">
            <feOffset dx="0" dy="0" in="SourceAlpha" result="shadowOffsetOuter1"></feOffset>
            <feGaussianBlur stdDeviation="2" in="shadowOffsetOuter1" result="shadowBlurOuter1"></feGaussianBlur>
            <feColorMatrix values="0 0 0 0 0   0 0 0 0 0   0 0 0 0 0  0 0 0 0.35 0" in="shadowBlurOuter1" type="matrix" result="shadowMatrixOuter1"></feColorMatrix>
            <feMerge>
                <feMergeNode in="shadowMatrixOuter1"></feMergeNode>
                <feMergeNode in="SourceGraphic"></feMergeNode>
            </feMerge>
        </filter>
    </defs>
    <g id="Icons" stroke="none" stroke-width="1" fill="none" fill-rule="evenodd" sketch:type="MSPage">
        <g id="marker" sketch:type="MSArtboardGroup">
            <path d="M6.35284753,4 C5.05340572,4 4,5.04934253 4,6.35284753 L4,41.6471525 C4,42.9465943 5.04934253,44 6.35284753,44 L41.6471525,44 C42.9465943,44 44,42.9506575 44,41.6471525 L44,6.35284753 C44,5.05340572 42.9506575,4 41.6471525,4 L6.35284753,4 Z M18,44 L30,44 L24,52 L18,44 Z" id="bg" fill="url(#linearGradient-1)" filter="url(#filter-2)" sketch:type="MSShapeGroup"></path>
            <path d="M31.8387402,11.8844063 C30.0566494,13.9401703 27.5288711,16.5952141 24.631375,18.7502453 C23.187458,19.8212563 21.645499,20.7681125 20.1012666,21.4010469 C18.5595918,22.0396375 17.0054131,22.3397016 15.6731787,22.263625 C15.0073457,22.2294047 14.3966436,22.1072297 13.8748896,21.9431984 C13.3531357,21.7760563 12.9089629,21.5860063 12.5605586,21.3860578 C12.376126,21.2998 12.2320469,21.1988359 12.0987666,21.114275 C11.9632129,21.0362188 11.8546562,20.9584453 11.765708,20.8914188 C11.5880957,20.7681125 11.4965898,20.7008031 11.4965898,20.7008031 C11.4965898,20.7008031 11.5767285,20.7791422 11.743542,20.9247906 C11.821123,20.9991703 11.9211543,21.0910844 12.0430674,21.1880891 C12.1743584,21.2805688 12.3096279,21.4010469 12.4826934,21.5186969 C12.8092158,21.7616328 13.2420215,22.0158813 13.7640596,22.2523125 C14.2855293,22.4932688 14.9073145,22.7002875 15.6143535,22.8235938 C17.0164961,23.0767109 18.7258369,22.9579297 20.4465449,22.4822391 C22.17521,22.0057 23.9209258,21.2107141 25.5711572,20.2638578 C28.7283325,18.460105 31.560131,16.1587758 33.6359293,14.2851578 C33.7342494,14.196414 33.8308735,14.1086296 33.9257559,14.0219031 C34.0320391,13.9288578 34.1366172,13.8338328 34.2309648,13.7441813 L34.2309648,8.9375 C34.1417324,9.05034219 34.0479531,9.18892031 33.9257559,9.3357 C33.437251,9.96326094 32.7268018,10.8481812 31.8387402,11.8844063 Z" id="Fill-1" fill="#FFFFFF" sketch:type="MSShapeGroup"></path>
            <path d="M32.3604941,19.0149578 C30.5832344,21.0797719 28.0489199,23.7325531 25.1534131,25.8932406 C23.7080752,26.9676453 22.1669688,27.9037547 20.6224521,28.5366891 C19.0810615,29.1755625 17.5268828,29.4835453 16.1946484,29.39955 C15.5288154,29.3658953 14.9183975,29.2536188 14.3966436,29.0859109 C13.8748896,28.9119813 13.431001,28.7219313 13.0757764,28.5259422 C12.8981641,28.4360078 12.7538008,28.3353266 12.6199521,28.2513313 C12.4838301,28.1729922 12.376126,28.0943703 12.2871777,28.0363938 C12.1095654,27.9068656 12.0166387,27.8406875 12.0166387,27.8406875 C12.0166387,27.8406875 12.0987666,27.9167641 12.2650117,28.0615641 C12.3431611,28.1393375 12.4429082,28.2287063 12.5651055,28.3254281 C12.6946914,28.4246953 12.8313818,28.5474359 12.9979111,28.6568844 C13.3309697,28.9009516 13.7640596,29.1529375 14.2855293,29.3890859 C14.8075674,29.6323047 15.4290684,29.8308391 16.1349707,29.9595188 C17.53825,30.2174438 19.247875,30.0941375 20.9682988,29.6178813 C22.695543,29.141625 24.4426797,28.3469219 26.0917744,27.4006313 C29.2944795,25.5841266 32.1385498,23.2438531 34.2309648,21.3572109 L34.2309648,16.7567 C33.7600791,17.3469297 33.1266426,18.1300375 32.3604941,19.0149578" id="Fill-2" fill="#FFFFFF" sketch:type="MSShapeGroup"></path>
            <path d="M32.5824385,26.1508828 C30.7841494,28.2066469 28.2594971,30.8670641 25.3611484,33.0212469 C23.910127,34.0933891 22.3744199,35.0343063 20.8239355,35.6728969 C19.2893652,36.3112047 17.7380283,36.6101375 16.4052256,36.5357578 C15.7396768,36.4930531 15.1292588,36.3813422 14.6075049,36.2144828 C14.085751,36.0394219 13.638168,35.8522 13.2866377,35.6528172 C13.1090254,35.5631656 12.9618203,35.4633328 12.826835,35.3835797 C12.6870186,35.3077859 12.5841455,35.2226594 12.4966182,35.1629859 C12.3204268,35.0343063 12.2206797,34.9672797 12.2206797,34.9672797 C12.2206797,34.9672797 12.3096279,35.0456187 12.4718945,35.1966406 C12.5534541,35.2662125 12.6514961,35.3618031 12.7759668,35.4545656 C12.8981641,35.5515703 13.0405381,35.6731797 13.2090566,35.7848906 C13.5418311,36.0272609 13.9740684,36.2812266 14.4949697,36.5244453 C15.0175762,36.7648359 15.6399297,36.9673297 16.3392959,37.0886562 C17.7491113,37.3429047 19.4558945,37.2224266 21.1783076,36.7456047 C22.8998682,36.2721766 24.650415,35.4769078 26.296668,34.5359906 C29.3893955,32.7686953 32.1496328,30.5251437 34.2309648,28.6769641 L34.2309648,24.1415 C33.7887813,24.7034484 33.2295156,25.3881375 32.5824385,26.1508828" id="Fill-3" fill="#FFFFFF" sketch:type="MSShapeGroup"></path>
        </g>
    </g>
</svg>