<svg viewBox="0 0 48 55" xmlns="http://www.w3.org/2000/svg"><defs><filter x="-24" y="-27.5" width="96" height="110" filterUnits="objectBoundingBox" id="1"><feOffset dx="0" dy="0" in="SourceAlpha" result="shadowOffsetOuter1"/><feGaussianBlur stdDeviation="2" in="shadowOffsetOuter1" result="shadowBlurOuter1"/><feColorMatrix values="0 0 0 0 0   0 0 0 0 0   0 0 0 0 0  0 0 0 0.35 0" in="shadowBlurOuter1" type="matrix" result="shadowMatrixOuter1"/><feMerge><feMergeNode in="shadowMatrixOuter1"/><feMergeNode in="SourceGraphic"/></feMerge></filter><linearGradient y1="0%" x2="0" y2="100%" id="0"><stop stop-color="#a25cc6" offset="0%"/><stop stop-color="#753b93" offset="100%"/></linearGradient></defs><g fill="none" fill-rule="evenodd"><path d="m6.353 4c-1.299 0-2.353 1.049-2.353 2.353v35.29c0 1.299 1.049 2.353 2.353 2.353h35.29c1.299 0 2.353-1.049 2.353-2.353v-35.29c0-1.299-1.049-2.353-2.353-2.353h-35.29m11.647 40h12l-6 8-6-8" fill="url(#0)" filter="url(#1)"/><g transform="translate(11.5 8.938)" fill="#fff"><path d="m20.339 2.947c-1.782 2.056-4.31 4.711-7.207 6.866-1.444 1.071-2.986 2.02-4.53 2.651-1.542.639-3.096.939-4.428.863-.666-.034-1.277-.156-1.798-.32-.522-.167-.966-.357-1.314-.557-.184-.086-.329-.187-.462-.272-.136-.078-.244-.156-.333-.223-.178-.123-.269-.191-.269-.191 0 0 .08.078.247.224.078.074.178.166.3.263.131.092.267.213.44.331.327.243.759.497 1.281.734.521.241 1.143.448 1.85.571 1.402.253 3.111.134 4.832-.341 1.729-.477 3.474-1.272 5.125-2.218 3.157-1.804 5.989-4.105 8.06-5.979.098-.089.195-.177.29-.263.106-.093.211-.188.305-.278v-4.807c-.089.113-.183.251-.305.398-.489.628-1.199 1.512-2.087 2.549"/><path d="m20.86 10.08c-1.777 2.065-4.312 4.718-7.207 6.878-1.445 1.074-2.986 2.01-4.531 2.643-1.541.639-3.096.947-4.428.863-.666-.034-1.276-.146-1.798-.314-.522-.174-.966-.364-1.321-.56-.178-.09-.322-.191-.456-.275-.136-.078-.244-.157-.333-.215-.178-.13-.271-.196-.271-.196 0 0 .082.076.248.221.078.078.178.167.3.264.13.099.266.222.433.331.333.244.766.496 1.288.732.522.243 1.144.442 1.849.57 1.403.258 3.113.135 4.833-.342 1.727-.476 3.474-1.271 5.123-2.217 3.203-1.817 6.05-4.157 8.139-6.04v-4.601c-.471.59-1.104 1.373-1.87 2.258"/><path d="m21.08 17.213c-1.798 2.056-4.323 4.716-7.221 6.87-1.451 1.072-2.987 2.01-4.537 2.652-1.535.638-3.086.937-4.419.863-.666-.043-1.276-.154-1.798-.321-.522-.175-.969-.362-1.321-.562-.178-.09-.325-.189-.46-.269-.14-.076-.243-.161-.33-.221-.176-.129-.276-.196-.276-.196 0 0 .089.078.251.229.082.07.18.165.304.258.122.097.265.219.433.33.333.242.765.496 1.286.74.523.24 1.145.443 1.844.564 1.41.254 3.117.134 4.839-.343 1.722-.473 3.472-1.269 5.118-2.21 3.093-1.767 5.853-4.01 7.934-5.859v-4.535c-.442.562-1 1.247-1.649 2.01"/></g></g></svg>