<svg viewBox="0 0 18 23" xmlns="http://www.w3.org/2000/svg"><defs><filter x="-9" y="-11.5" width="36" height="46" filterUnits="objectBoundingBox" id="0"><feOffset dx="0" dy="2" in="SourceAlpha" result="shadowOffsetOuter1"/><feGaussianBlur stdDeviation=".5" in="shadowOffsetOuter1" result="shadowBlurOuter1"/><feColorMatrix values="0 0 0 0 0   0 0 0 0 0   0 0 0 0 0  0 0 0 0.28 0" in="shadowBlurOuter1" type="matrix" result="shadowMatrixOuter1"/><feMerge><feMergeNode in="shadowMatrixOuter1"/><feMergeNode in="SourceGraphic"/></feMerge></filter><filter x="-9" y="-11.5" width="36" height="46" filterUnits="objectBoundingBox" id="1"><feOffset dx="0" dy="2" in="SourceAlpha" result="shadowOffsetOuter1"/><feGaussianBlur stdDeviation=".5" in="shadowOffsetOuter1" result="shadowBlurOuter1"/><feColorMatrix values="0 0 0 0 0   0 0 0 0 0   0 0 0 0 0  0 0 0 0.28 0" in="shadowBlurOuter1" type="matrix" result="shadowMatrixOuter1"/><feMerge><feMergeNode in="shadowMatrixOuter1"/><feMergeNode in="SourceGraphic"/></feMerge></filter><filter x="-9" y="-11.5" width="36" height="46" filterUnits="objectBoundingBox" id="2"><feOffset dx="0" dy="2" in="SourceAlpha" result="shadowOffsetOuter1"/><feGaussianBlur stdDeviation=".5" in="shadowOffsetOuter1" result="shadowBlurOuter1"/><feColorMatrix values="0 0 0 0 0   0 0 0 0 0   0 0 0 0 0  0 0 0 0.28 0" in="shadowBlurOuter1" type="matrix" result="shadowMatrixOuter1"/><feMerge><feMergeNode in="shadowMatrixOuter1"/><feMergeNode in="SourceGraphic"/></feMerge></filter></defs><g fill="#fff" fill-rule="evenodd" transform="translate(1)"><path d="m15.784.281c-.344.444-.844 1.069-1.469 1.802-1.256 1.454-3.034 3.332-5.072 4.854-1.016.758-2.1 1.428-3.188 1.875-1.084.452-2.179.665-3.115.61-.471-.024-.899-.11-1.267-.227-.366-.118-.68-.254-.925-.394-.13-.062-.23-.133-.325-.192-.096-.056-.172-.11-.233-.157-.125-.087-.19-.134-.19-.134 0 0 .057.056.174.159l.211.185c.094.065.187.15.308.234.231.172.536.352.903.519.367.171.804.316 1.302.403.988.18 2.19.096 3.403-.24 1.217-.338 2.444-.9 3.606-1.569 2.325-1.337 4.402-3.059 5.879-4.416l.215-.195v-3.398c-.065.08-.131.177-.217.281" filter="url(#0)"/><path d="m14.684 7.127c-1.252 1.46-3.036 3.336-5.073 4.863-1.018.761-2.101 1.422-3.188 1.869-1.086.452-2.179.67-3.116.61-.47-.024-.899-.103-1.266-.221-.368-.123-.682-.259-.932-.396-.125-.064-.226-.135-.319-.194-.097-.056-.172-.112-.233-.153-.127-.091-.192-.138-.192-.138 0 0 .059.053.177.156l.21.186c.092.07.188.157.305.234.235.174.539.352.906.519.367.173.805.311 1.303.404.986.182 2.189.094 3.402-.242 1.216-.338 2.443-.899 3.603-1.567 2.256-1.286 4.256-2.94 5.73-4.274v-3.254c-.333.418-.778.971-1.317 1.598" filter="url(#1)"/><path d="m9.757 17.03c-1.021.758-2.101 1.423-3.193 1.874-1.08.45-2.171.663-3.11.611-.468-.032-.897-.111-1.264-.228-.368-.124-.683-.258-.931-.397-.126-.064-.23-.135-.323-.19-.099-.055-.17-.114-.232-.155-.124-.092-.194-.14-.194-.14 0 0 .062.056.178.162l.212.183c.086.069.187.154.306.231.234.173.538.352.903.523.37.173.808.313 1.299.4.992.18 2.194.095 3.407-.242 1.21-.335 2.442-.897 3.602-1.561 2.177-1.25 4.118-2.838 5.583-4.146v-3.207c-.312.397-.705.883-1.161 1.422-1.266 1.454-3.043 3.336-5.082 4.86" filter="url(#2)"/></g></svg>