<svg xmlns="http://www.w3.org/2000/svg"
     xmlns:xlink="http://www.w3.org/1999/xlink"
     width="24"
     height="20"
     viewBox="0 0 24 20" >
  <g fill="#a361bd">
    <path d="m24,3c0,.552-.448,1-1,1h-22c-.552,0-1-.448-1-1v-2c0-.552 .448-1 1-1h22c.552,0 1,.448 1,1v2z"/>
    <path d="m24,11c0,.553-.448,1-1,1h-22c-.552,0-1-.447-1-1v-2c0-.552 .448-1 1-1h22c.552,0 1,.448 1,1v2z"/>
    <path d="m24,19c0,.553-.448,1-1,1h-22c-.552,0-1-.447-1-1v-2c0-.553 .448-1 1-1h22c.552,0 1,.447 1,1v2z"/>
  </g>
</svg>
