<svg width="120" xmlns="http://www.w3.org/2000/svg" height="120" viewBox="0 0 120 120" xmlns:xlink="http://www.w3.org/1999/xlink" enable-background="new 0 0 120 120">
<circle fill="#fff" cx="60" cy="60" r="59"/>
<g stroke-miterlimit="10">
<g fill="none" stroke="#ddd">
<path d="m92.618,109.166-.5,0"/>
<path stroke-dasharray="0.9883,0.9883" d="m91.13,109.166-62.756,0"/>
<path d="m27.88,109.166-.5,0"/>
<path d="m118.18,50.167-.5,0"/>
<path stroke-dasharray="1.0031,1.0031" d="m116.677,50.167-113.856,0"/>
<path d="m2.319,50.167-.5,0"/>
<path d="m115.64,79.666-.5,0"/>
<path stroke-dasharray="1.0079,1.0079" d="m114.132,79.666-108.348,0"/>
<path d="m5.28,79.666-.5,0"/>
<path d="m103.971,20.667-.5,0"/>
<path stroke-dasharray="1.0052,1.0052" d="m102.466,20.667-85.949,0"/>
<path d="m16.015,20.667-.5,0"/>
<path d="m107.924,94.416-95.849,0"/>
<path d="m107.924,94.416-95.849,0"/>
<path d="m83.607,5.917-47.213,0"/>
<path d="m118.797,64.916-117.797,0"/>
<path d="m113.237,35.417-106.464,0"/>
<path d="m16.094,20.227 0,79.18"/>
</g>
<path fill="#a2a4ff" stroke="#4446db" d="M119,60c0,8.774-1.915,17.1-5.352,24.584H16.094V35.417h97.593   C117.167,42.94,119,51.165,119,60z"/>
<circle fill="none" cx="60" cy="60" stroke="#808285" r="59" stroke-width="2"/>
</g>
<text transform="translate(22.4873 50.9189)"><tspan x="0" y="0" font-family="'Arial-BoldMT'" font-size="9.8333">6</tspan><tspan x="5.469" y="0" font-family="'ArialMT'" font-size="11.8"> - HOLD: Dinner</tspan>
</text>
</svg>
