<?xml version="1.0" encoding="utf-8"?>
<!-- Generator: Adobe Illustrator 16.0.4, SVG Export Plug-In . SVG Version: 6.00 Build 0)  -->
<!DOCTYPE svg PUBLIC "-//W3C//DTD SVG 1.1//EN" "http://www.w3.org/Graphics/SVG/1.1/DTD/svg11.dtd">
<svg version="1.1"
	 id="Layer_1" inkscape:version="0.48.2 r9819" sodipodi:docname="Outlook_logo.svg" xmlns:sodipodi="http://sodipodi.sourceforge.net/DTD/sodipodi-0.dtd" xmlns:dc="http://purl.org/dc/elements/1.1/" xmlns:rdf="http://www.w3.org/1999/02/22-rdf-syntax-ns#" xmlns:svg="http://www.w3.org/2000/svg" xmlns:cc="http://creativecommons.org/ns#" xmlns:inkscape="http://www.inkscape.org/namespaces/inkscape"
	 xmlns="http://www.w3.org/2000/svg" xmlns:xlink="http://www.w3.org/1999/xlink" x="0px" y="0px" width="103.173px"
	 height="104.313px" viewBox="0 0 103.173 104.313" enable-background="new 0 0 103.173 104.313" xml:space="preserve">
<sodipodi:namedview  id="namedview41" inkscape:current-layer="Layer_1" inkscape:window-maximized="1" inkscape:window-y="-8" inkscape:window-x="-8" fit-margin-bottom="0" fit-margin-right="0" inkscape:window-width="1600" inkscape:window-height="837" inkscape:pageshadow="2" inkscape:pageopacity="0" showgrid="false" guidetolerance="10" pagecolor="#ffffff" inkscape:cy="89.87632" inkscape:zoom="1" bordercolor="#666666" objecttolerance="10" gridtolerance="10" borderopacity="1" fit-margin-top="0" fit-margin-left="0" inkscape:cx="91.559">
	</sodipodi:namedview>
<path id="path3" inkscape:connector-curvature="0" fill="#0072C6" d="M64.566,22.116v20.404l7.131,4.49
	c0.188,0.055,0.595,0.059,0.783,0l30.689-20.69c0-2.449-2.284-4.204-3.573-4.204H64.566z"/>
<path id="path5" inkscape:connector-curvature="0" fill="#0072C6" d="M64.566,50.133l6.508,4.471c0.917,0.674,2.021,0,2.021,0
	c-1.101,0.674,30.078-20.037,30.078-20.037v37.501c0,4.083-2.613,5.795-5.552,5.795H64.562V50.133H64.566z"/>
<g id="g23" transform="matrix(3.9178712,0,0,3.9178712,-13.481395,-41.384474)">
	<path id="path25" inkscape:connector-curvature="0" fill="#0072C6" d="M11.321,20.958c-0.566,0-1.017,0.266-1.35,0.797
		c-0.333,0.531-0.5,1.234-0.5,2.109c0,0.888,0.167,1.59,0.5,2.106c0.333,0.517,0.77,0.774,1.31,0.774
		c0.557,0,0.999-0.251,1.325-0.753s0.49-1.199,0.49-2.09c0-0.929-0.158-1.652-0.475-2.169
		C12.304,21.216,11.871,20.958,11.321,20.958z"/>
	<path id="path27" inkscape:connector-curvature="0" fill="#0072C6" d="M3.441,13.563v20.375l15.5,3.25V10.563L3.441,13.563z
		 M13.813,27.195c-0.655,0.862-1.509,1.294-2.563,1.294c-1.027,0-1.863-0.418-2.51-1.253C8.094,26.4,7.77,25.312,7.77,23.97
		c0-1.417,0.328-2.563,0.985-3.438c0.657-0.875,1.527-1.313,2.61-1.313c1.023,0,1.851,0.418,2.482,1.256
		c0.632,0.838,0.948,1.942,0.948,3.313C14.796,25.197,14.468,26.333,13.813,27.195z"/>
</g>
</svg>
