<svg width="30" xmlns="http://www.w3.org/2000/svg" height="30" viewBox="-3 -3 30 30" xmlns:xlink="http://www.w3.org/1999/xlink" enable-background="new -3 -3 30 30">
<g fill="#0072c6">
<path d="m15.774,3.359v5.868l2.072,1.292c.057,.015 .174,.015 .228,0l8.924-5.951c0-.705-.663-1.208-1.037-1.208h-10.187v-.001z"/>
<path d="m15.774,11.417l1.893,1.287c.267,.192 .588,0 .588,0-.32,.192 8.745-5.765 8.745-5.765v10.784c0,1.174-.758,1.667-1.613,1.667h-9.612v-7.973z"/>
<g transform="matrix(3.91787 0 0 3.91787 -13.48139 -41.38447)">
<path d="m4.967,12.786c-.165,0-.296,.076-.393,.229-.096,.153-.145,.355-.145,.606 0,.255 .049,.457 .145,.606 .098,.149 .224,.223 .381,.223 .163,0 .29-.072 .385-.216 .095-.144 .142-.345 .142-.601 0-.267-.046-.475-.137-.624-.092-.148-.218-.223-.378-.223z"/>
<path d="m2.675,10.66v5.86l4.507,.935v-7.658l-4.507,.863zm3.017,3.92c-.19,.248-.439,.372-.745,.372-.299,0-.542-.12-.73-.36-.188-.24-.283-.554-.283-.939 0-.407 .095-.737 .286-.989 .191-.251 .444-.377 .759-.377 .298,0 .539,.12 .721,.361 .184,.241 .275,.559 .275,.952 .002,.406-.093,.732-.283,.98z"/>
</g>
</g>
</svg>
