<svg viewBox="0 0 120 120" xmlns="http://www.w3.org/2000/svg"><g fill="none" fill-rule="evenodd"><path d="m117.73 55.829l-9.498-9.677h-55.633c-4.757-8.462-13.683-14.174-23.932-14.15-15.268-.032-27.632 12.581-27.666 28.12.034 15.574 12.398 28.19 27.666 28.21 10.22-.017 19.13-5.711 23.891-14.15h11.19l8.864-8.948 6.781 6.85 6.51-6.575 6.689 6.752 6.781-6.844 6.781 6.844 11.575-11.683c1.672-1.76 1.715-2.994-.001-4.746m-101.18 11.687c-4.08-.038-7.362-3.391-7.324-7.49-.038-4.155 3.244-7.505 7.324-7.486 4.01-.021 7.295 3.331 7.325 7.486-.029 4.099-3.311 7.45-7.325 7.49" stroke="#a25cc6" stroke-width="2" fill="#e3cdee"/></g></svg>