<svg width="24" xmlns="http://www.w3.org/2000/svg" height="20" viewBox="0 0 24 20" xmlns:xlink="http://www.w3.org/1999/xlink" enable-background="new 0 0 24 20">
<g fill="#808285">
<path d="m14.908,10.875v1.713c.332,.135 .707,.291 1.129,.471 .42,.174 .859,.357 1.299,.541 .455,.182 .906,.375 1.365,.561 .459,.176 .893,.359 1.301,.52 .412,.16 .777,.309 1.113,.434 .33,.127 .598,.225 .807,.295 .424,.143 .781,.361 1.049,.666 .268,.295 .473,.6 .631,.91 .18,.365 .318,.742 .398,1.148v1.866h-24v-1.867c.093-.398 .23-.779 .414-1.145 .161-.311 .37-.615 .634-.914 .271-.303 .613-.521 1.036-.664 .22-.068 .504-.17 .848-.301 .353-.133 .744-.285 1.177-.455 .434-.172 .891-.352 1.366-.545 .475-.197 .951-.393 1.427-.594 .472-.189 .919-.381 1.338-.555 .422-.178 .793-.336 1.115-.471v-1.666c-.019-.08-.054-.198-.104-.359-.047-.163-.097-.325-.148-.495-.056-.19-.128-.403-.213-.627-.295-.528-.532-1.123-.71-1.797-.177-.668-.265-1.378-.265-2.131 0-.992 .112-1.825 .335-2.504 .22-.688 .522-1.243 .9-1.678 .382-.433 .827-.74 1.333-.937 .511-.199 1.061-.295 1.645-.295 .577,0 1.12,.096 1.628,.285 .51,.192 .959,.504 1.346,.926 .383,.428 .684,.984 .906,1.668 .225,.69 .33,1.53 .33,2.534 0,.73-.086,1.428-.252,2.089-.172,.657-.402,1.25-.697,1.78-.084,.237-.164,.471-.234,.687-.07,.184-.119,.365-.17,.532-.046,.175-.077,.299-.077,.374z"/>
<path d="m12.865,20"/>
</g>
</svg>
