<svg viewBox="0 0 24 24" xmlns="http://www.w3.org/2000/svg"><g fill="none" fill-rule="evenodd"><path d="m6.814 8.333c-.852.852-.026 2.062.906 3.215 1.33 1.648 2.863 3.105 4.195 4.189 2.01 1.638 3.061 2.362 3.879 1.549l2.087-2.1c.359-.354.935-.361 1.296-.002.002.002 4.552 4.535 4.552 4.535v.005c.342.347.379.922.002 1.301h-.002.002l-2.11 2.082c-.967 1-6.591 2.915-15.314-6.01-8.275-8.466-6.345-13.639-5.473-14.722l2.105-2.104c.356-.354.934-.365 1.294-.002.001.002 4.683 4.665 4.683 4.665v.006c.343.344.378.918 0 1.297v.005" fill="#9b9b9b"/></g></svg>