<svg width="20" xmlns="http://www.w3.org/2000/svg" height="20" viewBox="0 0 20 20" xmlns:xlink="http://www.w3.org/1999/xlink" enable-background="new 0 0 20 20">
<path fill="#808285" d="m5.678,6.943c-.71,.71-.022,1.718 .755,2.679 1.108,1.373 2.386,2.587 3.496,3.49 1.678,1.365 2.551,1.968 3.232,1.291l1.739-1.75c.299-.295 .779-.301 1.08-.002 .002,.002 3.793,3.779 3.793,3.779v.004c.285,.289 .316,.768 .002,1.084h-.002 .002l-1.758,1.735c-.806,.837-5.492,2.429-12.761-5.008-6.896-7.054-5.287-11.364-4.561-12.267l1.754-1.753c.297-.295 .778-.304 1.078-.002 .001,.002 3.902,3.887 3.902,3.887v.005c.286,.287 .315,.765 0,1.081v.004"/>
</svg>
