<svg width="24" xmlns="http://www.w3.org/2000/svg" height="24" viewBox="0 0 24 24" xmlns:xlink="http://www.w3.org/1999/xlink" enable-background="new 0 0 24 24">
<path class="radio-background" fill="#fff" d="M12,23C5.935,23,1,18.065,1,12S5.935,1,12,1s11,4.935,11,11S18.065,23,12,23z"/>
<path class="radio-outline" fill="#d1d3d4" d="m12,2c5.514,0 10,4.486 10,10 0,5.514-4.486,10-10,10-5.514,0-10-4.486-10-10 0-5.514 4.486-10 10-10m0-2c-6.627,0-12,5.373-12,12 0,6.627 5.373,12 12,12 6.627,0 12-5.373 12-12 0-6.627-5.373-12-12-12z"/>
<circle fill="#fff" cx="12" cy="12" r="5"/>
</svg>
