<svg width="24" xmlns="http://www.w3.org/2000/svg" height="24" viewBox="0 0 24 24" xmlns:xlink="http://www.w3.org/1999/xlink" enable-background="new 0 0 24 24">
<path class="radio-background" fill="#fff" d="m12,23c-6.065,0-11-4.936-11-11 0-6.065 4.935-11 11-11 6.064,0 11,4.935 11,11 0,6.064-4.936,11-11,11z"/>
<path class="radio-outline" fill="#d1d3d4" d="M12,1c6.064,0,11,4.934,11,11c0,6.064-4.936,11-11,11C5.934,23,1,18.064,1,12C1,5.934,5.934,1,12,1 M12,0  C5.373,0,0,5.373,0,12s5.373,12,12,12s12-5.373,12-12S18.627,0,12,0z"/>
<circle fill="#fff" cx="12" cy="12" r="5"/>
</svg>
