<?xml version="1.0" encoding="UTF-8" standalone="no"?>
<svg width="19px" height="16px" viewBox="0 0 19 16" version="1.1" xmlns="http://www.w3.org/2000/svg" xmlns:xlink="http://www.w3.org/1999/xlink" xmlns:sketch="http://www.bohemiancoding.com/sketch/ns">
    <!-- Generator: Sketch 3.0.4 (8053) - http://www.bohemiancoding.com/sketch -->
    <title>refresh</title>
    <desc>Created with Sketch.</desc>
    <defs></defs>
    <g id="Page-1" stroke="none" stroke-width="1" fill="none" fill-rule="evenodd" sketch:type="MSPage">
        <g id="refresh" sketch:type="MSArtboardGroup" fill="#A25CC6">
            <g id="Group" sketch:type="MSLayerGroup">
                <path d="M12.9516667,12.97728 C11.9047667,13.71776 10.6805333,14.0896 9.42843333,14.07232 C9.26313333,14.0704 9.09846667,14.06208 8.93633333,14.04736 C8.86983333,14.04096 8.80333333,14.03072 8.73683333,14.02176 C8.6089,14.00512 8.4816,13.9872 8.3562,13.96288 C8.27956667,13.94816 8.20483333,13.92832 8.12883333,13.9104 C8.00723333,13.8816 7.885,13.85216 7.76593333,13.81632 C7.7083,13.79904 7.65256667,13.77792 7.59556667,13.75872 C7.45813333,13.71264 7.32133333,13.66464 7.18833333,13.60832 C7.15793333,13.59552 7.1288,13.58144 7.09903333,13.568 C6.9426,13.49952 6.78933333,13.42592 6.6405,13.34528 C6.63416667,13.34144 6.6272,13.3376 6.62086667,13.33376 C6.11673333,13.05408 5.6563,12.70528 5.25223333,12.2976 C5.24526667,12.29056 5.23893333,12.28352 5.2326,12.27648 C5.1072,12.14912 4.9875,12.016 4.8735,11.87776 C4.8488,11.84832 4.82663333,11.81568 4.80256667,11.7856 C3.97923333,10.7456 3.48333333,9.42912 3.48333333,7.99744 L5.06666667,7.99744 L2.53333333,4.15744 L0,7.99744 L1.58333333,7.99744 C1.58333333,9.68064 2.10266667,11.24096 2.9849,12.53056 C2.9963,12.54848 3.00326667,12.56832 3.0153,12.5856 C3.1065,12.71744 3.20783333,12.83968 3.306,12.96512 C3.34273333,13.01184 3.37693333,13.06048 3.41493333,13.1072 C3.55996667,13.28384 3.7126,13.45024 3.8703,13.6128 C3.88486667,13.62816 3.8988,13.6448 3.914,13.65952 C4.44346667,14.1952 5.04133333,14.6464 5.6924,15.00672 C5.71013333,15.01696 5.72723333,15.0272 5.74496667,15.0368 C5.93243333,15.13856 6.12496667,15.23136 6.3213,15.31776 C6.37006667,15.33888 6.41756667,15.36192 6.46633333,15.38368 C6.63416667,15.45344 6.80516667,15.51488 6.97806667,15.57312 C7.05976667,15.60128 7.14083333,15.63072 7.2238,15.65568 C7.37516667,15.70112 7.5297,15.73952 7.6855,15.776 C7.78936667,15.80032 7.89196667,15.82656 7.9971,15.84704 C8.04016667,15.856 8.08196667,15.8688 8.12503333,15.87648 C8.27196667,15.90272 8.4189,15.9168 8.56583333,15.93536 C8.61903333,15.94176 8.67096667,15.95072 8.72416667,15.95648 C8.9889,15.98336 9.25236667,16 9.5152,16 C11.1245,16 12.6945333,15.50336 14.041,14.54912 C14.4716667,14.24448 14.5761667,13.64672 14.2747,13.2128 C13.9732333,12.7776 13.3804333,12.67264 12.9516667,12.97728 L12.9516667,12.97728 Z" id="Shape" sketch:type="MSShapeGroup"></path>
                <path d="M17.4173,7.99744 C17.4166667,6.31936 16.9005,4.76224 16.0227,3.4752 C16.0100333,3.45344 16.0011667,3.43104 15.9866,3.41056 C15.8776667,3.25312 15.7586,3.10656 15.6401667,2.95936 C15.6262333,2.94144 15.6135667,2.92288 15.599,2.9056 C14.7959333,1.92 13.7870333,1.15904 12.6438667,0.66112 C12.6122,0.64704 12.5811667,0.63232 12.5501333,0.61888 C12.3677333,0.54208 12.1809,0.47488 11.9921667,0.41216 C11.9250333,0.38912 11.8579,0.3648 11.7895,0.34368 C11.6254667,0.29376 11.4595333,0.25344 11.2917,0.21376 C11.1992333,0.192 11.1067667,0.16832 11.0130333,0.14976 C10.9674333,0.1408 10.9231,0.12672 10.8775,0.1184 C10.7521,0.096 10.6267,0.0864 10.5013,0.0704 C10.4145333,0.05952 10.3296667,0.04544 10.2422667,0.03712 C10.032,0.01728 9.823,0.00896 9.614,0.00512 C9.57473333,0.00576 9.53926667,0 9.50063333,0 C9.49366667,0 9.48733333,0.00192 9.48036667,0.00256 C7.87296667,0.00384 6.3061,0.49408 4.9609,1.4464 C4.53086667,1.7504 4.42636667,2.3488 4.7272,2.78336 C5.0274,3.21792 5.6202,3.32352 6.05023333,3.01888 C7.0889,2.28352 8.30173333,1.91104 9.54496667,1.92256 C9.72293333,1.92384 9.90026667,1.9328 10.0738,1.94944 C10.127,1.95456 10.1802,1.96288 10.2334,1.96992 C10.3765333,1.9872 10.5184,2.00768 10.6577333,2.0352 C10.7198,2.048 10.7799667,2.06336 10.8407667,2.07744 C10.9782,2.1088 11.115,2.14272 11.2486333,2.18368 C11.2910667,2.19712 11.3328667,2.21248 11.3753,2.22656 C11.5279333,2.27712 11.6786667,2.33152 11.8262333,2.3936 C11.8414333,2.4 11.8566333,2.40704 11.8712,2.41408 C12.7559667,2.79936 13.5330667,3.39136 14.1391667,4.13248 C14.1429667,4.13696 14.1467667,4.14272 14.1505667,4.1472 C15.0036667,5.19616 15.5166667,6.53696 15.5173,7.99808 L13.9333333,7.99808 L16.4673,11.83808 L19,7.99808 L17.4173,7.99808 L17.4173,7.99744 Z" id="Shape" sketch:type="MSShapeGroup"></path>
            </g>
        </g>
    </g>
</svg>