<svg width="28" xmlns="http://www.w3.org/2000/svg" height="28" viewBox="0 0 28 28" xmlns:xlink="http://www.w3.org/1999/xlink" enable-background="new 0 0 28 28">
<g fill="none" stroke="#808285" stroke-width="1.5" stroke-miterlimit="10">
<circle cx="14" cy="15" r="12"/>
<path d="M7.71,17h6.791V7.857"/>
<path d="M6.063,24.011L2.073,28"/>
<path d="m25.926,28l-3.99-3.989"/>
</g>
<g fill="#808285">
<path d="m5.25,1.5c.477,0 .94,.088 1.371,.257l-4.864,4.864c-.169-.431-.257-.894-.257-1.371 0-1.001 .39-1.943 1.099-2.651 .708-.709 1.649-1.099 2.651-1.099m0-1.5c-1.344,0-2.688,.513-3.712,1.538-2.05,2.05-2.05,5.374-0,7.424l7.424-7.424c-1.025-1.025-2.369-1.538-3.712-1.538z"/>
<path d="m22.751,1.5c1.001,0 1.942,.39 2.651,1.098 .708,.709 1.098,1.651 1.098,2.652 0,.477-.088,.94-.257,1.371l-4.863-4.863c.431-.169 .893-.258 1.371-.258m0-1.5c-1.344,0-2.687,.513-3.712,1.538l7.424,7.424c2.051-2.05 2.051-5.375 0-7.424-1.025-1.025-2.368-1.538-3.712-1.538z"/>
</g>
</svg>
