<svg width="28" xmlns="http://www.w3.org/2000/svg" height="28" viewBox="0 0 28 28" xmlns:xlink="http://www.w3.org/1999/xlink" enable-background="new 0 0 28 28">
<circle fill="none" cx="14" cy="15" stroke="#808285" r="12" stroke-miterlimit="10"/>
<g fill="#808285">
<path d="m5.272,.9c.861,0 1.686,.248 2.39,.711l-6.051,6.05c-.464-.705-.711-1.529-.711-2.392 0-1.165 .455-2.262 1.282-3.086 .826-.827 1.922-1.283 3.09-1.283m0-.9c-1.35,0-2.697,.516-3.727,1.546-2.062,2.057-2.062,5.393 0,7.454l7.455-7.454c-1.03-1.03-2.378-1.546-3.728-1.546z"/>
<path d="m22.729,.9c1.167,0 2.265,.456 3.091,1.284 .826,.824 1.281,1.921 1.281,3.089 0,.862-.248,1.686-.71,2.389l-6.053-6.051c.704-.463 1.527-.711 2.391-.711m0-.9c-1.351,0-2.698,.516-3.729,1.546l7.454,7.454c2.061-2.059 2.061-5.396 0-7.454-1.029-1.03-2.377-1.546-3.725-1.546z"/>
</g>
<g fill="none" stroke="#808285" stroke-miterlimit="10">
<path d="M7.71,17h6.791V7.857"/>
<path d="M6.063,24.011L2.073,28"/>
<path d="m25.926,28l-3.99-3.989"/>
</g>
</svg>
