<svg width="28" xmlns="http://www.w3.org/2000/svg" height="28" viewBox="0 0 28 28" xmlns:xlink="http://www.w3.org/1999/xlink" enable-background="new 0 0 28 28">
<g class="clock" fill="none" stroke="#808285" stroke-width="1.5" stroke-miterlimit="10">
<circle cx="14" cy="15" r="12"/>
<path d="M7.71,17h6.791V7.857"/>
<path d="M6.063,24.011L2.073,28"/>
<path d="m25.926,28l-3.99-3.989"/>
</g>
<g class="bells" fill="none">
<path d="m1.588,7.896c-1.258-1.765-1.096-4.239 .486-5.821 .855-.854 1.99-1.325 3.198-1.325 .954,0 1.863,.293 2.624,.838l-6.308,6.308z"/>
<path d="m20.104,1.588c.761-.544 1.67-.838 2.623-.838 1.208,0 2.344,.471 3.198,1.325s1.325,1.99 1.325,3.197c0,.954-.294,1.863-.838,2.624l-6.308-6.308z"/>
</g>
<g class="bells-outline" fill="#808285">
<path d="m5.272,1.5c.483,0 .952,.09 1.388,.263l-4.896,4.896c-.534-1.355-.253-2.96 .84-4.054 .713-.712 1.661-1.105 2.668-1.105m0-1.5c-1.349,0-2.699,.515-3.728,1.544-2.058,2.059-2.059,5.397 0,7.456l7.456-7.456c-1.029-1.029-2.379-1.544-3.728-1.544z"/>
<path d="m22.727,1.5c1.008,0 1.955,.393 2.668,1.105 .712,.713 1.105,1.66 1.105,2.667 0,.483-.091,.952-.263,1.388l-4.898-4.897c.435-.173 .905-.263 1.388-.263m0-1.5c-1.349,0-2.698,.515-3.728,1.544l7.456,7.456c2.06-2.059 2.06-5.396 0-7.455-1.029-1.03-2.379-1.545-3.728-1.545z"/>
</g>
</svg>
