<svg width="16" xmlns="http://www.w3.org/2000/svg" height="12" viewBox="0 0 16 12" xmlns:xlink="http://www.w3.org/1999/xlink" enable-background="new 0 0 16 12">
<path fill="#d1d3d4" d="m16,11.166c-.348-.578-.756-1.066-1.241-1.465-.479-.396-.992-.689-1.538-.957-.541-.266-1.1-.471-1.662-.621-.564-.148-.987-.263-1.5-.338-.515-.074-.977-.119-1.398-.135-.417-.013-.753-.025-1.009-.025v4.375l-7.652-6 7.652-6v3.953c1.008,.045 1.898,.182 2.677,.411 .773,.23 1.34,.519 1.923,.866 .584,.345 1.086,.734 1.5,1.166 .413,.434 .759,.869 1.035,1.311 .647,1.037 1.051,2.164 1.213,3.459z"/>
</svg>
