<svg width="16" xmlns="http://www.w3.org/2000/svg" height="16" viewBox="0 0 16 16" xmlns:xlink="http://www.w3.org/1999/xlink" enable-background="new 0 0 16 16">
<path fill="#f4e3d3" d="m8,15.5c-3.584,0-6.5-2.895-6.5-6.453 0-3.392 2.649-6.181 6.002-6.435l-.002-1.612c0-.192 .11-.368 .283-.451 .069-.033 .143-.049 .217-.049 .111,0 .222,.037 .312,.11l3.583,2.87c.118,.095 .188,.238 .188,.39s-.069,.295-.188,.39l-3.583,2.87c-.09,.073-.201,.11-.312,.11-.074,0-.148-.016-.217-.049-.173-.084-.283-.259-.283-.451l.002-1.563c-1.935,.245-3.435,1.887-3.435,3.87 0,2.15 1.765,3.9 3.935,3.9 2.17,0 3.935-1.75 3.935-3.9 0-.704 .576-1.276 1.284-1.276 .705,0 1.279,.573 1.279,1.276-0,3.558-2.916,6.453-6.5,6.453z"/>
<path fill="#f7941e" d="m8,1l3.583,2.87-3.583,2.87 .003-2.095h-.003c-2.442,0-4.433,1.976-4.433,4.401s1.992,4.4 4.435,4.4c2.443,0 4.435-1.975 4.435-4.4 0-.43 .353-.776 .784-.776 .433,.001 .779,.347 .779,.777 0,3.281-2.689,5.953-6,5.953-3.309,0-6-2.672-6-5.953s2.691-5.953 6-5.953h.003l-.003-2.094m0-1c-.147,0-.296,.033-.434,.099-.346,.167-.566,.518-.566,.902l.001,1.163c-3.389,.484-6.001,3.386-6.001,6.883 0,3.834 3.14,6.953 7,6.953 3.859,0 7-3.119 7-6.953 0-.979-.798-1.776-1.779-1.776-.983,0-1.784,.797-1.784,1.776 0,1.875-1.541,3.4-3.435,3.4-1.894,0-3.435-1.525-3.435-3.4 0-1.531 1.027-2.83 2.434-3.254l-.001,.946c0,.385 .22,.736 .566,.903 .139,.066 .287,.098 .434,.098 .223,0 .444-.075 .625-.22l3.583-2.871c.237-.189 .375-.477 .375-.78s-.138-.591-.375-.781l-3.583-2.87c-.181-.143-.402-.218-.625-.218z"/>
</svg>
