<svg width="22" xmlns="http://www.w3.org/2000/svg" height="20" viewBox="0 0 22 20" xmlns:xlink="http://www.w3.org/1999/xlink" enable-background="new 0 0 22 20">
<g fill="#808285">
<path d="m6.5,3.5c0,.276-.224,.5-.5,.5h-1c-.276,0-.5-.224-.5-.5v-3c0-.277 .224-.5 .5-.5h1c.276,0 .5,.224 .5,.5v3z"/>
<path d="m17.5,3.5c0,.276-.225,.5-.5,.5h-1c-.275,0-.5-.224-.5-.5v-3c0-.277 .225-.5 .5-.5h1c.275,0 .5,.224 .5,.5v3z"/>
<text font-family="'ProximaNova-Regular'" transform="translate(8.9663 16.502)" font-size="12">1</text>
<path d="m20,2h-1.5v1.5c0,.829-.671,1.5-1.5,1.5h-1c-.829,0-1.5-.671-1.5-1.5v-1.5h-7v1.5c0,.829-.671,1.5-1.5,1.5h-1c-.829,0-1.5-.671-1.5-1.5v-1.5h-1.5c-1.104,0-2,.896-2,2v14c0,1.104 .896,2 2,2h18c1.104,0 2-.896 2-2v-14c0-1.104-.896-2-2-2zm.5,15.25c0,.69-.56,1.25-1.25,1.25h-16.5c-.69,0-1.25-.56-1.25-1.25v-9.5c0-.69 .56-1.25 1.25-1.25h16.5c.69,0 1.25,.56 1.25,1.25v9.5z"/>
</g>
</svg>
