<svg width="20" xmlns="http://www.w3.org/2000/svg" height="20" viewBox="0 0 20 20" xmlns:xlink="http://www.w3.org/1999/xlink" enable-background="new 0 0 20 20">
<g fill="#808285">
<path d="m19.72,17.701c.371,.373 .375,.975-.001,1.348l-.673,.674c-.371,.371-.973,.371-1.348-.002l-4.498-4.5c-.373-.371-.373-.975 0-1.348l.672-.672c.375-.373 .979-.373 1.35,0l4.498,4.5z"/>
<path d="m7.619,0c-4.208,0-7.619,3.41-7.619,7.619 0,4.208 3.411,7.62 7.619,7.62 4.208,0 7.619-3.412 7.619-7.62-.001-4.209-3.411-7.619-7.619-7.619zm0,12.381c-2.629,0-4.761-2.131-4.761-4.762 0-2.629 2.132-4.76 4.761-4.76 2.63,0 4.763,2.131 4.763,4.76 0,2.631-2.133,4.762-4.763,4.762z"/>
</g>
</svg>
