<?xml version="1.0" encoding="UTF-8" standalone="no"?>
<svg width="14px" height="14px" viewBox="0 0 14 14" version="1.1" xmlns="http://www.w3.org/2000/svg" xmlns:xlink="http://www.w3.org/1999/xlink" xmlns:sketch="http://www.bohemiancoding.com/sketch/ns">
    <!-- Generator: Sketch 3.0.4 (8053) - http://www.bohemiancoding.com/sketch -->
    <title>search</title>
    <desc>Created with Sketch.</desc>
    <defs></defs>
    <g id="Page-1" stroke="none" stroke-width="1" fill="none" fill-rule="evenodd" sketch:type="MSPage">
        <g id="search" sketch:type="MSArtboardGroup" fill="#D1D3D4">
            <path d="M10.031,8.615 C10.641,7.729 11,6.657 11,5.5 C11,2.462 8.537,0 5.5,0 C2.463,0 0,2.462 0,5.5 C0,8.538 2.463,11 5.5,11 C6.658,11 7.731,10.641 8.617,10.03 L12.586,14 L14,12.587 L10.031,8.615 L10.031,8.615 Z M1.5,5.5 C1.5,3.291 3.291,1.5 5.5,1.5 C7.709,1.5 9.5,3.291 9.5,5.5 C9.5,7.709 7.709,9.5 5.5,9.5 C3.291,9.5 1.5,7.709 1.5,5.5 L1.5,5.5 Z" id="Imported-Layers" sketch:type="MSShapeGroup"></path>
        </g>
    </g>
</svg>