<svg width="20" xmlns="http://www.w3.org/2000/svg" height="20" viewBox="0 0 20 20" xmlns:xlink="http://www.w3.org/1999/xlink" enable-background="new 0 0 20 20">
<path fill="#808285" d="m19.232,8.46h-.924c-.42,0-.869-.329-.996-.734l-.533-1.288c-.197-.373-.117-.922 .184-1.224l.654-.653c.301-.3 .301-.79 0-1.088l-1.092-1.088c-.293-.298-.785-.298-1.086,0l-.652,.655c-.301,.3-.854,.381-1.225,.182l-1.285-.532c-.402-.125-.736-.574-.736-.998v-.922c0-.422-.348-.77-.77-.77h-1.54c-.422,0-.77,.348-.77,.77v.922c0,.424-.329,.873-.735,.998l-1.283,.53c-.377,.199-.925,.12-1.225-.181l-.656-.654c-.3-.298-.789-.298-1.086,0l-1.089,1.087c-.299,.299-.299,.789 0,1.088l.652,.654c.3,.3 .385,.851 .183,1.223l-.528,1.29c-.128,.405-.577,.735-.999,.735l-.926-.002c-.42,0-.769,.347-.769,.77v1.539c0,.422 .349,.769 .769,.769h.926c.422,0 .871,.334 .997,.734l.531,1.289c.197,.374 .118,.924-.183,1.223l-.655,.655c-.295,.3-.295,.789 0,1.089l1.093,1.086c.298,.299 .787,.299 1.086,0l.653-.653c.298-.298 .85-.379 1.222-.181l1.289,.531c.406,.128 .736,.577 .736,.998v.922c-.003,.422 .345,.769 .767,.769h1.538c.425,0 .771-.347 .771-.769v-.921c0-.421 .333-.869 .735-.996l1.289-.531c.373-.2 .924-.119 1.223,.182l.652,.652c.301,.299 .791,.299 1.086,0l1.09-1.088c.303-.3 .303-.789 0-1.089l-.654-.653c-.299-.297-.379-.851-.182-1.222l.533-1.29c.127-.401 .574-.733 .996-.733h.922c.426,0 .77-.347 .77-.77v-1.542c0-.423-.344-.77-.768-.77zm-5.382,1.539c0,2.125-1.721,3.846-3.848,3.846-2.123,0-3.848-1.721-3.848-3.846 0-2.125 1.725-3.846 3.848-3.846 2.127-.001 3.848,1.721 3.848,3.846z"/>
</svg>
