<svg viewBox="0 0 80 48" xmlns="http://www.w3.org/2000/svg"><g fill="none" fill-rule="evenodd" transform="translate(0 14)"><path d="m15.07-.01c-1.055 0-1.912.872-1.912 1.947 0 1.075.857 1.947 1.912 1.947 1.057 0 1.912-.872 1.912-1.947 0-1.075-.856-1.947-1.912-1.947" fill="#4d493c"/><g fill="#45443b"><path d="m6.851 8.452c-.569-.176-.936-.265-1.5-.46-1.44-.5-2.104-.961-2.025-2.354.114-2.02 1.712-2.342 3.03-2.35 1.56-.01 3.094.346 3.825.544.002 0 .005 0 .009-.001.039.011.08.018.123.018.215 0 .396-.139.466-.333h.001l.534-1.532c.001-.001.001-.002.001-.003l.012-.032c0 0-.001-.002-.001-.003.017-.05.027-.103.027-.159 0-.198-.112-.367-.274-.451-.007-.005-.013-.009-.02-.013-1.113-.49-2.66-.981-4.357-1.074-5.137-.282-6.703 2.828-6.703 5.079 0 2.848.86 4.838 4.619 6.01.758.235.943.284 1.698.528 1.801.581 2.275 1.749 2.237 2.6-.038.851-.51 2.239-2.95 2.239-2.01 0-3.438-.378-4.119-.605-.021-.007-.044-.011-.065-.013-.03-.006-.062-.01-.094-.01-.229 0-.421.159-.478.375l-.562 1.539c-.003.007-.004.013-.007.02l-.007.017v.002c-.017.052-.029.106-.029.164 0 .188.103.351.253.438.006.004.01.009.017.012 1.198.628 3.288 1.232 5.588 1.232 5.574 0 5.777-4.263 5.777-5.858 0-3.962-3.607-5.119-5.03-5.558"/><path d="m16.193 5.117h-2.239c-.274 0-.497.227-.497.507v13.42l.003.003c-.001.008-.003.016-.003.025 0 .279.223.506.497.506h2.239c.274 0 .497-.227.497-.506v-13.448c0-.279-.223-.507-.497-.507"/><path d="m27.06 15.223c0 .77-1.248 1.621-2.783 1.673-1.487.05-2.209-.336-2.209-2.083v-4.03c0-1.998.691-3.318 3.03-3.068.938.1 1.963.635 1.963 1.524v5.988m2.735-14.662h-2.239c-.271.004-.489.226-.491.501l-.005.006v4.521c0 0-1.075-.651-2.736-.785-4.276-.344-5.585 3.29-5.585 5.23v4.168c0 3.972 1.87 5.666 4.736 5.666 1.572 0 3.01-.726 3.585-1.292l.248.65c.003.008.006.016.009.024l.004.011.002.002c.081.17.25.289.448.289h2.024c.274 0 .497-.227.497-.507v-17.977c0-.28-.223-.506-.497-.506"/><path d="m56.26 15.196c-.002-.002-.003-.004-.003-.004l-1.636-.539h-.001c-.052-.018-.108-.03-.166-.03-.214 0-.395.139-.466.333-.685 1.47-1.301 1.943-2.674 1.943-1.892 0-2.503-1.163-2.503-2.574v-4.222c0-1.472 1.166-2.422 2.503-2.422 1.849 0 2.302 1.12 2.687 2.045 0 0 0 .002.001.003.001.002.002.004.003.006.001.003.004.006.006.009.078.173.25.294.449.294.051 0 .1-.01.146-.025.004.001.006.002.006.002l1.64-.526c0 0 .001-.002.004-.006.193-.07.332-.255.332-.475 0-.042-.006-.083-.016-.123-.001-.009-.001-.017-.003-.025-.813-2.694-2.429-4.072-5.395-4.072-4.06 0-5.703 3.01-5.703 5.564v3.842c0 3.618 2.05 5.676 5.703 5.676 3.746 0 4.977-2.586 5.406-4.054.001-.003.001-.007.001-.01.011-.042.018-.085.018-.129 0-.224-.143-.412-.341-.478"/><path d="m35.37 10.603c0-1.645.735-2.922 2.745-2.922 2.031 0 2.745 1.383 2.745 2.922h-5.49m2.789-5.817c-3.737 0-6 2.165-6 5.817v2.588c0 2.667.211 3.626 1.283 4.874.988 1.151 2.776 1.803 4.432 1.803 2.283 0 4.102-.501 5.076-.908 0 0 .002-.001.003-.002.184-.074.314-.256.314-.47 0-.05-.01-.098-.023-.144.001-.004.001-.006.001-.006l-.486-1.572c0 0-.003-.003-.007-.006-.068-.196-.251-.338-.468-.338-.039 0-.078.006-.114.014-.008.001-.015.001-.022.002-.979.267-1.901.464-3.35.464-2.378 0-3.429-.906-3.429-2.515v-1.195h7.971c.274 0 .497-.227.497-.506v-2.076c0-3.55-2.639-5.823-5.679-5.823"/><path d="m65.816 15.316c0 .515-.536 1.478-2.934 1.58-2.397.103-2.235-1.685-2.235-2.173 0-.488.059-1.767 2.499-1.767 1.583 0 2.67.313 2.67.487v1.873m3.232-5.419c0-1.35-.789-5.112-5.843-5.112-1.618 0-3.382.54-4.565.921-.005.002-.011.005-.016.008-.194.07-.333.255-.333.476 0 .056.011.109.028.16 0 .001-.001.003-.001.003l.517 1.626c0 0 .001.001.002.001.068.195.25.335.466.335.038 0 .075-.005.111-.014.008-.001.016-.001.023-.003 2.036-.635 2.738-.676 3.618-.63 2.833.148 2.76 1.627 2.76 3.314 0 0-1.129-.503-3.1-.592-3.464-.157-5.223 2.101-5.223 4.76 0 3.528 2.836 4.716 4.817 4.716 2.137 0 3.505-1.292 3.505-1.292l.251.657c.073.186.252.319.461.319.002 0 .003-.001.005-.001h2.02c.001 0 .003.001.005.001.256 0 .463-.197.491-.449.002-.007.002-.014.002-.02 0-.013.004-.025.004-.037v-.002c0-1.824-.001-7.998-.001-9.146"/><path d="m79.895 5.442c0-.221-.14-.407-.333-.476-.252-.067-.99-.203-1.912-.185-1.273.026-2.896.889-3.408 1.312l-.251-.657c-.073-.186-.252-.319-.462-.319-.002 0-2.028 0-2.028.001-.273.001-.494.228-.494.506v13.421c0 .28.223.507.497.507.002 0 .005-.001.008-.001 0 0 .001 0 .002 0h1.146c.063 0 .641.001 1.08 0h.002c.035 0 .068-.004.101-.011.228-.047.397-.251.397-.494v-.002-.001-7.755c0-2.074 1.114-3.654 4.544-3.477.001 0 .002-.001.002-.001.007.001.012.002.018.002.221 0 .406-.148.471-.351.003-.002.004-.004.004-.004l.593-1.863c0 0 0-.004 0-.01.013-.046.023-.094.023-.144"/></g></g></svg>