<svg width="18" xmlns="http://www.w3.org/2000/svg" height="18" viewBox="0 0 18 18" xmlns:xlink="http://www.w3.org/1999/xlink" enable-background="new 0 0 18 18">
<g fill="none" stroke="#808285" stroke-miterlimit="10">
<path d="m9.176,10.353v1.029c.191,.084 .411,.18 .657,.287 .244,.104 .499,.215 .759,.326 .262,.109 .525,.227 .793,.338 .265,.107 .52,.217 .756,.314 .239,.096 .455,.188 .648,.262 .191,.076 .347,.137 .468,.178 .248,.088 .458,.219 .612,.4 .153,.18 .274,.361 .367,.549 .104,.223 .186,.449 .23,.693v.77h-13.966v-.768c.054-.244 .134-.473 .24-.691 .094-.189 .215-.371 .37-.553 .155-.184 .356-.312 .602-.4 .126-.041 .293-.102 .493-.182 .205-.082 .433-.174 .685-.273 .252-.105 .516-.215 .793-.328 .277-.119 .553-.24 .83-.355 .274-.119 .535-.232 .779-.338 .246-.109 .462-.203 .649-.285v-1.006c-.01-.049-.031-.119-.06-.214-.028-.1-.057-.199-.085-.299-.031-.116-.073-.245-.124-.381-.172-.316-.309-.676-.412-1.084-.103-.4-.154-.83-.154-1.283 0-.598 .065-1.101 .194-1.511 .128-.416 .303-.75 .524-1.011 .223-.263 .48-.447 .774-.565 .298-.122 .62-.18 .959-.18 .336,0 .652,.058 .947,.172 .298,.116 .562,.305 .786,.56 .222,.257 .396,.593 .525,1.005 .129,.415 .192,.924 .192,1.529 0,.44-.051,.861-.147,1.26-.099,.397-.233,.756-.404,1.075-.051,.144-.097,.285-.139,.414-.041,.111-.067,.223-.098,.32-.026,.104-.043,.181-.043,.226z"/>
<path d="M11.5,5.751H18"/>
<path d="M14.75,2.501V9"/>
</g>
</svg>
