<svg width="18" xmlns="http://www.w3.org/2000/svg" height="18" viewBox="0 0 18 18" xmlns:xlink="http://www.w3.org/1999/xlink" enable-background="new 0 0 18 18">
<g fill="none" stroke="#808285" stroke-miterlimit="10">
<circle cx="9" cy="9.643" r="7.5"/>
<path d="M4.957,10.929h4.365V5.051"/>
<path d="M4.055,15.277L1.333,18"/>
<path d="m16.666,18l-2.72-2.72"/>
</g>
<g fill="#808285">
<path d="m3.222,1c.24,0 .475,.038 .697,.111l-2.808,2.806c-.073-.221-.111-.456-.111-.696 0-.593 .231-1.151 .651-1.57 .42-.421 .977-.651 1.571-.651m0-1c-.825,0-1.649,.314-2.278,.944-1.258,1.258-1.258,3.297 0,4.555l4.556-4.555c-.63-.63-1.454-.944-2.278-.944z"/>
<path d="m14.778,1c.594,0 1.151,.231 1.571,.65 .42,.42 .651,.978 .651,1.571 0,.241-.038,.475-.111,.697l-2.808-2.808c.223-.072 .457-.11 .697-.11m0-1c-.824,0-1.649,.314-2.278,.943l4.557,4.557c1.259-1.258 1.259-3.298 0-4.557-.629-.629-1.454-.943-2.279-.943z"/>
</g>
</svg>
