<svg width="18" xmlns="http://www.w3.org/2000/svg" height="18" viewBox="0 0 18 18" xmlns:xlink="http://www.w3.org/1999/xlink" enable-background="new 0 0 18 18">
<path fill="none" stroke="#808285" d="m4.908,2.691v-1.259c0-.522 .423-.945 .945-.945h10.702c.522,0 .945,.423 .945,.945v10.704c0,.521-.423,.944-.945,.944h-1.258m-2.204,2.204h1.26c.521,0 .944-.425 .944-.945v-1.259-9.444c0-.521-.423-.945-.944-.945h-9.445-1.26c-.521,0-.944,.424-.944,.945v1.258m10.389,.944c0-.521-.424-.944-.945-.944h-9.444-1.259c-.522,.001-.945,.423-.945,.944v10.705c0,.521 .423,.944 .945,.944h10.703c.521,0 .945-.423 .945-.944v-1.259-9.446z" stroke-miterlimit="10"/>
<text font-family="'ProximaNova-Regular'" fill="#808285" transform="translate(3.5649 14.5508)" font-size="10.0741">A</text>
</svg>
