<svg width="18" xmlns="http://www.w3.org/2000/svg" height="18" viewBox="0 0 18 18" xmlns:xlink="http://www.w3.org/1999/xlink" enable-background="new 0 0 18 18">
<g fill="none" stroke="#d1d3d4" stroke-miterlimit="10">
<path d="m0,14.645h18"/>
<path d="m0,11.751h18"/>
<path d="m0,8.86h18"/>
<path d="M9,5.966V18"/>
<path d="M6.107,5.966V18"/>
<path d="M3.214,5.966V18"/>
<path d="M14.786,5.966V18"/>
<path d="M11.892,5.966V18"/>
</g>
<path fill="#a7a9ac" d="m16.071,.963c.531,0 .965,.434 .965,.966v14.144c0,.53-.434,.963-.965,.963h-14.142c-.532,0-.965-.433-.965-.963v-14.144c0-.532 .433-.966 .965-.966h14.142m0-.963h-14.142c-1.066,0-1.929,.863-1.929,1.929v14.144c0,1.063 .863,1.927 1.929,1.927h14.142c1.066,0 1.929-.864 1.929-1.928v-14.143c0-1.066-.863-1.929-1.929-1.929z"/>
<path fill="#808285" d="M18,6.469H0v-4.54C0,0.863,0.863,0,1.929,0h14.142C17.137,0,18,0.863,18,1.929V6.469z"/>
</svg>
