<svg width="16" xmlns="http://www.w3.org/2000/svg" height="14" viewBox="0 0 16 14" xmlns:xlink="http://www.w3.org/1999/xlink" enable-background="new 0 0 16 14">
<g fill="#f7941e">
<path d="m1,13.5c-.179,0-.344-.096-.434-.251s-.088-.347 .002-.501l7-12c.09-.154 .254-.248 .432-.248s.342,.094 .432,.248l7,12c.091,.154 .091,.346 .002,.501s-.255,.251-.434,.251h-14z"/>
<path d="m8,1l7,12h-14l7-12m0-1c-.355,0-.685,.189-.864,.496l-7,12c-.18,.31-.182,.691-.003,1.002s.509,.502 .867,.502h14c.358,0 .688-.191 .867-.502s.177-.692-.003-1.002l-7-12c-.179-.307-.509-.496-.864-.496z"/>
</g>
<path fill="#fff" d="m6.889,11.492c0-.6 .516-1.115 1.127-1.115s1.115,.516 1.115,1.115c0,.611-.503,1.127-1.115,1.127s-1.127-.515-1.127-1.127zm.3-2.187l-.288-4.818h2.206l-.275,4.818h-1.643z"/>
</svg>
