<svg width="18" xmlns="http://www.w3.org/2000/svg" height="20" viewBox="0 0 18 20" xmlns:xlink="http://www.w3.org/1999/xlink" enable-background="new 0 0 18 20">
<g fill="#a7a9ac">
<path d="m4.455,6.065h9.09c-.08-.947-.459-1.666-1.32-1.899-.02-.003-.041-.013-.061-.019-.568-.16-.984-.354-.984-.979v-.976c0-1.207-.972-2.192-2.179-2.192-1.208,0-2.178,.981-2.178,2.192v.976c0,.619-.418,.813-.985,.975-.02,.004-.043,.019-.067,.022-.861,.234-1.226,.954-1.316,1.9zm4.546-4.527c.359-0 .653,.294 .653,.654 0,.364-.294,.654-.653,.654-.36,0-.653-.294-.653-.654s.293-.654 .653-.654z"/>
<path d="m16.703,1.792h-4.484v.687c0,.502 .412,.875 .899,.875h2.762c.315,0 .572,.271 .586,.593l.007,13.955c-.017,.303-.252,.549-.545,.572l-13.853,.006c-.294-.023-.527-.271-.546-.573l-.004-13.959c.013-.322 .278-.593 .591-.593h2.766c.488,0 .9-.374 .9-.875v-.688h-4.485c-.715,0-1.297,.622-1.297,1.355v15.527c0,.735 .582,1.326 1.297,1.326h7.037 8.369c.715,0 1.297-.591 1.297-1.325v-15.528c0-.733-.582-1.355-1.297-1.355z"/>
<path d="m3.566,8.272h5.303v1.5h-5.303v-1.5z"/>
<path d="m3.566,14.771h7.577v1.5h-7.577v-1.5z"/>
<path d="m3.566,11.521h9.847v1.5h-9.847v-1.5z"/>
</g>
</svg>
