<svg viewBox="0 0 100 56" xmlns="http://www.w3.org/2000/svg"><g fill="#e6e7e8" fill-rule="evenodd"><path d="m19.636 42.12c-1.309 1.745-2.096 3.881-2.096 6.236h-9.674l-7.866-1.991v-4.245h19.636"/><path d="m90.27 26.833l-5.555-16.667v-4.167h-17.408v36.12h-31.04c1.313 1.745 2.102 3.881 2.102 6.236h32.459c0-5.741 4.668-10.402 10.424-10.402 4.04 0 7.539 2.305 9.266 5.677.617 1.211 1.01 2.565 1.099 3.984.02.247.053.493.053.741h8.332v-17.355l-9.732-4.167m-18.05 0v-12.5h9.726l4.155 12.5h-13.881"/><path d="m27.962 40.725c-4.227 0-7.645 3.423-7.645 7.63 0 4.22 3.418 7.645 7.645 7.645 4.206 0 7.624-3.425 7.624-7.645 0-4.207-3.418-7.63-7.624-7.63m0 11.796c-2.313 0-4.188-1.86-4.188-4.166 0-2.293 1.875-4.168 4.188-4.168 2.286 0 4.161 1.875 4.161 4.168 0 2.306-1.875 4.166-4.161 4.166"/><path d="m81.25 40.725c-4.227 0-7.645 3.423-7.645 7.63 0 4.22 3.418 7.645 7.645 7.645 4.205 0 7.637-3.425 7.637-7.645 0-4.207-3.432-7.63-7.637-7.63m0 11.796c-2.305 0-4.168-1.86-4.168-4.166 0-2.293 1.863-4.168 4.168-4.168 2.297 0 4.166 1.875 4.166 4.168 0 2.306-1.869 4.166-4.166 4.166"/><path d="m0 0h63.66v39.17h-63.66v-39.17"/></g></svg>