<?xml version="1.0" encoding="UTF-8" standalone="no"?>
<svg width="30px" height="32px" viewBox="0 0 30 32" version="1.1" xmlns="http://www.w3.org/2000/svg" xmlns:xlink="http://www.w3.org/1999/xlink" xmlns:sketch="http://www.bohemiancoding.com/sketch/ns">
    <!-- Generator: Sketch 3.0.4 (8053) - http://www.bohemiancoding.com/sketch -->
    <title>twitter_white</title>
    <desc>Created with Sketch.</desc>
    <defs>
        <path id="path-1" d="M0.00656934307,-0.0191569507 L29.9332117,-0.0191569507 L29.9332117,23.8859193 L0.00656934307,23.8859193"></path>
    </defs>
    <g id="Social" stroke="none" stroke-width="1" fill="none" fill-rule="evenodd" sketch:type="MSPage">
        <g id="twitter_white" sketch:type="MSArtboardGroup" transform="translate(0.500000, 0.000000)">
            <g id="Twitter_logo_blue" sketch:type="MSLayerGroup" transform="translate(0.000000, 8.000000)">
                <mask id="mask-2" sketch:name="Clip 2" fill="white">
                    <use xlink:href="#path-1"></use>
                </mask>
                <g id="Clip-2"></g>
                <path d="M9.41386861,23.8923767 C5.94580292,23.8923767 2.71773723,22.8930942 0,21.1803767 C0.480437956,21.2361256 0.969306569,21.2646457 1.4649635,21.2646457 C4.34211679,21.2646457 6.99010949,20.2995874 9.09186131,18.6806099 C6.40456204,18.6318565 4.13660584,16.8866368 3.35518248,14.4883587 C3.73007299,14.558852 4.11481752,14.5966278 4.51051095,14.5966278 C5.07065693,14.5966278 5.61317518,14.5229058 6.12854015,14.3849327 C3.31905109,13.8304574 1.20229927,11.3906368 1.20229927,8.46586547 C1.20229927,8.44046637 1.20229927,8.41517489 1.20273723,8.38999103 C2.03080292,8.84211659 2.97766423,9.11365022 3.98441606,9.14496861 C2.33660584,8.06249327 1.25233577,6.21481614 1.25233577,4.12057399 C1.25233577,3.0143139 1.55518248,1.97736323 2.08379562,1.08581166 C5.11270073,4.73790135 9.63777372,7.14113004 14.7417153,7.39286099 C14.6370438,6.95106726 14.5826277,6.49033184 14.5826277,6.01721973 C14.5826277,2.68358744 17.3323358,-0.0191569507 20.7239781,-0.0191569507 C22.4902555,-0.0191569507 24.0862774,0.713973094 25.2065693,1.88717489 C26.6054015,1.61639462 27.919708,1.11400897 29.1062409,0.422313901 C28.6477007,1.8318565 27.6740146,3.01485202 26.4060219,3.76197309 C27.6482847,3.61603587 28.8318613,3.29155157 29.9332117,2.81144395 C29.109854,4.02199103 28.0686131,5.08520179 26.8688321,5.936287 C26.8806569,6.19512108 26.8865693,6.45546188 26.8865693,6.71720179 C26.8865693,14.6941345 20.709635,23.8923767 9.41386861,23.8923767" id="Fill-1" fill="#FFFFFF" sketch:type="MSShapeGroup" mask="url(#mask-2)"></path>
            </g>
        </g>
    </g>
</svg>