<svg viewBox="0 0 30 32" xmlns="http://www.w3.org/2000/svg" xmlns:xlink="http://www.w3.org/1999/xlink"><defs><path id="0" d="m.007-.019h29.927v23.905h-29.927"/><mask id="1" fill="#fff"><use xlink:href="#0"/></mask></defs><g fill="none" fill-rule="evenodd"><path d="m9.414 23.892c-3.468 0-6.696-.999-9.414-2.712.48.056.969.084 1.465.084 2.877 0 5.525-.965 7.627-2.584-2.687-.049-4.955-1.794-5.737-4.192.375.07.76.108 1.155.108.56 0 1.103-.074 1.618-.212-2.809-.554-4.926-2.994-4.926-5.919 0-.025 0-.051 0-.076.828.452 1.775.724 2.782.755-1.648-1.082-2.732-2.93-2.732-5.02 0-1.106.303-2.143.831-3.035 3.03 3.652 7.554 6.06 12.658 6.307-.105-.442-.159-.903-.159-1.376 0-3.334 2.75-6.04 6.141-6.04 1.766 0 3.362.733 4.483 1.906 1.399-.271 2.713-.773 3.9-1.465-.459 1.41-1.432 2.593-2.7 3.34 1.242-.146 2.426-.47 3.527-.951-.823 1.211-1.865 2.274-3.064 3.125.012.259.018.519.018.781 0 7.977-6.177 17.18-17.473 17.18" fill="#a25cc6" mask="url(#1)" transform="translate(.5 8)"/></g></svg>