<svg viewBox="0 0 80 48" xmlns="http://www.w3.org/2000/svg" xmlns:xlink="http://www.w3.org/1999/xlink"><defs><path id="0" d="m.009 0h79.883v10.991h-79.883"/><mask id="1" fill="#fff"><use xlink:href="#0"/></mask></defs><g fill="#bababd" fill-rule="evenodd" transform="translate(0 19)"><path d="m10.461.026v6.283c0 2.15-1.057 3.42-4.23 3.42-3.182 0-4.244-1.271-4.244-3.42v-4.417c-.041-1.047-.915-1.888-1.987-1.888v1.22c.389 0 .698.297.735.668v4.846c0 2.49 1.99 4.26 5.497 4.26 3.501 0 5.484-1.77 5.484-4.26v-6.712h-1.254" mask="url(#1)"/><path d="m46.892 9.551v-2.943c0-.405.35-.736.755-.744h5.464v-1.241h-5.482c-.265.008-.51.06-.737.156v-3.545h8.916v-1.234h-10.183v10.785h10.554v-1.234h-9.287" mask="url(#1)"/><path d="m69.5 5.402c-.265 0-.515.053-.747.146l-.011-4.384 6.884-.003c1.195 0 2.161.945 2.161 2.12 0 1.173-.966 2.125-2.161 2.125l-6.126-.004m9.626 4.224c-.302.238-.733.19-.995-.083l-2.403-2.995c1.795-.055 3.231-1.498 3.231-3.269 0-1.813-1.496-3.279-3.34-3.279h-8.135v10.785h1.257l.012-3.514c.013-.391.351-.718.759-.718l4.626.001 3.01 3.747c.692.802 1.906.936 2.75.285l-.77-.96" mask="url(#1)"/><path d="m31.18 9.626l-6.936-.007v-3.059c.005-.408.351-.755.763-.755l6.173-.001c1.076 0 1.944.854 1.944 1.905 0 1.062-.868 1.917-1.944 1.917m-6.936-8.462l6.968.008c.976 0 1.766.778 1.766 1.737 0 .955-.79 1.731-1.766 1.731h-6.309c-.23.016-.456.068-.659.153v-3.63m8.747 4.048c.708-.529 1.171-1.363 1.171-2.308 0-1.598-1.322-2.9-2.954-2.9l-8.22-.004v10.785h8.192c1.728 0 3.127-1.376 3.127-3.076 0-1.03-.521-1.939-1.316-2.497"/></g></svg>