<?xml version="1.0" encoding="UTF-8" standalone="no"?>
<svg width="24px" height="24px" viewBox="0 0 24 24" version="1.1" xmlns="http://www.w3.org/2000/svg" xmlns:xlink="http://www.w3.org/1999/xlink" xmlns:sketch="http://www.bohemiancoding.com/sketch/ns">
    <!-- Generator: Sketch 3.1.1 (8761) - http://www.bohemiancoding.com/sketch -->
    <title>video</title>
    <desc>Created with Sketch.</desc>
    <defs></defs>
    <g id="Page-1" stroke="none" stroke-width="1" fill="none" fill-rule="evenodd" sketch:type="MSPage">
        <g id="video" sketch:type="MSArtboardGroup" fill="#9B9B9B">
            <path d="M21,17 L18,14 L18,10 L21,7 C21,7.00000003 22.5,7.00000001 22.5,7.00000001 C23.3342028,7.00000001 24,7.67027497 24,8.49710104 L24,15.502899 C24,16.328344 23.3284271,17 22.5,17 L21,17 Z M1.99508929,5 C0.893231902,5 0,5.89706013 0,7.00585866 L0,16.9941413 C0,18.1019465 0.892622799,19 1.99508929,19 L16.0049107,19 C17.1067681,19 18,18.1029399 18,16.9941413 L18,7.00585866 C18,5.89805351 17.1073772,5 16.0049107,5 L1.99508929,5 Z" id="Rectangle-3" sketch:type="MSShapeGroup"></path>
        </g>
    </g>
</svg>