<?xml version="1.0" encoding="UTF-8" standalone="no"?>
<svg width="20px" height="16px" viewBox="0 0 20 16" version="1.1" xmlns="http://www.w3.org/2000/svg" xmlns:xlink="http://www.w3.org/1999/xlink" xmlns:sketch="http://www.bohemiancoding.com/sketch/ns">
    <!-- Generator: Sketch 3.0.4 (8053) - http://www.bohemiancoding.com/sketch -->
    <title>warning</title>
    <desc>Created with Sketch.</desc>
    <defs></defs>
    <g id="Page-1" stroke="none" stroke-width="1" fill="none" fill-rule="evenodd" sketch:type="MSPage">
        <g id="warning" sketch:type="MSArtboardGroup">
            <path d="M1,14.93 L9.93045455,1 L18.8600909,14.93 L1,14.93 Z" id="Shape" stroke="#F7941E" stroke-width="2" stroke-linejoin="round" fill="#F7941E" sketch:type="MSShapeGroup"></path>
            <path d="M10.7277125,11.4603522 L9.29868927,11.4603522 L9,5.82128906 L11.0264017,5.82128906 L10.7277125,11.4603522 Z M9,13.4343126 C9,13.1110893 9.08684492,12.8667516 9.26053737,12.7012921 C9.43422981,12.5358326 9.68704502,12.4531041 10.0189906,12.4531041 C10.3393567,12.4531041 10.5873471,12.5377565 10.7629695,12.7070639 C10.9385919,12.8763713 11.0264017,13.1187851 11.0264017,13.4343126 C11.0264017,13.7382963 10.9376269,13.9778243 10.7600747,14.1529035 C10.5825224,14.3279828 10.3354968,14.4155211 10.0189906,14.4155211 C9.69476469,14.4155211 9.44387936,14.3299067 9.26632709,14.1586753 C9.08877481,13.987444 9,13.7459921 9,13.4343126 L9,13.4343126 Z" id="!" fill="#FFFFFF" sketch:type="MSShapeGroup"></path>
        </g>
    </g>
</svg>