<svg viewBox="0 0 32 32" xmlns="http://www.w3.org/2000/svg"><g fill="#a7a9ac" fill-rule="evenodd"><path d="m3 11.5v15.496c0 1.107.895 2 1.997 2h22.01c1.103 0 1.997-.893 1.997-2v-15.496h-26m1-7.5c-2.211 0-4 1.794-4 3.997v20.01c0 2.207 1.789 3.997 4 3.997h23.991c2.211 0 4-1.794 4-3.997v-20.01c0-2.207-1.789-3.997-4-3.997h-23.991m2.496 5.5c.828 0 1.5-.672 1.5-1.5 0-.828-.672-1.5-1.5-1.5-.828 0-1.5.672-1.5 1.5 0 .828.672 1.5 1.5 1.5m6 0c.828 0 1.5-.672 1.5-1.5 0-.828-.672-1.5-1.5-1.5-.828 0-1.5.672-1.5 1.5 0 .828.672 1.5 1.5 1.5m6 0c.828 0 1.5-.672 1.5-1.5 0-.828-.672-1.5-1.5-1.5-.828 0-1.5.672-1.5 1.5 0 .828.672 1.5 1.5 1.5"/><path d="m6 14h20v3h-20z"/><path d="m6 19h20v3h-20z"/><path d="m6 24h11v3h-11z"/></g></svg>