<?xml version="1.0" encoding="UTF-8" standalone="no"?>
<svg width="32px" height="32px" viewBox="0 0 32 32" version="1.1" xmlns="http://www.w3.org/2000/svg" xmlns:xlink="http://www.w3.org/1999/xlink" xmlns:sketch="http://www.bohemiancoding.com/sketch/ns">
    <!-- Generator: Sketch 3.0.4 (8053) - http://www.bohemiancoding.com/sketch -->
    <title>website_gray</title>
    <desc>Created with Sketch.</desc>
    <defs></defs>
    <g id="Social" stroke="none" stroke-width="1" fill="none" fill-rule="evenodd" sketch:type="MSPage">
        <g id="website_gray" sketch:type="MSArtboardGroup" fill="#A7A9AC">
            <path d="M3,11.5 L3,26.9964032 C3,28.1029592 3.89497885,29 4.99700466,29 L27.0029953,29 C28.1059106,29 29,28.1074681 29,26.9964032 L29,11.5 L3,11.5 L3,11.5 Z M4.0042577,4 C1.79276724,4 0,5.79412025 0,7.99683887 L0,28.0031611 C0,30.2105543 1.78902751,32 4.0042577,32 L27.9957423,32 C30.2072328,32 32,30.2058797 32,28.0031611 L32,7.99683887 C32,5.78944571 30.2109725,4 27.9957423,4 L4.0042577,4 Z M6.5,9.5 C7.32842712,9.5 8,8.82842712 8,8 C8,7.17157288 7.32842712,6.5 6.5,6.5 C5.67157288,6.5 5,7.17157288 5,8 C5,8.82842712 5.67157288,9.5 6.5,9.5 Z M12.5,9.5 C13.3284271,9.5 14,8.82842712 14,8 C14,7.17157288 13.3284271,6.5 12.5,6.5 C11.6715729,6.5 11,7.17157288 11,8 C11,8.82842712 11.6715729,9.5 12.5,9.5 Z M18.5,9.5 C19.3284271,9.5 20,8.82842712 20,8 C20,7.17157288 19.3284271,6.5 18.5,6.5 C17.6715729,6.5 17,7.17157288 17,8 C17,8.82842712 17.6715729,9.5 18.5,9.5 Z" id="Rectangle-6" sketch:type="MSShapeGroup"></path>
            <rect id="Rectangle-2" sketch:type="MSShapeGroup" x="6" y="14" width="20" height="3"></rect>
            <rect id="Rectangle-3" sketch:type="MSShapeGroup" x="6" y="19" width="20" height="3"></rect>
            <rect id="Rectangle-4" sketch:type="MSShapeGroup" x="6" y="24" width="11" height="3"></rect>
        </g>
    </g>
</svg>