<svg width="24" xmlns="http://www.w3.org/2000/svg" height="18" viewBox="0 0 24 18" xmlns:xlink="http://www.w3.org/1999/xlink" enable-background="new 0 0 24 18">
<g fill="#d1d3d4">
<path d="m3.415,6h19.585c.553,0 1,.448 1,1 0,.552-.447,1-1,1h-22c-.552,0-1-.448-1-1l0,0 0,0c0-.256 .098-.513 .293-.708l6-6c.391-.391 1.024-.391 1.415,0 .391,.391 .391,1.024 0,1.415-.001,.001-4.293,4.293-4.293,4.293z"/>
<path d="m20.586,12h-19.586c-.553,0-1-.447-1-1 0-.552 .447-1 1-1h22c.552,0 1,.448 1,1l0,0 0,0c0,.256-.098,.512-.293,.707l-6,6c-.391,.391-1.023,.391-1.414,0-.391-.391-.391-1.023 0-1.414 0,0 4.292-4.293 4.293-4.293z"/>
</g>
</svg>
