<?xml version="1.0" encoding="UTF-8" standalone="no"?>
<svg width="24px" height="24px" viewBox="0 0 24 24" version="1.1" xmlns="http://www.w3.org/2000/svg" xmlns:xlink="http://www.w3.org/1999/xlink" xmlns:sketch="http://www.bohemiancoding.com/sketch/ns">
    <!-- Generator: Sketch 3.1.1 (8761) - http://www.bohemiancoding.com/sketch -->
    <title>workplace</title>
    <desc>Created with Sketch.</desc>
    <defs></defs>
    <g id="Page-1" stroke="none" stroke-width="1" fill="none" fill-rule="evenodd" sketch:type="MSPage">
        <g id="workplace" sketch:type="MSArtboardGroup" fill="#9B9B9B">
            <path d="M17,22 L7,22 L7,7 L17,7 L17,22 Z M19,22 L21.0081969,22 C21.5559546,22 22,21.5510798 22,20.992516 L22,8.00748397 C22,7.45106594 21.5446944,7 21.0081969,7 L19,7 L19,22 Z M5,22 L2.99180311,22 C2.45530558,22 2,21.5489341 2,20.992516 L2,8.00748397 C2,7.44892021 2.44404538,7 2.99180311,7 L5,7 L5,22 L5,22 Z M8.00000001,5 L6,5 C6,5 6,2.0048815 6,2.0048815 C6,0.893899798 6.8992496,0 8.0085302,0 L15.9914698,0 C17.0980496,0 18,0.897616023 18,2.0048815 C18,2.0048815 18,5 18,5 L8.00000001,5 C8.00000004,4.99990961 8.00000001,2.99895656 8.00000001,2.99895656 C8.00000001,2.44266033 8.4463856,2 8.99703014,2 L15.0029699,2 C15.5469637,2 16,2.44724809 16,2.99895656 L16,5 C16,5 7.99999996,5 8,5 L8.00000001,5 Z M2.00494659,5 C0.897645164,5 8.8817842e-16,5.89092539 8.8817842e-16,6.99742191 L8.8817842e-16,22.0025781 C8.8817842e-16,23.1057238 0.897026226,24 2.00494659,24 L21.9950534,24 C23.1023548,24 24,23.1090746 24,22.0025781 L24,6.99742191 C24,5.89427625 23.1029738,5 21.9950534,5 L2.00494659,5 Z" id="Rectangle-7" sketch:type="MSShapeGroup"></path>
        </g>
    </g>
</svg>