<svg width="16" xmlns="http://www.w3.org/2000/svg" height="16" viewBox="0 0 16 16" xmlns:xlink="http://www.w3.org/1999/xlink" enable-background="new 0 0 16 16">
<path class="bg" fill="#dfeff7" d="M8,15.5c-4.136,0-7.5-3.364-7.5-7.5S3.865,0.5,8,0.5c4.135,0,7.5,3.364,7.5,7.5S12.136,15.5,8,15.5z"/>
<path class="outline" fill="#0080ce" d="m8,1c3.86,0 7,3.14 7,7 0,3.859-3.14,7-7,7s-7-3.141-7-7c0-3.86 3.141-7 7-7m0-1c-4.418,0-8,3.582-8,8 0,4.418 3.582,8 8,8s8-3.582 8-8c0-4.418-3.581-8-8-8z"/>
<g class="grid" fill="none" stroke="#0080ce" stroke-miterlimit="10">
<path d="m8,.5 0,15"/>
<path d="M14,3.25c0,0-2.118,2-5.999,2S2,3.25,2,3.25"/>
<path d="m15.5,8-15,0"/>
<path d="m1.999,12.75c0,0 2.118-2 5.999-2 3.881,0 6.001,2 6.001,2"/>
<path d="m6.5,15.501c0,0-2-3.479-2-7.5s2-7.501 2-7.501"/>
<path d="m9.5,.5c0,0 2,3.479 2,7.5s-2,7.501-2,7.501"/>
</g>
</svg>
