<svg width="12" xmlns="http://www.w3.org/2000/svg" height="12" viewBox="0 0 12 12" xmlns:xlink="http://www.w3.org/1999/xlink" enable-background="new 0 0 12 12">
<path fill="#808285" d="m6,4.586l4.293-4.293c.391-.39 1.024-.39 1.414,0 .391,.39 .391,1.024 0,1.414l-4.293,4.293 4.293,4.293c.392,.392 .391,1.024 0,1.414-.391,.392-1.022,.392-1.414,0l-4.293-4.293-4.293,4.293c-.391,.392-1.024,.391-1.414,0-.39-.39-.391-1.022 0-1.414l4.293-4.293-4.293-4.293c-.391-.391-.391-1.023-0-1.414 .39-.39 1.023-.391 1.414,0l4.293,4.293z"/>
</svg>
