<svg width="32" xmlns="http://www.w3.org/2000/svg" height="32" viewBox="0.5 40.5 32 32" xmlns:xlink="http://www.w3.org/1999/xlink" enable-background="new 0.5 40.5 32 32">
<circle fill="#c01001" cx="16.5" cy="56.5" r="16"/>
<path fill="#fff" d="m18.544,51.969l-.024-4.101v-.097l-.011-.096c-.055-.546-.305-1.889-1.411-2.555-.552-.336-1.085-.502-1.625-.502-.33,0-.589,.063-.748,.111l-.077,.011-.197,.073-3.876,1.439c-.303,.108-1.092,.457-1.598,1.27-.762,1.214-.267,2.572 .414,3.401l1.985,2.707-.321-.161-.068-.035-.07-.028c-.212-.089-.775-.292-1.402-.292-.479,0-.914,.114-1.297,.34-.803,.479-1.349,1.294-1.43,2.131l-.273,3.388c-.041,.558-.009,1.341 .366,1.996 .431,.757 1.244,1.212 2.174,1.212 .415,0 .781-.088 1.008-.158l1.08-.239-.643,.706-.066,.073-.06,.08c-.304,.409-.973,1.489-.611,2.667 .257,.831 .772,1.435 1.534,1.801l.128,.062 .136,.043 3.285,1.037 .096,.03 .099,.02c.087,.018 .401,.078 .78,.078 .314,0 .612-.04 .885-.119 1.162-.336 1.883-1.47 1.793-2.787l.017-1.078-.002-.004 .601,1.004 .051,.086 .061,.082c.305,.409 1.145,1.357 2.374,1.357 .977,0 1.718-.529 1.992-.756l.206-.172 .153-.219 1.984-2.838 .06-.084 .049-.091c.133-.239 .443-.875 .457-1.609 .022-1.213-.853-2.237-2.151-2.536l-1.111-.357 .002,.002 1.044-.306 .099-.028 .094-.039c.471-.19 1.598-.762 1.911-1.949 .243-.951-.078-1.798-.227-2.117l-.114-.244-.175-.206-2.172-2.56c-.39-.536-1.085-1.069-2.027-1.146-.063-.006-.137-.01-.209-.01-1.155,0-1.983,.75-2.397,1.488l-.525,.824z"/>
<g fill="#c01001">
<path d="m18.37,59.229c-.332,.337-.05,.95-.05,.95l2.51,4.189c0,0 .413,.551 .771,.551s.712-.292 .712-.292l1.984-2.839c0,0 .2-.357 .205-.672 .01-.444-.663-.565-.663-.565l-4.702-1.511c0,.002-.459-.12-.767,.189z"/>
<path d="m18.133,57.117c.239,.406 .904,.288 .904,.288l4.689-1.369c0,0 .638-.259 .729-.606 .088-.347-.106-.765-.106-.765l-2.24-2.64c0,0-.194-.333-.598-.367-.444-.038-.718,.5-.718,.5l-2.648,4.168c0,0-.232,.415-.012,.791z"/>
<path d="m15.918,55.492c.551-.137 .639-.938 .639-.938l-.037-6.676c0,0-.084-.823-.454-1.045-.581-.354-.752-.168-.919-.145l-3.892,1.446c0,0-.382,.126-.58,.445-.283,.45 .288,1.11 .288,1.11l4.045,5.515c.001,.001 .401,.413 .91,.288z"/>
<path d="m14.957,58.193c.014-.514-.618-.827-.618-.827l-4.184-2.111c0,0-.619-.255-.92-.077-.23,.137-.435,.383-.455,.601l-.271,3.356c0,0-.042,.578 .11,.844 .213,.375 .915,.113 .915,.113l4.884-1.079c.187-.128 .52-.139 .539-.82z"/>
<path d="m16.17,60.003c-.418-.214-.921,.231-.921,.231l-3.269,3.6c0,0-.409,.551-.305,.888 .098,.318 .259,.476 .488,.585l3.285,1.039c0,0 .397,.082 .698-.007 .43-.123 .351-.794 .351-.794l.073-4.875c.001,.001-.016-.468-.4-.667z"/>
</g>
</svg>
